<?xml version="1.0" encoding="utf-8"?><!-- Uploaded to: SVG Repo, www.svgrepo.com, Generator: SVG Repo Mixer Tools -->
<svg width="800px" height="800px" viewBox="0 0 192.744 192.744" xmlns="http://www.w3.org/2000/svg"><path fill="#ffffff" d="M0 0h192.744v192.744H0z"/><path stroke="#000000" stroke-width=".216" stroke-miterlimit="2.613" d="M87.053 118.908l-.334.816.223 1.48.759 3.313 1.314 4.369 1.092 2.61 1.462 3.332 1.037 1.962 1.592 2.888 1.906 3.219 1.5 2.075 1.258 1.684.056.926-.166.759-.703.277-2.111.111-3.702-.221-3.054-.39-2.684-.481-3.259-.925-1.647-.722-1.092-.481-1.241-.223-1.425.056-.758.333h-1.037l-2.462-.389-1.407-.481-1.536-.111-2.444-.054-1.851-.168h-1.703l-1.684.111-1.148.48-.815.223-.278.389.056.76.777 1.257 1.463 2.019.87.369 1.37.982 1.573.871 1.703.554 2.444.056 2.184-.223 1.851-.424 1.574-.5.666.333.315.647.555.167 1.351-.056 1.703.112.871.277 1.036-.277 3.369.423 2.295.334 3.758.816 2.739.813 2.704.927 2.385 1.092.927.666 2.463.111 1.313-.333.703-1.426.758-1.739-.218-1.407-.926-1.759-1.24-2.555-.984-2.665-.722-3-.313-2.572v-2.499l.259-2.943.334-1.482-.39-1.257-.813-.648-1.629-1.203-1.151-.815-.218-1.574-.538-1.684-1.02-1.648-1.091-1.406-1.369-1.313-1.741-1.316-1.962-1.463-1.037-.499-1.036-.314-.87.147-.759.5z"/><path d="M80.722 8.528l-.018.722-.759.167-.981-.129-1.481.314-1.11.352-.889.056-.278.389.315.537.667.148.629-.185.722-.315.741-.037 1.573.074 1.203.37 1.425.352 2.092.944.186.445-.222.351-.981.352-.592.278-1.055.703-1.61.852-1.962 1.389-2.24 1.018-1.777 1.167-1.61.704-1.518.37-1.333.037-1.833.037-.704.185-.407.852-.315.926-.352.629-.889 1.333-.852 1.48-.574.722-.056.833.056 1.166v1.24l.759.685.667.352.796-.056 1.296-.352 1.462-.444 1.981-.796.796.037.185.5-.185.481-.667.352-2.018.759-1.518.444-.296.5-.056.537.5.444 1.055.129h.852l1.073-.037 1.167-.278 1.685-.889 1.111-.222.944-.186.722.241 1.055-.055 1.037.13.852.5 1.333.129 1.74.537.944.129 1.462-.259 1.87.13.814.314.445.759-.093.981-.222 1.203-.444 1.388-.629 1.74-.629 1.907-.667 1.74-.444 1.203-1.518 2.37-1.833 2.313-1.647 2.277-2.092 2.091-1.925 1.629-1.222 1.295-.647 2.129-.907 1.074-1.148.814-1.388 1.147-2.129 1.296-1.795.907-1.147 1.314-.815 1.056-.814.5-1.147.574-.74-.167-1.462-.667-1.629-1.055-2.388-1.055-2.684-1.407-1.388-1.055-1.722-1.388-1.888-1.555-2.036-.74-1.795-.315-2.295.481-1.629.907-1.407.981-.722 1.795-.5 1.389-.574 2.128-.647 1.295-.648 1.981-.092 2.37-.574 1.388-.648 2.203-.574 2.203-1.055 2.055-.574 2.036-.333 2.536-.907 2.129-.574 1.222-.074 1.222-.074 2.055v3.591l-.408 1.48.241 1.296-.094 2.129.741 1.703.574.407 1.055-.334.98-.889 1.407-1.703 1.222-1.962.481-1.629-.314-1.314-.408-1.629-.5-1.962-.481-2.054-.259-1.556v-1.462l.333-1.647.814-2.518.814-1.314.741-.666.573-.889 1.056-.093.5-.314.74-.667.814-.722.74-.981.5.888.537-.555-2.037-2.999-3.203-2.313-2.666-.629-2.258-2.37-1.98-1.166-2.721-.685 1.5-1.295 2.664-.889 1.98-.611.463-.61-.259-.481-1.094-.277-1.035-.204-7.7.148-1.369-1.518-1.556-1.018-1.979-.889-2.593-.408H96.9l-.61-.814-2.11-2.258L91.644 2.9l-1.555 2.592-.074.814.741.962.074.814-.536.481-1.722.129-3.129-.889-3.073-.663-1.426.055-2.332.481.277.815 1.296-.056.537.093z" stroke="#000000" stroke-width=".216" stroke-miterlimit="2.613"/><path stroke="#000000" stroke-width=".216" stroke-miterlimit="2.613" d="M88.997 7.676l-.149-1.573-2.24-2.721-.685-.204-.481.685.074.815-.759.684-.074.945.889.481 1.24.888h2.185z"/><path fill="none" stroke="#000000" stroke-width=".216" stroke-miterlimit="2.613" d="M84.628 5.899l.055-.129"/><path fill="#ffffff" stroke="#000000" stroke-width=".216" stroke-miterlimit="2.613" d="M108.009 93.826l-3-3.888-2.593-3.813-1.925-2.998-.739-2.055-.407-1.981-.483-1.351-.758-.351-.742.203-.258 1.296.538 2.258 1.295 3.277 1.628 2.646 1.851 2.333 2.037 2.036 1.221 1.166 2.335 1.222zM67.154 24.207l-.722.999-.297 1.018.13.722.352.222 1.018-.222.759-.425.537-.538.296-.999-.296-.481-.648-.537-.537-.055-.592.296zM86.59 21.522h.1.277-.11.369-.129.242zM130.164 122.444l-.442.555.073.889.776 1.073.114 1.166.181.3339.663l-.648.111-.851.815-1.648 2.628-1.74 3.369-.98 1.944-1.093 2.258-1.332 2.055-.333.778.055.277.352.019 1.092-.426 1.573-1.647 2.073-2.907 1.296-2.406 1.166-1.926.87-2.276.389-1.426.037-.796-.278-.444zM61.6 70.835l.37.149.112.444-.278 1.592-.778 2.184-.685 2.092-1.203 1.499-.611.463-.648.241-.37-.26-.037-.481.519-.555.536-.889.685-1.499.408-1.425.37-1.407.721-1.351.482-.685.407-.112zM39.499 66.208l-.778 1.351-.352 1.851-.093.982v.721l.167.37.481-.129.889-1.37.499-1.629.389-1.444.019-1.018-.222-.333-.592.167-.407.481zM49.309 69.003l.056.407.221.278.5.5.538.444.628.352.445.277.185-.018.093-.167-.019-.314-.241-.352-.388-.463-.648-.389-.408-.37-.351-.314-.315-.056-.185-.019-.111.204zM43.774 60.414l-.925.111-.445.315-.148.499.13.371.518.203.851-.092.889-.334.259-.425-.018-.315-.296-.277-.334-.093-.481.037zM89.996 68.836l.611.167.185.333.074.74.092.778-.184.555-.389.223-.944.018-.629-.148-.353-.463-.295-.37v-.593l.462-.592.704-.555.666-.093zM73.965 21.078l.852-.722 1.574-.758 1.573-.704 1.499-.704.685-.333.519-.074.425.093.333.537-.222.388-.425.112-.519.129-.574.481-1.277.778-1.758.481-1.092.278-1.056.074-.537-.056zM70.819 24.225l-.278.444-.037.333.241.278.296.148.37-.018.185-.093.13-.425-.037-.482-.093-.277-.259-.056h-.296l-.222.148zM74.447 27.464l-.259.019-.204.222-.037.37.111.297.204.11h.352l.277-.129.056-.278-.093-.333-.13-.203-.277-.075zM85.257 29.075l1.851-1.314 1.129-.704.685-.425h.241l.037.499-.463.37-.222.76-.574.888-1.036.499-1.055.242h-.945l-.166-.315.24-.334.278-.166zM91.495 29.723l.611-.778.704-.666.629-.425.463-.038.314.204v.574l-.166.629-.704.667-.833.518-.851.222-.408-.13-.055-.333.296-.444zM91.606 32.98l.241-.425.574-.259.999-.482 1.148-.703.537-.388.814-.39.519.13v.556l-.204.5-.722.851-.999.481-1 .407-1.037.019h-.647l-.223-.297zM89.607 15.155l-.592.203-.13.408.241.444.648-.037.537-.204.388-.444-.166-.37-.519-.185-.407.185zM100.047 11.767l-.332-.241.24-.443.926-.093.5.166.39.204.016.333-.332.148-.518.037-.5-.037-.39-.074zM101.563 13.877l.54-.018.408.093.202.129-.073.204-.297.352-.406.036-.482-.073-.278-.13-.203-.241.239-.204.35-.148zM101.455 23.392l.982-.407.85-.444.89-.5.681-.241.411-.111.405-.611-.295-.278-.573.037-.687.149-.759.296-.537.037-.073-.407.073-.778-.312-.315h-.448l-.292.37-.282.371-.442.481-.316.796v.704l.15.388-.036.407.276.093.334-.037zM101.084 61.506l.479-.037.411.333.015.278-.129.167-.371.11-.478-.037-.317-.314.077-.277.313-.223zM101.86 60.433h.556l.371-.408-.037-.296-.371-.241h-.39l-.295.093-.131.277v.408l.297.167zM102.474 56.934l.405-.074h.39l.24.203.054.315-.126.26-.374.184-.386.056-.406-.093-.131-.277v-.333l.334-.241zM102.897 55.416l.556.019.5-.149.202-.314-.146-.389-.406-.203-.484.073-.442.204-.093.333.019.222.294.204zM104.009 51.492l.573-.167h.444l.203.24-.074.426-.276.37-.26.334-.516.111h-.519l-.444-.222-.037-.352.313-.333.239-.278.354-.129zM104.582 48.567l.573-.074.519.111.222.315v.314l-.241.389-.426.074-.444.112-.556-.019-.24-.278.037-.407.187-.278.369-.259zM105.103 47.586h.552l.446-.148.573-.241.074-.481-.203-.389-.483-.166-.499.018-.352.148-.315.167-.37.333-.073.352.15.277.276.093.224.037zM33.26 94.585l.482.056.129.481-.333.407-.556-.13-.277-.537.555-.277zM104.713 44.143l.888-.463.423-.093.521.056.203.185v.204l-.203.333-.353.296-.518.186-.611.054-.5-.073-.128-.297.074-.24.204-.148zM105.509 42.662l.646-.278.259-.296.131-.296v-.278l-.11-.166-.28-.019-.386.037-.39.093-.334.203-.166.204-.058.352.075.314.296.093.317.037zM105.655 40.107l.556-.203.408-.278.092-.24.058-.407-.095-.26-.26-.074-.39.019-.461.092-.315.223-.222.221-.037.37.056.297.298.166.312.074zM105.655 33.499l.464-.019.277.093.076.24-.151.241-.239.259-.39.093h-.407l-.259-.24v-.278l.243-.241.386-.148zM105.692 37.479l.577-.278.442-.389.037-.573-.037-.352-.297-.167-.332-.092-.276.018-.151.186-.073.258-.073.334-.166.111h-.317l-.091.185.037.333.239.297.242.091.239.038zM105.769 31.5l.405-.278.427.019.257.314-.054.315-.203.277-.332.13-.316.075-.279.037-.368-.037-.095-.223.095-.296.22-.203.243-.13zM105.843 30.019l.331-.129.35-.315.021-.297-.036-.314-.224-.13-.35.056-.224.13-.239.258-.019.315v.297l.166.092.224.037zM105.045 27.057l.224-.111.294-.018.243.148.052.222-.089.333-.243.185-.22.13-.297.037-.24-.148-.056-.26.108-.221.224-.297z"/></svg>