<svg xmlns="http://www.w3.org/2000/svg" xmlns:xlink="http://www.w3.org/1999/xlink" width="406" zoomAndPan="magnify" viewBox="0 0 304.5 217.499994" height="290" preserveAspectRatio="xMidYMid meet" version="1.0"><defs><g/><clipPath id="d8c686af13"><path d="M 76 75.273438 L 125 75.273438 L 125 141.980469 L 76 141.980469 Z M 76 75.273438 " clip-rule="nonzero"/></clipPath></defs><g clip-path="url(#d8c686af13)"><path fill="#090909" d="M 124.410156 112.015625 C 124.195312 110.101562 123.617188 108.203125 122.730469 106.476562 C 122.929688 106.621094 123.085938 106.699219 123.246094 106.714844 C 123.257812 106.714844 123.273438 106.714844 123.285156 106.714844 C 123.429688 106.714844 123.550781 106.648438 123.628906 106.527344 C 124.144531 105.808594 122.96875 101.957031 122.953125 101.917969 C 122.714844 101.210938 122.4375 100.523438 122.136719 99.855469 C 122.386719 100.082031 122.585938 100.191406 122.757812 100.203125 C 122.769531 100.203125 122.78125 100.203125 122.796875 100.203125 C 122.980469 100.203125 123.140625 100.125 123.246094 99.976562 C 123.640625 99.417969 123.191406 97.8125 122.691406 96.308594 C 122.664062 96.242188 122.652344 96.175781 122.636719 96.136719 C 122.03125 94.238281 120.890625 91.738281 118.921875 90.050781 C 119.121094 90.128906 119.332031 90.183594 119.542969 90.238281 C 119.796875 90.289062 119.992188 90.316406 120.140625 90.316406 C 120.417969 90.316406 120.601562 90.222656 120.679688 90.0625 C 120.839844 89.746094 120.574219 89.332031 120.113281 88.695312 C 119.597656 87.992188 119.226562 87.195312 118.832031 86.355469 C 118.339844 85.320312 117.839844 84.257812 117.058594 83.355469 C 117.046875 83.339844 117.03125 83.3125 117.03125 83.289062 C 117.03125 83.261719 117.046875 83.246094 117.058594 83.234375 C 117.507812 82.863281 117.71875 82.570312 117.707031 82.289062 C 117.707031 82.117188 117.628906 81.972656 117.480469 81.851562 C 117.480469 81.851562 117.480469 81.851562 117.480469 81.839844 C 117.03125 81.332031 116.253906 81.242188 115.617188 81.175781 C 115.511719 81.160156 115.421875 81.148438 115.328125 81.132812 C 115.035156 81.09375 114.71875 81.054688 114.402344 81.042969 C 114.230469 80.976562 114.046875 80.933594 113.832031 80.910156 C 113.054688 79.0625 112.179688 77.757812 111.175781 76.933594 C 109.90625 75.898438 108.019531 75.6875 106.324219 75.5 C 106.046875 75.472656 105.769531 75.433594 105.519531 75.40625 C 104.820312 75.3125 104.105469 75.273438 103.378906 75.273438 C 101.9375 75.273438 100.46875 75.445312 98.921875 75.820312 C 97.878906 76.058594 96.796875 76.402344 95.644531 76.855469 C 95.472656 76.921875 95.300781 76.988281 95.101562 77.054688 C 94.71875 77.1875 94.335938 77.335938 93.964844 77.507812 C 94.058594 76.960938 94.03125 76.578125 93.859375 76.351562 C 93.753906 76.203125 93.582031 76.125 93.398438 76.125 C 92.84375 76.125 92.234375 76.816406 91.8125 77.386719 C 91.640625 77.625 91.480469 77.867188 91.324219 78.089844 C 90.859375 78.78125 90.410156 79.433594 89.710938 79.925781 C 89.339844 80.175781 88.917969 80.390625 88.519531 80.578125 C 88.109375 80.777344 87.675781 80.988281 87.277344 81.253906 L 87.25 81.265625 C 86.855469 81.546875 86.367188 81.878906 86.074219 82.332031 C 85.941406 82.542969 85.875 82.820312 85.8125 83.101562 C 85.769531 83.273438 85.71875 83.5 85.664062 83.566406 C 85.242188 84.175781 84.332031 84.417969 83.523438 84.640625 C 83.324219 84.695312 83.128906 84.75 82.941406 84.800781 C 80.429688 85.585938 78.472656 87.300781 77.445312 89.652344 C 75.59375 93.835938 76.929688 99.789062 80.40625 102.898438 C 80.5625 103.035156 80.683594 103.152344 80.773438 103.246094 C 81 103.457031 81.105469 103.566406 81.261719 103.566406 C 81.5 103.566406 81.582031 103.351562 81.648438 103.167969 C 81.660156 103.125 81.6875 103.074219 81.699219 103.007812 C 81.898438 102.488281 81.886719 101.945312 81.871094 101.425781 C 81.859375 100.800781 81.84375 100.148438 82.214844 99.578125 C 82.625 98.925781 83.113281 98.792969 83.710938 98.792969 C 83.972656 98.792969 84.238281 98.820312 84.527344 98.847656 C 84.714844 98.859375 84.9375 98.886719 85.148438 98.902344 C 85.441406 98.914062 85.746094 98.925781 86.035156 98.925781 C 87.199219 98.925781 88.375 98.792969 89.65625 98.527344 C 89.722656 100.070312 89.550781 101.664062 88.019531 102.0625 C 88.003906 102.0625 87.964844 102.078125 87.898438 102.078125 C 87.421875 102.078125 86.445312 101.691406 85.730469 101.410156 C 85.125 101.171875 84.832031 101.066406 84.660156 101.066406 C 84.542969 101.066406 84.460938 101.121094 84.421875 101.160156 C 84.332031 101.253906 84.289062 101.398438 84.316406 101.53125 C 84.382812 102.035156 85.242188 102.808594 85.769531 103.246094 C 83.761719 103.964844 82.003906 105.027344 80.535156 106.421875 C 79.796875 107.125 79.136719 107.910156 78.59375 108.71875 C 78.582031 108.734375 78.582031 108.746094 78.582031 108.746094 L 78.566406 108.773438 C 77.390625 111.085938 77.535156 111.324219 77.617188 111.457031 C 77.667969 111.550781 77.773438 111.605469 77.878906 111.605469 C 77.933594 111.605469 77.984375 111.589844 78.023438 111.578125 C 78.394531 111.417969 78.6875 111.097656 79.003906 110.765625 C 79.269531 110.488281 79.53125 110.195312 79.808594 110.050781 C 80.429688 109.703125 81.117188 109.4375 81.738281 109.199219 C 80.429688 110.953125 80.207031 112.933594 80.273438 114.316406 C 80.363281 116.402344 81.15625 118.539062 82.441406 120.214844 C 83.601562 121.730469 85.175781 122.992188 87.078125 123.976562 C 87.925781 124.414062 89.023438 124.945312 90.105469 125.238281 C 91.28125 125.554688 91.441406 125.664062 92.25 126.710938 L 92.378906 126.886719 C 93.464844 128.265625 94.800781 129.996094 94.707031 131.816406 C 94.679688 132.28125 94.523438 133.398438 93.558594 133.769531 C 93.492188 133.796875 93.398438 133.808594 93.277344 133.808594 C 93.121094 133.808594 92.933594 133.796875 92.761719 133.769531 C 92.578125 133.753906 92.378906 133.730469 92.207031 133.730469 C 91.996094 133.730469 91.707031 133.753906 91.519531 133.980469 C 91.375 134.167969 91.347656 134.367188 91.441406 134.566406 C 91.863281 135.457031 95.195312 135.816406 95.710938 135.816406 C 95.789062 135.816406 95.855469 135.816406 95.910156 135.800781 C 97.601562 135.46875 98.949219 134.21875 99.453125 132.585938 C 100.257812 134.378906 100.984375 136.414062 100.695312 138.234375 C 100.550781 139.109375 100.179688 139.816406 99.609375 140.292969 C 99.414062 140.453125 97.457031 140.972656 97.285156 140.996094 L 97.164062 141.011719 L 97.164062 141.050781 L 97.113281 141.023438 L 97.058594 141.144531 C 96.953125 141.371094 97.019531 141.542969 97.074219 141.621094 C 97.230469 141.875 97.628906 141.980469 98.316406 141.980469 C 98.832031 141.980469 99.332031 141.914062 99.425781 141.902344 C 100.152344 141.742188 101.105469 141.289062 101.710938 140.917969 C 102.980469 140.148438 104.039062 138.84375 104.6875 137.261719 C 105.96875 134.074219 105.375 130.394531 104.714844 127.246094 C 105.292969 128.492188 105.679688 129.597656 105.890625 130.605469 C 105.957031 130.9375 105.941406 131.308594 105.917969 131.65625 C 105.890625 131.988281 105.875 132.332031 105.929688 132.664062 C 105.96875 132.890625 105.957031 133.039062 105.941406 133.144531 C 105.929688 133.25 105.929688 133.382812 106.023438 133.488281 C 106.074219 133.554688 106.152344 133.582031 106.246094 133.582031 C 106.339844 133.582031 106.429688 133.542969 106.628906 133.464844 L 106.789062 133.398438 C 107.011719 133.304688 107.289062 132.917969 107.847656 132.109375 C 108.003906 131.882812 108.136719 131.683594 108.203125 131.601562 C 108.757812 130.953125 109.273438 130.140625 109.734375 129.199219 C 110.34375 127.988281 110.742188 126.710938 110.9375 125.398438 C 111.019531 125.757812 111.058594 126.089844 111.097656 126.40625 C 111.136719 126.804688 111.097656 127.285156 111.042969 127.789062 C 110.980469 128.480469 110.914062 129.183594 111.070312 129.769531 C 111.175781 130.140625 111.28125 130.460938 111.574219 130.460938 C 111.773438 130.460938 111.890625 130.300781 112.035156 130.085938 C 112.128906 129.953125 112.234375 129.808594 112.394531 129.664062 C 112.671875 129.382812 112.988281 129.132812 113.277344 128.878906 C 113.726562 128.507812 114.191406 128.109375 114.613281 127.628906 C 117.351562 124.453125 118.765625 121.425781 118.949219 118.394531 C 119.347656 119.628906 119.542969 120.933594 119.542969 122.195312 C 119.542969 122.421875 119.53125 122.699219 119.503906 123.003906 C 119.4375 124.054688 119.410156 124.707031 119.664062 124.972656 C 119.742188 125.050781 119.847656 125.105469 119.953125 125.105469 C 120.191406 125.105469 120.441406 124.945312 120.945312 124.148438 C 122.214844 122.234375 124.976562 117.226562 124.410156 112.015625 Z M 124.410156 112.015625 " fill-opacity="1" fill-rule="nonzero"/></g><path fill="#ffffff" d="M 121.871094 107.777344 C 121.460938 106.6875 120.707031 104.65625 119.464844 103.816406 C 119.398438 103.777344 119.09375 103.65625 118.804688 103.550781 C 117.324219 103.007812 116.6875 102.714844 116.78125 102.355469 C 116.820312 102.183594 116.953125 101.996094 117.335938 101.996094 C 118.539062 101.996094 121.59375 104.082031 122.558594 104.800781 C 122.148438 102.632812 120.972656 98.128906 118.222656 95.871094 C 118.144531 95.804688 117.945312 95.726562 117.71875 95.632812 C 117.125 95.378906 116.386719 95.058594 116.515625 94.570312 C 116.542969 94.476562 116.621094 94.328125 116.902344 94.328125 C 117.257812 94.328125 117.824219 94.582031 118.25 94.78125 L 118.273438 94.792969 C 119.558594 95.40625 120.945312 96.507812 122.003906 97.746094 C 121.300781 95.300781 120.417969 92.839844 118.539062 91.128906 C 117.734375 90.394531 116.808594 89.839844 115.777344 89.480469 C 115.683594 89.441406 115.355469 89.386719 115.023438 89.332031 C 113.714844 89.121094 113.238281 89 113.171875 88.789062 C 113.121094 88.628906 113.171875 88.507812 113.210938 88.441406 C 113.371094 88.21875 113.808594 88.109375 114.585938 88.109375 C 115.894531 88.109375 117.839844 88.429688 118.671875 88.601562 C 118.25 88.019531 117.917969 87.261719 117.601562 86.53125 C 117.308594 85.851562 117.03125 85.214844 116.714844 84.800781 C 116.53125 84.5625 116.359375 84.363281 116.214844 84.191406 C 115.75 83.660156 115.5 83.378906 115.871094 82.730469 C 115.765625 82.703125 115.644531 82.6875 115.539062 82.664062 C 115.40625 82.636719 115.273438 82.609375 115.140625 82.582031 L 115.101562 82.570312 C 114.945312 82.542969 114.785156 82.515625 114.628906 82.488281 C 114.402344 82.582031 114.125 82.621094 113.808594 82.621094 C 113.398438 82.621094 112.960938 82.554688 112.578125 82.488281 C 112.417969 82.464844 112.273438 82.4375 112.140625 82.421875 C 111.640625 82.355469 111.125 82.304688 110.621094 82.265625 C 109.972656 82.210938 109.3125 82.144531 108.652344 82.039062 C 108.46875 82.011719 108.335938 81.839844 108.335938 81.625 C 108.335938 81.414062 108.46875 81.242188 108.652344 81.199219 C 108.941406 81.148438 109.21875 81.109375 109.5 81.082031 C 109.523438 80.910156 109.5625 80.695312 109.617188 80.457031 C 109.777344 80.722656 109.90625 80.910156 110 81.042969 C 110.636719 81 111.269531 80.988281 111.929688 80.976562 L 112.023438 80.976562 C 112.128906 80.976562 112.234375 80.976562 112.351562 80.960938 C 112.261719 80.417969 112.117188 79.820312 111.71875 79.222656 C 111.296875 78.570312 110.714844 78.132812 109.777344 77.746094 C 108.125 77.066406 106.023438 76.921875 104.371094 76.882812 C 104.210938 76.882812 104.050781 76.882812 103.894531 76.882812 C 102.203125 76.882812 100.46875 77.121094 98.554688 77.613281 C 97.667969 77.839844 96.730469 78.078125 95.804688 78.34375 C 95.605469 78.398438 95.394531 78.464844 95.183594 78.53125 C 94.613281 78.714844 94.019531 78.902344 93.449219 78.914062 C 93.359375 78.929688 93.265625 78.941406 93.199219 78.941406 C 93.015625 78.941406 92.871094 78.875 92.777344 78.757812 C 92.671875 78.609375 92.632812 78.382812 92.683594 78.039062 C 92.550781 78.238281 92.433594 78.449219 92.300781 78.664062 C 91.824219 79.460938 91.335938 80.296875 90.609375 80.867188 C 90.132812 81.242188 89.632812 81.492188 89.128906 81.730469 C 88.363281 82.105469 87.636719 82.464844 87.132812 83.234375 C 87.410156 83.195312 87.675781 83.179688 87.953125 83.179688 C 88.335938 83.179688 88.730469 83.21875 89.101562 83.289062 C 89.289062 83.3125 89.472656 83.367188 89.671875 83.421875 C 89.683594 83.394531 89.695312 83.378906 89.710938 83.355469 C 90.769531 81.957031 92.566406 81.015625 94.191406 81.015625 C 94.585938 81.015625 94.984375 81.066406 95.339844 81.175781 C 95.511719 81.226562 95.632812 81.386719 95.632812 81.585938 C 95.632812 81.773438 95.511719 81.917969 95.339844 81.972656 L 95.089844 82.039062 C 94.324219 82.238281 93.609375 82.4375 92.894531 82.742188 C 92.167969 83.0625 91.625 83.539062 91.085938 84.03125 C 91.746094 84.441406 92.273438 84.949219 92.777344 85.441406 C 93.730469 86.34375 94.546875 87.128906 95.882812 87.128906 C 96.148438 87.128906 96.425781 87.101562 96.730469 87.035156 C 96.175781 86.78125 95.617188 86.464844 95.527344 86.183594 C 95.5 86.105469 95.5 86.039062 95.539062 85.972656 C 95.566406 85.929688 95.605469 85.90625 95.660156 85.90625 C 95.671875 85.90625 95.683594 85.90625 95.683594 85.90625 C 95.699219 85.90625 95.722656 85.917969 95.738281 85.929688 C 96.015625 86.039062 98.644531 86.609375 98.949219 86.621094 C 99.042969 86.621094 99.121094 86.621094 99.199219 86.621094 C 100.273438 86.621094 101.222656 86.398438 102.320312 86.039062 C 102.769531 85.890625 103.21875 85.746094 103.695312 85.574219 C 105.480469 84.960938 107.316406 84.335938 109.113281 84.335938 C 109.195312 84.335938 109.285156 84.335938 109.367188 84.335938 C 109.390625 84.335938 112.484375 84.46875 112.566406 85.253906 C 112.589844 85.53125 112.15625 85.625 111.375 85.785156 C 111.058594 85.851562 110.6875 85.917969 110.570312 85.984375 C 109.90625 86.382812 109.5625 86.714844 109.5625 86.980469 C 109.5625 87.273438 109.988281 87.511719 110.382812 87.75 C 110.871094 88.03125 111.429688 88.351562 111.191406 88.839844 C 111.136719 88.960938 110.964844 89.015625 110.59375 89.015625 C 110.292969 89.015625 109.894531 88.988281 109.550781 88.949219 C 109.273438 88.921875 109.007812 88.90625 108.851562 88.90625 C 108.796875 88.90625 108.757812 88.90625 108.746094 88.90625 C 108.191406 89 107.675781 89.214844 107.078125 89.597656 C 106.734375 89.824219 106.429688 90.0625 106.140625 90.289062 C 105.613281 90.703125 105.121094 91.101562 104.4375 91.367188 C 103.800781 91.617188 103.085938 91.765625 102.375 91.765625 C 100.695312 91.765625 98.871094 90.980469 98.078125 89.265625 C 98.171875 89.773438 98.367188 90.261719 98.683594 90.847656 L 98.671875 90.847656 C 98.921875 91.113281 99.414062 92.03125 99.425781 92.082031 C 99.453125 92.164062 99.519531 92.308594 99.425781 92.402344 C 99.398438 92.429688 99.347656 92.46875 99.265625 92.46875 C 99.042969 92.46875 98.671875 92.164062 98.089844 91.660156 C 97.695312 91.3125 97.152344 90.847656 96.953125 90.820312 C 96.980469 91.101562 98.023438 92.214844 98.289062 92.441406 C 99.148438 93.09375 100.378906 93.546875 102.015625 93.824219 C 102.109375 93.835938 102.453125 93.863281 102.863281 93.890625 C 105.386719 94.050781 105.796875 94.144531 105.824219 94.371094 C 105.851562 94.570312 105.613281 94.660156 104.910156 94.875 C 104.566406 94.980469 103.984375 95.167969 103.90625 95.285156 C 103.789062 95.472656 103.75 95.976562 104.886719 97.253906 C 105.53125 97.984375 106.351562 98.503906 107.316406 98.78125 C 107.398438 98.808594 107.632812 98.835938 107.898438 98.859375 C 109.035156 99.007812 109.445312 99.085938 109.484375 99.324219 C 109.5 99.367188 109.484375 99.417969 109.457031 99.445312 C 109.40625 99.5 109.328125 99.539062 109.007812 99.539062 C 108.230469 99.539062 106.367188 99.339844 105.121094 99.21875 C 104.554688 99.167969 104.09375 99.113281 104 99.113281 C 103.945312 99.113281 103.878906 99.113281 103.8125 99.113281 C 101.925781 99.113281 99.347656 99.589844 98 100.613281 C 99.941406 101.1875 101.621094 102.898438 102.214844 104.945312 C 102.320312 105.320312 102.398438 109.320312 101.632812 110.339844 C 101.5 110.515625 101.355469 110.59375 101.183594 110.59375 C 101.105469 110.59375 101.011719 110.566406 100.917969 110.527344 C 100.5625 110.339844 100.507812 109.34375 100.484375 107.964844 C 100.46875 107.539062 100.46875 107.179688 100.429688 107.019531 C 100.101562 105.1875 99.386719 103.976562 98.117188 103.179688 C 98.539062 104.347656 99.160156 107.445312 98.632812 108.507812 C 98.554688 108.667969 98.449219 108.773438 98.355469 108.828125 C 98.34375 108.839844 98.316406 108.851562 98.300781 108.851562 C 98.300781 108.851562 98.289062 108.851562 98.289062 108.851562 C 98.261719 108.867188 98.25 108.867188 98.222656 108.878906 C 98.15625 108.90625 98.089844 108.90625 98.039062 108.90625 C 98.023438 108.90625 98 108.90625 97.984375 108.90625 L 98 108.773438 L 98 108.707031 C 98 108.695312 98 108.667969 98 108.640625 C 97.917969 108.640625 97.878906 108.707031 97.878906 108.746094 C 97.890625 108.496094 97.21875 105.210938 97.058594 104.707031 C 96.691406 103.605469 96.148438 102.621094 95.578125 101.585938 C 95.421875 101.292969 95.261719 101 95.101562 100.707031 C 94.984375 101.625 94.628906 102.488281 94.085938 103.179688 C 94.074219 103.191406 92.894531 104.601562 92.300781 104.601562 C 92.222656 104.601562 92.15625 104.574219 92.101562 104.535156 C 91.90625 104.386719 92.050781 104.03125 92.550781 103.019531 C 92.65625 102.820312 92.75 102.632812 92.761719 102.566406 C 93 101.769531 92.960938 100.972656 92.871094 100.308594 C 92.328125 101.613281 91.429688 102.753906 90.382812 103.445312 C 89.578125 103.976562 88.773438 104.003906 88.003906 104.03125 C 87.765625 104.042969 87.527344 104.042969 87.292969 104.070312 C 87.277344 104.164062 87.183594 104.28125 87.132812 104.28125 C 87.011719 104.296875 86.867188 104.230469 86.777344 104.203125 C 86.789062 104.175781 86.800781 104.164062 86.816406 104.136719 C 86.777344 104.136719 86.75 104.148438 86.710938 104.148438 C 84.34375 104.65625 81.832031 106.328125 80.035156 108.574219 C 80.972656 108.109375 82.71875 107.339844 83.578125 107.339844 C 83.867188 107.339844 84.050781 107.417969 84.144531 107.589844 C 84.265625 107.804688 84.183594 108.136719 83.90625 108.585938 C 83.65625 109 83.351562 109.34375 83.0625 109.675781 C 82.636719 110.167969 82.230469 110.621094 81.964844 111.273438 C 81.542969 112.335938 81.355469 113.492188 81.460938 114.605469 C 81.910156 120.015625 87.054688 122.726562 90.332031 123.921875 C 89.921875 123.257812 89.035156 121.742188 88.492188 120.492188 C 88.109375 119.789062 87.765625 118.832031 87.808594 117.636719 C 87.898438 114.964844 89.15625 113.515625 89.328125 113.863281 C 89.5 114.207031 88.851562 117.34375 89.578125 119.351562 C 90.398438 121.648438 91.773438 122.714844 91.773438 122.714844 L 90.199219 122.074219 C 90.332031 122.339844 90.449219 122.539062 90.488281 122.605469 C 91.019531 123.363281 91.625 124.082031 92.207031 124.773438 C 92.605469 125.25 93.027344 125.742188 93.410156 126.246094 C 94.125 127.164062 96.398438 130.339844 95.804688 132.746094 C 95.605469 133.542969 95.101562 134.167969 94.308594 134.617188 C 94.535156 134.660156 94.746094 134.671875 94.972656 134.671875 C 96.753906 134.671875 98.183594 133.398438 98.449219 131.574219 C 98.621094 130.367188 98.289062 129.78125 97.667969 128.71875 C 97.640625 128.664062 97.5625 128.558594 97.46875 128.398438 C 96.347656 126.644531 95.949219 125.890625 96.015625 125.648438 C 96.027344 125.597656 96.054688 125.554688 96.09375 125.53125 C 96.132812 125.503906 96.175781 125.503906 96.214844 125.503906 C 97.164062 125.503906 100.640625 132.359375 100.679688 132.425781 C 101.582031 134.472656 102.597656 137.355469 101.605469 139.601562 C 103.921875 137.554688 104.15625 134.246094 104.144531 132.863281 C 104.144531 132.613281 104 131.695312 103.828125 130.527344 C 102.980469 124.851562 102.875 123.097656 103.378906 123.003906 C 103.390625 123.003906 103.40625 123.003906 103.429688 123.003906 C 103.722656 123.003906 104.199219 123.402344 105.546875 126.328125 C 105.574219 126.394531 105.597656 126.445312 105.625 126.488281 C 106.234375 127.777344 106.988281 129.371094 107.226562 130.953125 C 108.746094 128.984375 109.605469 126.976562 109.855469 124.8125 C 110.015625 123.523438 109.949219 122.222656 109.671875 120.933594 C 109.578125 120.507812 109.367188 120.015625 109.15625 119.550781 C 108.863281 118.914062 108.574219 118.25 108.546875 117.648438 C 108.535156 117.292969 108.574219 117.078125 108.679688 116.972656 C 108.730469 116.917969 108.796875 116.894531 108.863281 116.894531 C 109.246094 116.894531 109.722656 117.757812 109.867188 118.007812 C 110.25 118.726562 110.421875 119.484375 110.59375 120.226562 C 110.660156 120.519531 110.726562 120.824219 110.820312 121.117188 C 110.980469 121.714844 111.175781 122.300781 111.363281 122.886719 C 111.863281 124.46875 112.394531 126.089844 112.378906 127.84375 C 112.777344 127.351562 113.199219 126.886719 113.597656 126.421875 C 115.167969 124.613281 116.664062 122.898438 117.269531 120.375 C 117.652344 118.792969 117.734375 117.039062 117.480469 115.695312 C 117.46875 115.617188 117.351562 115.285156 117.21875 114.914062 C 116.449219 112.679688 116.304688 112.042969 116.542969 111.894531 C 116.582031 111.871094 116.636719 111.855469 116.675781 111.855469 C 117.179688 111.855469 117.957031 113.371094 119.054688 115.828125 C 119.199219 116.148438 119.320312 116.402344 119.359375 116.492188 C 120.285156 118.222656 120.800781 120.214844 120.800781 122.074219 C 121.578125 120.226562 122.347656 118.316406 122.769531 116.335938 C 123.3125 113.742188 123.019531 110.832031 121.871094 107.777344 Z M 113.570312 85.558594 C 113.621094 85.375 113.769531 85.214844 113.914062 84.988281 C 114.136719 85.132812 114.21875 85.1875 114.308594 85.242188 C 114.136719 85.453125 113.953125 85.664062 113.78125 85.878906 C 113.703125 85.773438 113.542969 85.640625 113.570312 85.558594 Z M 109.960938 79.953125 C 110.054688 79.953125 110.132812 80.085938 110.277344 80.203125 C 110.105469 80.296875 110 80.417969 109.921875 80.390625 C 109.828125 80.363281 109.777344 80.230469 109.695312 80.136719 C 109.789062 80.070312 109.867188 79.953125 109.960938 79.953125 Z M 101.816406 83.0625 C 101.738281 82.96875 101.59375 82.863281 101.605469 82.769531 C 101.621094 82.648438 101.738281 82.503906 101.84375 82.464844 C 101.949219 82.421875 102.097656 82.515625 102.332031 82.582031 C 102.003906 82.886719 101.910156 82.96875 101.816406 83.0625 Z M 102.957031 99.257812 C 103.085938 99.351562 103.207031 99.457031 103.390625 99.605469 C 103.246094 99.777344 103.152344 99.882812 103.074219 99.976562 C 102.980469 99.789062 102.875 99.617188 102.808594 99.433594 C 102.785156 99.40625 102.941406 99.257812 102.957031 99.257812 Z M 106.429688 125.890625 C 106.429688 125.890625 105.097656 122.699219 102.675781 119.871094 C 102.675781 119.871094 100.101562 117.210938 100.523438 117.011719 C 100.945312 116.8125 104.210938 118.726562 105.402344 120.585938 C 106.589844 122.445312 106.589844 122.445312 106.589844 122.445312 C 106.589844 122.445312 106.667969 121.171875 106.234375 119.882812 C 105.796875 118.605469 106.40625 119.269531 107.011719 120.757812 C 107.632812 122.246094 107.675781 124.148438 106.429688 125.890625 Z M 114.203125 106.449219 C 113.980469 106.410156 113.792969 106.144531 113.597656 105.96875 C 113.714844 105.890625 113.847656 105.730469 113.964844 105.730469 C 114.257812 105.757812 114.535156 105.863281 115.089844 106.011719 C 114.613281 106.261719 114.375 106.488281 114.203125 106.449219 Z M 114.203125 106.449219 " fill-opacity="1" fill-rule="nonzero"/><path fill="#f4f239" d="M 102.347656 87.550781 C 102.847656 87.445312 103.390625 87.328125 103.960938 87.167969 C 103.828125 87.710938 103.378906 88.070312 102.996094 88.070312 C 102.71875 88.085938 102.492188 87.898438 102.347656 87.550781 Z M 105.875 86.609375 C 105.082031 86.875 105.082031 86.875 104.871094 87.671875 L 104.820312 87.859375 C 104.605469 88.65625 104.09375 89.28125 103.40625 89.574219 C 103.113281 89.707031 102.769531 89.773438 102.414062 89.773438 C 101.277344 89.773438 99.953125 89.105469 99.730469 87.871094 C 99.703125 87.792969 99.371094 87.726562 98.765625 87.683594 C 98.683594 87.683594 98.621094 87.671875 98.566406 87.671875 C 98.921875 88.972656 99.863281 90.941406 102.320312 90.941406 C 102.414062 90.941406 102.503906 90.941406 102.613281 90.929688 C 105.480469 90.753906 105.96875 88.21875 105.980469 86.597656 C 105.929688 86.597656 105.902344 86.597656 105.875 86.609375 Z M 105.875 86.609375 " fill-opacity="1" fill-rule="nonzero"/><path fill="#f2b03b" d="M 86.445312 95.859375 C 87.316406 95.660156 88.164062 95.257812 88.984375 94.875 C 90 94.394531 91.058594 93.90625 92.183594 93.785156 C 92.328125 93.769531 92.484375 93.757812 92.632812 93.757812 C 93.808594 93.757812 94.867188 94.25 95.894531 94.726562 C 96.476562 94.992188 97.074219 95.273438 97.679688 95.460938 C 98.34375 95.660156 99.027344 95.765625 99.714844 95.765625 C 100.828125 95.765625 101.9375 95.5 102.96875 94.992188 C 99.53125 94.875 96.664062 93.082031 93.980469 89.347656 C 93.769531 89.054688 93.558594 88.75 93.332031 88.429688 C 91.96875 86.464844 90.4375 84.242188 88.136719 84.242188 C 87.699219 84.242188 87.25 84.324219 86.789062 84.484375 C 87.570312 84.5625 88.902344 84.777344 89.15625 85.1875 C 89.222656 85.292969 89.222656 85.398438 89.167969 85.507812 C 89.089844 85.664062 88.851562 85.691406 88.652344 85.691406 C 88.269531 85.691406 87.699219 85.597656 87.238281 85.519531 C 86.949219 85.464844 86.683594 85.425781 86.5625 85.425781 C 86.367188 85.414062 86.179688 85.414062 86.007812 85.414062 C 85.214844 85.414062 84.542969 85.480469 83.921875 85.640625 C 83.894531 85.664062 83.867188 85.691406 83.855469 85.71875 C 83.839844 85.707031 83.816406 85.691406 83.800781 85.664062 C 83.667969 85.707031 83.550781 85.730469 83.417969 85.773438 C 81.542969 86.382812 79.96875 87.726562 78.964844 89.53125 C 76.359375 94.222656 78.816406 99.035156 80.734375 101.703125 C 80.640625 100.390625 80.933594 98.808594 82.109375 98.050781 C 82.851562 96.601562 84.476562 96.257812 85.917969 95.964844 C 86.074219 95.9375 86.261719 95.898438 86.445312 95.859375 Z M 80.21875 99.074219 C 79.941406 98.769531 79.675781 98.570312 79.546875 98.15625 C 79.425781 97.757812 79.375 97.320312 79.425781 96.894531 C 79.464844 96.429688 80.191406 96.390625 80.167969 96.878906 C 80.140625 97.238281 80.152344 97.597656 80.234375 97.957031 C 80.296875 98.277344 80.296875 98.660156 80.417969 98.96875 C 80.457031 99.058594 80.296875 99.152344 80.21875 99.074219 Z M 83.878906 86.664062 C 83.789062 86.636719 83.683594 86.53125 83.65625 86.4375 C 83.644531 86.382812 83.761719 86.210938 83.816406 86.222656 C 83.90625 86.222656 84 86.332031 84.289062 86.53125 C 84.078125 86.597656 83.972656 86.675781 83.878906 86.664062 Z M 99.003906 96.5625 C 100.179688 96.5625 101.449219 96.335938 102.613281 95.9375 C 101.566406 97.398438 100.351562 98.078125 98.777344 98.078125 C 97.8125 98.078125 96.730469 97.824219 95.339844 97.28125 C 94.601562 96.988281 93.792969 96.839844 92.882812 96.839844 C 91.691406 96.839844 90.464844 97.082031 89.289062 97.320312 C 88.109375 97.546875 86.882812 97.785156 85.703125 97.785156 C 85.546875 97.785156 85.402344 97.785156 85.253906 97.769531 C 85.070312 97.757812 84.886719 97.746094 84.699219 97.730469 C 84.382812 97.703125 84.039062 97.679688 83.710938 97.679688 C 83.628906 97.679688 83.550781 97.679688 83.472656 97.679688 C 84.277344 97.148438 85.28125 96.960938 86.261719 96.773438 C 86.800781 96.667969 87.355469 96.5625 87.871094 96.402344 C 88.386719 96.242188 88.890625 96.03125 89.378906 95.832031 C 90.382812 95.417969 91.414062 94.992188 92.511719 94.96875 C 92.539062 94.96875 92.578125 94.96875 92.605469 94.96875 C 93.597656 94.96875 94.457031 95.339844 95.367188 95.726562 C 96.054688 96.015625 96.769531 96.324219 97.535156 96.441406 C 98.011719 96.523438 98.5 96.5625 99.003906 96.5625 Z M 92.300781 98.4375 C 92.421875 98.449219 92.527344 98.570312 92.75 98.714844 C 92.511719 98.820312 92.394531 98.925781 92.273438 98.925781 C 92.207031 98.925781 92.0625 98.753906 92.078125 98.6875 C 92.089844 98.59375 92.222656 98.4375 92.300781 98.4375 Z M 98.394531 108.867188 C 98.382812 108.878906 98.355469 108.894531 98.34375 108.894531 C 98.34375 108.894531 98.328125 108.894531 98.328125 108.894531 C 98.300781 108.90625 98.289062 108.90625 98.261719 108.917969 C 98.300781 108.878906 98.328125 108.851562 98.367188 108.851562 C 98.367188 108.867188 98.382812 108.867188 98.394531 108.867188 Z M 92.933594 99.339844 C 93.027344 99.417969 93.121094 99.5 93.265625 99.617188 C 93.132812 99.722656 93.066406 99.789062 92.988281 99.855469 C 92.921875 99.75 92.828125 99.644531 92.789062 99.523438 C 92.777344 99.484375 92.882812 99.40625 92.933594 99.339844 Z M 92.933594 99.339844 " fill-opacity="1" fill-rule="nonzero"/><g fill="#eb9018" fill-opacity="1"><g transform="translate(132.723201, 111.268041)"><g><path d="M 10.753906 -16.132812 L 10.753906 -15.09375 C 12.78125 -15.015625 14.003906 -14.730469 13.558594 -13.40625 L 10.574219 -4.105469 L 7.015625 -13.742188 C 6.625 -14.78125 7.613281 -15.015625 8.9375 -15.09375 L 8.9375 -16.132812 C 6 -16.054688 3.167969 -16.054688 0.261719 -16.132812 L 0.261719 -15.09375 C 1.894531 -14.964844 2.46875 -14.289062 3.195312 -12.339844 L 7.820312 0.128906 L 10.289062 0.128906 L 14.808594 -13.015625 C 15.300781 -14.445312 16.054688 -14.964844 17.976562 -15.09375 L 17.976562 -16.132812 C 15.585938 -16.054688 13.144531 -16.054688 10.753906 -16.132812 Z M 10.753906 -16.132812 "/></g></g></g><g fill="#eb9018" fill-opacity="1"><g transform="translate(150.957782, 111.268041)"><g><path d="M 4.105469 -14.546875 C 5.273438 -14.546875 6.183594 -15.507812 6.183594 -16.679688 C 6.183594 -17.847656 5.273438 -18.757812 4.105469 -18.757812 C 2.933594 -18.757812 1.972656 -17.847656 1.972656 -16.679688 C 1.972656 -15.507812 2.933594 -14.546875 4.105469 -14.546875 Z M 6.207031 -2 L 6.207031 -8.625 C 6.207031 -10.3125 6.207031 -11.300781 6.363281 -12.546875 C 6.207031 -12.886719 5.949219 -13.144531 5.585938 -13.300781 C 4.078125 -12.417969 2.234375 -11.871094 0.519531 -11.558594 L 0.519531 -10.519531 C 1.585938 -10.703125 2.128906 -10.417969 2.128906 -9.273438 L 2.128906 -2 C 2.128906 -1.351562 1.429688 -1.144531 0.519531 -1.039062 L 0.519531 0 C 2.960938 -0.0507812 5.429688 -0.0507812 7.871094 0 L 7.871094 -1.039062 C 6.882812 -1.144531 6.207031 -1.351562 6.207031 -2 Z M 6.207031 -2 "/></g></g></g><g fill="#eb9018" fill-opacity="1"><g transform="translate(159.347768, 111.268041)"><g><path d="M 11.066406 -3.636719 C 11.066406 -6.496094 7.792969 -7.636719 6.261719 -8.339844 C 5.015625 -8.882812 4.027344 -9.480469 4.027344 -10.574219 C 4.027344 -11.480469 4.648438 -12.132812 5.765625 -12.132812 C 6.832031 -12.132812 8.363281 -11.507812 9.351562 -9.300781 L 10.234375 -9.300781 L 10 -13.015625 L 8.9375 -13.015625 C 8.882812 -12.730469 8.675781 -12.496094 8.261719 -12.496094 C 7.585938 -12.496094 6.804688 -13.222656 5.144531 -13.222656 C 2.675781 -13.222656 0.78125 -11.742188 0.78125 -9.402344 C 0.78125 -6.546875 3.609375 -5.402344 5.273438 -4.648438 C 6.625 -4.050781 7.664062 -3.507812 7.664062 -2.285156 C 7.664062 -1.324219 7.015625 -0.726562 6 -0.726562 C 4.648438 -0.726562 2.414062 -1.820312 1.792969 -3.714844 L 0.855469 -3.714844 L 1.195312 0 L 2.390625 0 C 2.390625 -0.414062 2.570312 -0.648438 2.832031 -0.648438 C 3.402344 -0.648438 4.570312 0.363281 6.390625 0.363281 C 8.625 0.363281 11.066406 -1.167969 11.066406 -3.636719 Z M 11.066406 -3.636719 "/></g></g></g><g fill="#eb9018" fill-opacity="1"><g transform="translate(171.062577, 111.268041)"><g><path d="M 14.601562 -2 L 14.601562 -8.675781 C 14.601562 -12.390625 12.546875 -13.300781 10.703125 -13.300781 C 7.976562 -13.300781 6.417969 -11.351562 5.898438 -10.363281 L 6.207031 -11.976562 L 6.207031 -13.636719 C 6.207031 -15.300781 6.207031 -16.289062 6.363281 -17.535156 C 6.207031 -17.871094 5.949219 -18.132812 5.585938 -18.289062 C 4.078125 -17.40625 2.234375 -16.859375 0.519531 -16.546875 L 0.519531 -15.507812 C 1.585938 -15.691406 2.128906 -15.40625 2.128906 -14.289062 L 2.128906 -2 C 2.128906 -1.351562 1.429688 -1.144531 0.519531 -1.039062 L 0.519531 0 C 2.960938 -0.0507812 5.429688 -0.0507812 7.871094 0 L 7.871094 -1.039062 C 6.882812 -1.144531 6.207031 -1.351562 6.207031 -2 L 6.207031 -9.144531 C 6.363281 -9.898438 7.222656 -11.429688 8.753906 -11.429688 C 9.871094 -11.429688 10.546875 -10.625 10.546875 -8.675781 L 10.546875 -2 C 10.546875 -1.351562 9.820312 -1.117188 8.832031 -1.039062 L 8.832031 0 C 11.351562 -0.078125 13.820312 -0.078125 16.289062 0 L 16.289062 -1.039062 C 15.300781 -1.144531 14.601562 -1.351562 14.601562 -2 Z M 14.601562 -2 "/></g></g></g><g fill="#eb9018" fill-opacity="1"><g transform="translate(187.738636, 111.268041)"><g><path d="M 12.417969 -3.195312 L 12.417969 -9.558594 C 12.417969 -12.753906 10.183594 -13.25 7.949219 -13.25 C 4.078125 -13.25 1.402344 -11.636719 1.402344 -9.691406 C 1.402344 -8.832031 1.921875 -8.210938 3.117188 -8.210938 C 6.128906 -8.210938 3.921875 -12.261719 6.804688 -12.261719 C 7.84375 -12.261719 8.339844 -11.691406 8.339844 -9.613281 L 8.339844 -8.027344 C 2.519531 -6.78125 0.648438 -5.535156 0.648438 -3.117188 C 0.648438 -0.675781 2.519531 0.363281 4.46875 0.363281 C 6.960938 0.363281 8.078125 -1.429688 8.363281 -1.921875 L 8.625 -1.921875 L 8.496094 -0.363281 C 8.597656 -0.0507812 8.832031 0.207031 9.222656 0.363281 C 10.546875 0.078125 12.3125 -0.261719 14.105469 -0.285156 L 14.105469 -1.375 C 13.09375 -1.480469 12.417969 -1.949219 12.417969 -3.195312 Z M 6.128906 -1.402344 C 5.222656 -1.402344 4.703125 -2.261719 4.703125 -3.429688 C 4.703125 -4.183594 4.960938 -6.339844 8.339844 -7.167969 L 8.339844 -3.453125 C 8.054688 -2.753906 7.351562 -1.402344 6.128906 -1.402344 Z M 6.128906 -1.402344 "/></g></g></g><g fill="#eb9018" fill-opacity="1"><g transform="translate(202.362662, 111.268041)"><g><path d="M 6.207031 -2 L 6.207031 -13.636719 C 6.207031 -15.300781 6.207031 -16.289062 6.363281 -17.535156 C 6.207031 -17.871094 5.949219 -18.132812 5.585938 -18.289062 C 4.078125 -17.40625 2.234375 -16.859375 0.519531 -16.546875 L 0.519531 -15.507812 C 1.585938 -15.691406 2.128906 -15.40625 2.128906 -14.289062 L 2.128906 -2 C 2.128906 -1.351562 1.429688 -1.144531 0.519531 -1.039062 L 0.519531 0 C 2.960938 -0.0507812 5.429688 -0.0507812 7.871094 0 L 7.871094 -1.039062 C 6.882812 -1.144531 6.207031 -1.351562 6.207031 -2 Z M 6.207031 -2 "/></g></g></g></svg>