<svg xmlns="http://www.w3.org/2000/svg" xmlns:xlink="http://www.w3.org/1999/xlink" width="500" zoomAndPan="magnify" viewBox="0 0 375 374.999991" height="500" preserveAspectRatio="xMidYMid meet" version="1.0"><defs><clipPath id="c06646bfb7"><path d="M 80 211.90625 L 123 211.90625 L 123 269.65625 L 80 269.65625 Z M 80 211.90625 " clip-rule="nonzero"/></clipPath></defs><g clip-path="url(#c06646bfb7)"><path fill="#090909" d="M 122.738281 243.714844 C 122.554688 242.058594 122.042969 240.414062 121.261719 238.917969 C 121.4375 239.046875 121.578125 239.113281 121.714844 239.125 C 121.726562 239.125 121.738281 239.125 121.75 239.125 C 121.878906 239.125 121.984375 239.070312 122.054688 238.964844 C 122.507812 238.34375 121.472656 235.007812 121.460938 234.972656 C 121.25 234.363281 121.007812 233.765625 120.738281 233.191406 C 120.960938 233.386719 121.136719 233.476562 121.285156 233.488281 C 121.296875 233.488281 121.308594 233.488281 121.320312 233.488281 C 121.484375 233.488281 121.625 233.421875 121.714844 233.292969 C 122.066406 232.8125 121.671875 231.417969 121.226562 230.117188 C 121.207031 230.0625 121.195312 230.003906 121.183594 229.96875 C 120.648438 228.324219 119.648438 226.160156 117.914062 224.699219 C 118.089844 224.769531 118.273438 224.816406 118.460938 224.863281 C 118.683594 224.90625 118.855469 224.929688 118.984375 224.929688 C 119.230469 224.929688 119.390625 224.851562 119.460938 224.710938 C 119.601562 224.4375 119.367188 224.078125 118.960938 223.527344 C 118.507812 222.917969 118.183594 222.226562 117.832031 221.503906 C 117.402344 220.605469 116.960938 219.683594 116.277344 218.902344 C 116.265625 218.890625 116.253906 218.867188 116.253906 218.84375 C 116.253906 218.820312 116.265625 218.808594 116.277344 218.800781 C 116.671875 218.476562 116.855469 218.222656 116.84375 217.980469 C 116.84375 217.832031 116.773438 217.707031 116.648438 217.601562 C 116.648438 217.601562 116.648438 217.601562 116.648438 217.589844 C 116.253906 217.152344 115.566406 217.074219 115.007812 217.015625 C 114.914062 217.003906 114.832031 216.992188 114.753906 216.980469 C 114.496094 216.945312 114.21875 216.914062 113.9375 216.902344 C 113.789062 216.84375 113.625 216.808594 113.4375 216.785156 C 112.753906 215.1875 111.984375 214.058594 111.101562 213.347656 C 109.984375 212.449219 108.324219 212.265625 106.835938 212.105469 C 106.589844 212.082031 106.347656 212.046875 106.125 212.023438 C 105.507812 211.941406 104.882812 211.90625 104.242188 211.90625 C 102.976562 211.90625 101.683594 212.058594 100.324219 212.378906 C 99.40625 212.585938 98.453125 212.886719 97.441406 213.277344 C 97.289062 213.335938 97.136719 213.390625 96.964844 213.449219 C 96.625 213.566406 96.289062 213.691406 95.964844 213.839844 C 96.046875 213.367188 96.023438 213.035156 95.871094 212.839844 C 95.777344 212.714844 95.625 212.644531 95.464844 212.644531 C 94.976562 212.644531 94.441406 213.242188 94.070312 213.738281 C 93.917969 213.945312 93.777344 214.152344 93.636719 214.347656 C 93.230469 214.945312 92.835938 215.507812 92.21875 215.933594 C 91.894531 216.152344 91.523438 216.335938 91.171875 216.5 C 90.8125 216.671875 90.429688 216.855469 90.082031 217.085938 L 90.058594 217.097656 C 89.707031 217.339844 89.277344 217.625 89.023438 218.015625 C 88.90625 218.199219 88.847656 218.441406 88.789062 218.683594 C 88.753906 218.832031 88.707031 219.027344 88.664062 219.085938 C 88.289062 219.617188 87.488281 219.824219 86.777344 220.019531 C 86.605469 220.0625 86.429688 220.109375 86.265625 220.15625 C 84.058594 220.835938 82.335938 222.320312 81.429688 224.355469 C 79.804688 227.980469 80.976562 233.132812 84.035156 235.824219 C 84.175781 235.941406 84.277344 236.042969 84.359375 236.125 C 84.558594 236.308594 84.652344 236.398438 84.789062 236.398438 C 85 236.398438 85.070312 236.214844 85.128906 236.054688 C 85.140625 236.019531 85.164062 235.972656 85.175781 235.917969 C 85.347656 235.46875 85.335938 234.996094 85.324219 234.546875 C 85.3125 234.007812 85.300781 233.445312 85.628906 232.949219 C 85.988281 232.386719 86.417969 232.269531 86.941406 232.269531 C 87.175781 232.269531 87.40625 232.292969 87.664062 232.316406 C 87.824219 232.328125 88.023438 232.351562 88.207031 232.363281 C 88.464844 232.375 88.730469 232.386719 88.988281 232.386719 C 90.011719 232.386719 91.046875 232.269531 92.171875 232.039062 C 92.230469 233.375 92.082031 234.753906 90.730469 235.101562 C 90.71875 235.101562 90.683594 235.113281 90.628906 235.113281 C 90.207031 235.113281 89.347656 234.777344 88.71875 234.535156 C 88.1875 234.328125 87.929688 234.238281 87.777344 234.238281 C 87.675781 234.238281 87.605469 234.285156 87.570312 234.316406 C 87.488281 234.398438 87.453125 234.523438 87.476562 234.640625 C 87.535156 235.078125 88.289062 235.746094 88.753906 236.125 C 86.988281 236.746094 85.441406 237.664062 84.152344 238.875 C 83.5 239.484375 82.917969 240.160156 82.441406 240.863281 C 82.429688 240.875 82.429688 240.886719 82.429688 240.886719 L 82.417969 240.910156 C 81.382812 242.910156 81.511719 243.117188 81.582031 243.234375 C 81.628906 243.3125 81.722656 243.359375 81.8125 243.359375 C 81.859375 243.359375 81.90625 243.347656 81.941406 243.335938 C 82.269531 243.199219 82.523438 242.921875 82.800781 242.636719 C 83.035156 242.394531 83.265625 242.140625 83.511719 242.015625 C 84.058594 241.714844 84.664062 241.484375 85.210938 241.277344 C 84.058594 242.796875 83.859375 244.511719 83.917969 245.707031 C 84 247.511719 84.699219 249.363281 85.824219 250.816406 C 86.847656 252.125 88.230469 253.21875 89.90625 254.070312 C 90.652344 254.449219 91.617188 254.910156 92.570312 255.164062 C 93.605469 255.4375 93.742188 255.53125 94.453125 256.441406 L 94.570312 256.589844 C 95.523438 257.785156 96.695312 259.28125 96.613281 260.859375 C 96.589844 261.261719 96.453125 262.226562 95.601562 262.546875 C 95.546875 262.570312 95.464844 262.582031 95.359375 262.582031 C 95.21875 262.582031 95.058594 262.570312 94.90625 262.546875 C 94.742188 262.535156 94.570312 262.515625 94.417969 262.515625 C 94.230469 262.515625 93.976562 262.535156 93.8125 262.734375 C 93.683594 262.894531 93.660156 263.066406 93.742188 263.238281 C 94.113281 264.007812 97.046875 264.320312 97.5 264.320312 C 97.566406 264.320312 97.625 264.320312 97.671875 264.308594 C 99.160156 264.019531 100.347656 262.941406 100.789062 261.523438 C 101.5 263.078125 102.136719 264.835938 101.882812 266.414062 C 101.753906 267.171875 101.429688 267.78125 100.929688 268.195312 C 100.753906 268.335938 99.035156 268.785156 98.882812 268.808594 L 98.777344 268.816406 L 98.777344 268.851562 L 98.730469 268.828125 L 98.683594 268.933594 C 98.589844 269.128906 98.648438 269.277344 98.695312 269.347656 C 98.835938 269.566406 99.183594 269.65625 99.789062 269.65625 C 100.242188 269.65625 100.683594 269.601562 100.765625 269.589844 C 101.40625 269.449219 102.242188 269.058594 102.777344 268.738281 C 103.894531 268.070312 104.824219 266.941406 105.394531 265.574219 C 106.519531 262.8125 105.996094 259.625 105.417969 256.898438 C 105.929688 257.980469 106.265625 258.9375 106.449219 259.8125 C 106.507812 260.097656 106.496094 260.421875 106.472656 260.71875 C 106.449219 261.007812 106.4375 261.304688 106.484375 261.59375 C 106.519531 261.789062 106.507812 261.914062 106.496094 262.007812 C 106.484375 262.101562 106.484375 262.214844 106.566406 262.308594 C 106.613281 262.363281 106.683594 262.386719 106.765625 262.386719 C 106.847656 262.386719 106.925781 262.351562 107.101562 262.285156 L 107.242188 262.226562 C 107.4375 262.144531 107.683594 261.8125 108.171875 261.109375 C 108.3125 260.914062 108.425781 260.742188 108.484375 260.671875 C 108.972656 260.109375 109.425781 259.40625 109.835938 258.589844 C 110.367188 257.542969 110.71875 256.441406 110.890625 255.300781 C 110.960938 255.613281 110.996094 255.898438 111.03125 256.175781 C 111.066406 256.519531 111.03125 256.933594 110.984375 257.371094 C 110.925781 257.96875 110.867188 258.578125 111.007812 259.085938 C 111.101562 259.40625 111.195312 259.683594 111.449219 259.683594 C 111.625 259.683594 111.730469 259.546875 111.855469 259.363281 C 111.9375 259.246094 112.03125 259.121094 112.171875 258.992188 C 112.414062 258.753906 112.695312 258.535156 112.949219 258.316406 C 113.34375 257.992188 113.753906 257.648438 114.125 257.234375 C 116.53125 254.484375 117.773438 251.863281 117.9375 249.238281 C 118.285156 250.308594 118.460938 251.4375 118.460938 252.527344 C 118.460938 252.722656 118.449219 252.964844 118.425781 253.230469 C 118.367188 254.140625 118.34375 254.703125 118.566406 254.933594 C 118.636719 255 118.730469 255.046875 118.820312 255.046875 C 119.03125 255.046875 119.25 254.910156 119.695312 254.21875 C 120.808594 252.5625 123.238281 248.226562 122.738281 243.714844 Z M 122.738281 243.714844 " fill-opacity="1" fill-rule="nonzero"/></g><path fill="#ffffff" d="M 120.507812 240.046875 C 120.148438 239.101562 119.484375 237.34375 118.390625 236.617188 C 118.332031 236.585938 118.066406 236.480469 117.808594 236.386719 C 116.507812 235.917969 115.949219 235.664062 116.03125 235.351562 C 116.066406 235.203125 116.183594 235.042969 116.519531 235.042969 C 117.578125 235.042969 120.261719 236.847656 121.113281 237.46875 C 120.75 235.59375 119.71875 231.695312 117.296875 229.738281 C 117.230469 229.683594 117.054688 229.613281 116.855469 229.53125 C 116.332031 229.3125 115.683594 229.039062 115.796875 228.613281 C 115.820312 228.53125 115.890625 228.40625 116.136719 228.40625 C 116.449219 228.40625 116.949219 228.625 117.320312 228.796875 L 117.34375 228.808594 C 118.472656 229.335938 119.695312 230.292969 120.625 231.359375 C 120.007812 229.246094 119.230469 227.117188 117.578125 225.632812 C 116.867188 225 116.054688 224.515625 115.148438 224.207031 C 115.066406 224.171875 114.777344 224.125 114.484375 224.078125 C 113.332031 223.894531 112.914062 223.792969 112.855469 223.609375 C 112.8125 223.46875 112.855469 223.367188 112.890625 223.308594 C 113.03125 223.113281 113.414062 223.019531 114.101562 223.019531 C 115.253906 223.019531 116.960938 223.296875 117.695312 223.445312 C 117.320312 222.941406 117.03125 222.285156 116.753906 221.652344 C 116.496094 221.066406 116.253906 220.511719 115.972656 220.15625 C 115.808594 219.949219 115.660156 219.777344 115.53125 219.628906 C 115.125 219.167969 114.902344 218.925781 115.230469 218.363281 C 115.136719 218.339844 115.03125 218.328125 114.9375 218.304688 C 114.820312 218.28125 114.707031 218.257812 114.589844 218.234375 L 114.554688 218.222656 C 114.414062 218.199219 114.277344 218.175781 114.136719 218.15625 C 113.9375 218.234375 113.695312 218.269531 113.414062 218.269531 C 113.054688 218.269531 112.671875 218.210938 112.335938 218.15625 C 112.195312 218.132812 112.066406 218.109375 111.949219 218.097656 C 111.507812 218.039062 111.054688 217.992188 110.613281 217.960938 C 110.042969 217.914062 109.460938 217.855469 108.882812 217.761719 C 108.71875 217.742188 108.601562 217.589844 108.601562 217.40625 C 108.601562 217.222656 108.71875 217.074219 108.882812 217.039062 C 109.136719 216.992188 109.382812 216.957031 109.625 216.933594 C 109.648438 216.785156 109.683594 216.601562 109.730469 216.394531 C 109.871094 216.625 109.984375 216.785156 110.066406 216.902344 C 110.625 216.867188 111.183594 216.855469 111.765625 216.84375 L 111.847656 216.84375 C 111.9375 216.84375 112.03125 216.84375 112.136719 216.832031 C 112.054688 216.359375 111.925781 215.84375 111.578125 215.324219 C 111.207031 214.761719 110.695312 214.382812 109.871094 214.046875 C 108.414062 213.460938 106.566406 213.335938 105.113281 213.300781 C 104.972656 213.300781 104.835938 213.300781 104.695312 213.300781 C 103.207031 213.300781 101.683594 213.507812 100 213.933594 C 99.21875 214.128906 98.394531 214.335938 97.578125 214.566406 C 97.40625 214.613281 97.21875 214.667969 97.035156 214.726562 C 96.535156 214.886719 96.011719 215.046875 95.511719 215.058594 C 95.429688 215.070312 95.347656 215.082031 95.289062 215.082031 C 95.125 215.082031 95 215.027344 94.917969 214.921875 C 94.824219 214.796875 94.789062 214.601562 94.835938 214.300781 C 94.71875 214.472656 94.613281 214.65625 94.5 214.839844 C 94.082031 215.53125 93.648438 216.257812 93.011719 216.75 C 92.59375 217.074219 92.148438 217.292969 91.707031 217.5 C 91.035156 217.820312 90.394531 218.132812 89.953125 218.800781 C 90.195312 218.765625 90.429688 218.753906 90.671875 218.753906 C 91.011719 218.753906 91.359375 218.789062 91.683594 218.84375 C 91.847656 218.867188 92.011719 218.914062 92.183594 218.960938 C 92.195312 218.9375 92.207031 218.925781 92.21875 218.902344 C 93.148438 217.695312 94.730469 216.878906 96.160156 216.878906 C 96.511719 216.878906 96.859375 216.921875 97.171875 217.015625 C 97.324219 217.0625 97.429688 217.199219 97.429688 217.371094 C 97.429688 217.535156 97.324219 217.660156 97.171875 217.707031 L 96.953125 217.761719 C 96.277344 217.9375 95.648438 218.109375 95.023438 218.375 C 94.382812 218.648438 93.90625 219.0625 93.429688 219.488281 C 94.011719 219.847656 94.476562 220.28125 94.917969 220.707031 C 95.753906 221.492188 96.476562 222.167969 97.648438 222.167969 C 97.882812 222.167969 98.125 222.148438 98.394531 222.089844 C 97.90625 221.871094 97.417969 221.59375 97.335938 221.351562 C 97.3125 221.285156 97.3125 221.226562 97.347656 221.167969 C 97.371094 221.132812 97.40625 221.109375 97.453125 221.109375 C 97.464844 221.109375 97.476562 221.109375 97.476562 221.109375 C 97.488281 221.109375 97.511719 221.121094 97.523438 221.132812 C 97.765625 221.226562 100.078125 221.722656 100.347656 221.734375 C 100.429688 221.734375 100.5 221.734375 100.566406 221.734375 C 101.507812 221.734375 102.347656 221.535156 103.3125 221.226562 C 103.707031 221.101562 104.101562 220.972656 104.519531 220.824219 C 106.089844 220.292969 107.707031 219.753906 109.289062 219.753906 C 109.359375 219.753906 109.4375 219.753906 109.507812 219.753906 C 109.53125 219.753906 112.253906 219.867188 112.324219 220.546875 C 112.34375 220.789062 111.960938 220.871094 111.277344 221.007812 C 110.996094 221.066406 110.671875 221.121094 110.566406 221.179688 C 109.984375 221.523438 109.683594 221.8125 109.683594 222.042969 C 109.683594 222.296875 110.054688 222.503906 110.402344 222.710938 C 110.835938 222.953125 111.324219 223.226562 111.113281 223.652344 C 111.066406 223.757812 110.914062 223.804688 110.589844 223.804688 C 110.324219 223.804688 109.972656 223.78125 109.671875 223.746094 C 109.425781 223.722656 109.195312 223.710938 109.054688 223.710938 C 109.007812 223.710938 108.972656 223.710938 108.960938 223.710938 C 108.472656 223.792969 108.019531 223.976562 107.496094 224.308594 C 107.195312 224.503906 106.925781 224.710938 106.671875 224.90625 C 106.207031 225.265625 105.777344 225.609375 105.171875 225.839844 C 104.613281 226.058594 103.984375 226.183594 103.359375 226.183594 C 101.882812 226.183594 100.277344 225.503906 99.578125 224.023438 C 99.660156 224.457031 99.835938 224.882812 100.113281 225.390625 L 100.101562 225.390625 C 100.324219 225.621094 100.753906 226.414062 100.765625 226.460938 C 100.789062 226.53125 100.847656 226.65625 100.765625 226.738281 C 100.742188 226.757812 100.695312 226.792969 100.625 226.792969 C 100.429688 226.792969 100.101562 226.53125 99.589844 226.09375 C 99.242188 225.792969 98.765625 225.390625 98.589844 225.367188 C 98.613281 225.609375 99.53125 226.574219 99.765625 226.769531 C 100.519531 227.335938 101.601562 227.726562 103.042969 227.96875 C 103.125 227.980469 103.429688 228.003906 103.789062 228.023438 C 106.007812 228.164062 106.371094 228.242188 106.394531 228.4375 C 106.417969 228.613281 106.207031 228.691406 105.589844 228.875 C 105.289062 228.96875 104.777344 229.128906 104.707031 229.234375 C 104.601562 229.394531 104.566406 229.832031 105.566406 230.9375 C 106.136719 231.566406 106.859375 232.015625 107.707031 232.257812 C 107.777344 232.28125 107.984375 232.304688 108.21875 232.328125 C 109.21875 232.453125 109.578125 232.523438 109.613281 232.730469 C 109.625 232.765625 109.613281 232.8125 109.589844 232.832031 C 109.542969 232.878906 109.472656 232.914062 109.195312 232.914062 C 108.507812 232.914062 106.871094 232.742188 105.777344 232.636719 C 105.277344 232.59375 104.871094 232.546875 104.789062 232.546875 C 104.742188 232.546875 104.683594 232.546875 104.625 232.546875 C 102.964844 232.546875 100.695312 232.960938 99.511719 233.847656 C 101.21875 234.339844 102.695312 235.824219 103.21875 237.597656 C 103.3125 237.917969 103.382812 241.382812 102.707031 242.265625 C 102.589844 242.417969 102.464844 242.484375 102.3125 242.484375 C 102.242188 242.484375 102.160156 242.460938 102.078125 242.429688 C 101.765625 242.265625 101.71875 241.402344 101.695312 240.207031 C 101.683594 239.839844 101.683594 239.527344 101.648438 239.390625 C 101.359375 237.804688 100.730469 236.757812 99.613281 236.066406 C 99.988281 237.078125 100.53125 239.757812 100.066406 240.679688 C 100 240.816406 99.90625 240.910156 99.824219 240.957031 C 99.8125 240.96875 99.789062 240.980469 99.777344 240.980469 C 99.777344 240.980469 99.765625 240.980469 99.765625 240.980469 C 99.742188 240.988281 99.730469 240.988281 99.707031 241 C 99.648438 241.023438 99.589844 241.023438 99.542969 241.023438 C 99.53125 241.023438 99.511719 241.023438 99.5 241.023438 L 99.511719 240.910156 L 99.511719 240.851562 C 99.511719 240.839844 99.511719 240.816406 99.511719 240.792969 C 99.441406 240.792969 99.40625 240.851562 99.40625 240.886719 C 99.417969 240.667969 98.824219 237.828125 98.683594 237.390625 C 98.359375 236.433594 97.882812 235.582031 97.382812 234.6875 C 97.242188 234.433594 97.101562 234.179688 96.964844 233.925781 C 96.859375 234.71875 96.546875 235.46875 96.070312 236.066406 C 96.058594 236.078125 95.023438 237.296875 94.5 237.296875 C 94.429688 237.296875 94.371094 237.273438 94.324219 237.238281 C 94.148438 237.113281 94.277344 236.800781 94.71875 235.929688 C 94.8125 235.753906 94.894531 235.59375 94.90625 235.539062 C 95.113281 234.847656 95.082031 234.15625 95 233.582031 C 94.523438 234.707031 93.730469 235.699219 92.8125 236.296875 C 92.105469 236.757812 91.394531 236.78125 90.71875 236.800781 C 90.511719 236.8125 90.300781 236.8125 90.09375 236.835938 C 90.082031 236.917969 90 237.019531 89.953125 237.019531 C 89.847656 237.03125 89.71875 236.976562 89.640625 236.953125 C 89.652344 236.929688 89.664062 236.917969 89.671875 236.894531 C 89.640625 236.894531 89.617188 236.90625 89.582031 236.90625 C 87.5 237.34375 85.289062 238.792969 83.710938 240.738281 C 84.535156 240.335938 86.070312 239.667969 86.824219 239.667969 C 87.082031 239.667969 87.242188 239.734375 87.324219 239.886719 C 87.429688 240.070312 87.359375 240.355469 87.117188 240.75 C 86.894531 241.105469 86.628906 241.402344 86.371094 241.691406 C 86 242.117188 85.640625 242.507812 85.40625 243.074219 C 85.035156 243.992188 84.871094 244.992188 84.964844 245.960938 C 85.359375 250.640625 89.882812 252.988281 92.765625 254.023438 C 92.40625 253.449219 91.628906 252.136719 91.152344 251.054688 C 90.8125 250.445312 90.511719 249.617188 90.546875 248.582031 C 90.628906 246.269531 91.730469 245.015625 91.882812 245.316406 C 92.035156 245.613281 91.464844 248.328125 92.105469 250.066406 C 92.824219 252.058594 94.035156 252.976562 94.035156 252.976562 L 92.648438 252.425781 C 92.765625 252.65625 92.871094 252.828125 92.90625 252.886719 C 93.371094 253.539062 93.90625 254.164062 94.417969 254.761719 C 94.765625 255.175781 95.136719 255.601562 95.476562 256.039062 C 96.101562 256.832031 98.101562 259.582031 97.578125 261.664062 C 97.40625 262.351562 96.964844 262.894531 96.265625 263.285156 C 96.464844 263.320312 96.648438 263.332031 96.847656 263.332031 C 98.417969 263.332031 99.671875 262.226562 99.90625 260.652344 C 100.054688 259.605469 99.765625 259.097656 99.21875 258.175781 C 99.195312 258.132812 99.125 258.039062 99.042969 257.902344 C 98.054688 256.382812 97.707031 255.726562 97.765625 255.519531 C 97.777344 255.472656 97.800781 255.4375 97.835938 255.417969 C 97.871094 255.394531 97.90625 255.394531 97.941406 255.394531 C 98.777344 255.394531 101.835938 261.328125 101.871094 261.386719 C 102.660156 263.160156 103.554688 265.65625 102.683594 267.597656 C 104.71875 265.828125 104.929688 262.960938 104.917969 261.765625 C 104.917969 261.546875 104.789062 260.753906 104.636719 259.742188 C 103.894531 254.828125 103.800781 253.3125 104.242188 253.230469 C 104.253906 253.230469 104.265625 253.230469 104.289062 253.230469 C 104.542969 253.230469 104.960938 253.574219 106.148438 256.105469 C 106.171875 256.164062 106.195312 256.210938 106.21875 256.246094 C 106.753906 257.359375 107.414062 258.742188 107.625 260.109375 C 108.960938 258.40625 109.71875 256.671875 109.9375 254.792969 C 110.078125 253.679688 110.019531 252.550781 109.777344 251.4375 C 109.695312 251.066406 109.507812 250.640625 109.324219 250.238281 C 109.066406 249.6875 108.8125 249.113281 108.789062 248.59375 C 108.777344 248.285156 108.8125 248.097656 108.902344 248.007812 C 108.949219 247.960938 109.007812 247.9375 109.066406 247.9375 C 109.402344 247.9375 109.824219 248.6875 109.949219 248.90625 C 110.289062 249.527344 110.4375 250.183594 110.589844 250.824219 C 110.648438 251.078125 110.707031 251.34375 110.789062 251.597656 C 110.925781 252.113281 111.101562 252.621094 111.265625 253.125 C 111.707031 254.496094 112.171875 255.898438 112.160156 257.417969 C 112.507812 256.992188 112.878906 256.589844 113.230469 256.1875 C 114.613281 254.621094 115.925781 253.136719 116.460938 250.953125 C 116.796875 249.582031 116.867188 248.066406 116.648438 246.902344 C 116.636719 246.835938 116.53125 246.546875 116.414062 246.222656 C 115.742188 244.292969 115.613281 243.738281 115.820312 243.613281 C 115.855469 243.589844 115.902344 243.578125 115.9375 243.578125 C 116.378906 243.578125 117.066406 244.890625 118.03125 247.019531 C 118.160156 247.292969 118.261719 247.511719 118.296875 247.59375 C 119.113281 249.089844 119.566406 250.816406 119.566406 252.425781 C 120.25 250.824219 120.925781 249.167969 121.296875 247.457031 C 121.773438 245.210938 121.519531 242.691406 120.507812 240.046875 Z M 113.207031 220.8125 C 113.253906 220.652344 113.378906 220.511719 113.507812 220.316406 C 113.707031 220.445312 113.777344 220.488281 113.855469 220.535156 C 113.707031 220.71875 113.542969 220.902344 113.390625 221.089844 C 113.324219 220.996094 113.183594 220.882812 113.207031 220.8125 Z M 110.03125 215.957031 C 110.113281 215.957031 110.183594 216.074219 110.3125 216.175781 C 110.160156 216.257812 110.066406 216.359375 109.996094 216.335938 C 109.914062 216.3125 109.871094 216.199219 109.800781 216.117188 C 109.878906 216.0625 109.949219 215.957031 110.03125 215.957031 Z M 102.871094 218.648438 C 102.800781 218.570312 102.671875 218.476562 102.683594 218.394531 C 102.695312 218.292969 102.800781 218.167969 102.894531 218.132812 C 102.984375 218.097656 103.113281 218.175781 103.324219 218.234375 C 103.03125 218.5 102.953125 218.570312 102.871094 218.648438 Z M 103.871094 232.671875 C 103.984375 232.753906 104.089844 232.84375 104.253906 232.972656 C 104.125 233.121094 104.042969 233.214844 103.972656 233.292969 C 103.894531 233.132812 103.800781 232.984375 103.742188 232.824219 C 103.71875 232.800781 103.859375 232.671875 103.871094 232.671875 Z M 106.925781 255.726562 C 106.925781 255.726562 105.753906 252.964844 103.625 250.515625 C 103.625 250.515625 101.359375 248.214844 101.730469 248.042969 C 102.101562 247.871094 104.972656 249.527344 106.019531 251.136719 C 107.066406 252.746094 107.066406 252.746094 107.066406 252.746094 C 107.066406 252.746094 107.136719 251.644531 106.753906 250.527344 C 106.371094 249.421875 106.90625 249.996094 107.4375 251.285156 C 107.984375 252.574219 108.019531 254.21875 106.925781 255.726562 Z M 113.765625 238.894531 C 113.566406 238.863281 113.402344 238.632812 113.230469 238.480469 C 113.332031 238.414062 113.449219 238.273438 113.554688 238.273438 C 113.8125 238.296875 114.054688 238.390625 114.542969 238.515625 C 114.125 238.734375 113.914062 238.929688 113.765625 238.894531 Z M 113.765625 238.894531 " fill-opacity="1" fill-rule="nonzero"/><path fill="#f4f239" d="M 103.335938 222.539062 C 103.777344 222.445312 104.253906 222.34375 104.753906 222.203125 C 104.636719 222.675781 104.242188 222.988281 103.90625 222.988281 C 103.660156 222.996094 103.464844 222.835938 103.335938 222.539062 Z M 106.4375 221.722656 C 105.742188 221.949219 105.742188 221.949219 105.554688 222.640625 L 105.507812 222.800781 C 105.324219 223.492188 104.871094 224.035156 104.265625 224.285156 C 104.007812 224.402344 103.707031 224.457031 103.394531 224.457031 C 102.394531 224.457031 101.230469 223.882812 101.03125 222.8125 C 101.007812 222.746094 100.71875 222.6875 100.183594 222.652344 C 100.113281 222.652344 100.054688 222.640625 100.011719 222.640625 C 100.324219 223.769531 101.148438 225.472656 103.3125 225.472656 C 103.394531 225.472656 103.472656 225.472656 103.566406 225.460938 C 106.089844 225.308594 106.519531 223.113281 106.53125 221.710938 C 106.484375 221.710938 106.460938 221.710938 106.4375 221.722656 Z M 106.4375 221.722656 " fill-opacity="1" fill-rule="nonzero"/><path fill="#f2b03b" d="M 89.347656 229.726562 C 90.117188 229.554688 90.859375 229.210938 91.582031 228.875 C 92.476562 228.460938 93.40625 228.035156 94.394531 227.933594 C 94.523438 227.921875 94.660156 227.910156 94.789062 227.910156 C 95.824219 227.910156 96.753906 228.335938 97.660156 228.75 C 98.171875 228.980469 98.695312 229.222656 99.230469 229.382812 C 99.8125 229.554688 100.417969 229.648438 101.019531 229.648438 C 101.996094 229.648438 102.976562 229.417969 103.882812 228.980469 C 100.859375 228.875 98.335938 227.324219 95.976562 224.089844 C 95.789062 223.835938 95.601562 223.574219 95.40625 223.296875 C 94.207031 221.59375 92.859375 219.671875 90.835938 219.671875 C 90.453125 219.671875 90.058594 219.742188 89.652344 219.878906 C 90.335938 219.949219 91.511719 220.132812 91.730469 220.488281 C 91.789062 220.582031 91.789062 220.675781 91.742188 220.765625 C 91.671875 220.902344 91.464844 220.925781 91.289062 220.925781 C 90.953125 220.925781 90.453125 220.847656 90.046875 220.777344 C 89.789062 220.730469 89.558594 220.695312 89.453125 220.695312 C 89.277344 220.6875 89.117188 220.6875 88.964844 220.6875 C 88.265625 220.6875 87.675781 220.742188 87.128906 220.882812 C 87.105469 220.902344 87.082031 220.925781 87.070312 220.949219 C 87.058594 220.9375 87.035156 220.925781 87.023438 220.902344 C 86.90625 220.9375 86.800781 220.960938 86.6875 220.996094 C 85.035156 221.523438 83.652344 222.6875 82.769531 224.25 C 80.476562 228.3125 82.640625 232.476562 84.324219 234.789062 C 84.246094 233.652344 84.5 232.28125 85.535156 231.625 C 86.1875 230.371094 87.617188 230.074219 88.882812 229.820312 C 89.023438 229.796875 89.183594 229.761719 89.347656 229.726562 Z M 83.871094 232.511719 C 83.628906 232.246094 83.394531 232.074219 83.277344 231.71875 C 83.175781 231.371094 83.128906 230.992188 83.175781 230.625 C 83.210938 230.222656 83.847656 230.1875 83.824219 230.613281 C 83.800781 230.925781 83.8125 231.234375 83.882812 231.546875 C 83.941406 231.820312 83.941406 232.15625 84.046875 232.417969 C 84.082031 232.5 83.941406 232.582031 83.871094 232.511719 Z M 87.09375 221.765625 C 87.011719 221.742188 86.917969 221.652344 86.894531 221.570312 C 86.882812 221.523438 86.988281 221.375 87.035156 221.386719 C 87.117188 221.386719 87.199219 221.480469 87.453125 221.652344 C 87.265625 221.710938 87.175781 221.777344 87.09375 221.765625 Z M 100.394531 230.335938 C 101.429688 230.335938 102.542969 230.140625 103.566406 229.796875 C 102.648438 231.0625 101.578125 231.648438 100.195312 231.648438 C 99.347656 231.648438 98.394531 231.429688 97.171875 230.957031 C 96.523438 230.707031 95.8125 230.578125 95.011719 230.578125 C 93.964844 230.578125 92.882812 230.785156 91.847656 230.992188 C 90.8125 231.1875 89.730469 231.394531 88.695312 231.394531 C 88.558594 231.394531 88.429688 231.394531 88.300781 231.382812 C 88.140625 231.371094 87.976562 231.359375 87.8125 231.351562 C 87.535156 231.328125 87.230469 231.304688 86.941406 231.304688 C 86.871094 231.304688 86.800781 231.304688 86.730469 231.304688 C 87.441406 230.84375 88.324219 230.683594 89.183594 230.519531 C 89.664062 230.429688 90.152344 230.335938 90.605469 230.199219 C 91.058594 230.0625 91.5 229.878906 91.929688 229.703125 C 92.8125 229.347656 93.71875 228.980469 94.683594 228.957031 C 94.707031 228.957031 94.742188 228.957031 94.765625 228.957031 C 95.636719 228.957031 96.394531 229.277344 97.195312 229.613281 C 97.800781 229.867188 98.429688 230.128906 99.101562 230.234375 C 99.523438 230.304688 99.953125 230.335938 100.394531 230.335938 Z M 94.5 231.960938 C 94.601562 231.972656 94.695312 232.074219 94.894531 232.199219 C 94.683594 232.292969 94.582031 232.386719 94.476562 232.386719 C 94.417969 232.386719 94.289062 232.234375 94.300781 232.179688 C 94.3125 232.097656 94.429688 231.960938 94.5 231.960938 Z M 99.859375 240.988281 C 99.847656 241 99.824219 241.011719 99.8125 241.011719 C 99.8125 241.011719 99.800781 241.011719 99.800781 241.011719 C 99.777344 241.023438 99.765625 241.023438 99.742188 241.035156 C 99.777344 241 99.800781 240.980469 99.835938 240.980469 C 99.835938 240.988281 99.847656 240.988281 99.859375 240.988281 Z M 95.058594 232.742188 C 95.136719 232.8125 95.21875 232.878906 95.347656 232.984375 C 95.230469 233.074219 95.171875 233.132812 95.101562 233.191406 C 95.046875 233.097656 94.964844 233.007812 94.929688 232.902344 C 94.917969 232.867188 95.011719 232.800781 95.058594 232.742188 Z M 95.058594 232.742188 " fill-opacity="1" fill-rule="nonzero"/></svg>