<svg xmlns="http://www.w3.org/2000/svg" xmlns:xlink="http://www.w3.org/1999/xlink" width="500" zoomAndPan="magnify" viewBox="0 0 375 374.999991" height="500" preserveAspectRatio="xMidYMid meet" version="1.0"><defs><clipPath id="d39e9c4134"><path d="M 112.5 119 L 262 119 L 262 256 L 112.5 256 Z M 112.5 119 " clip-rule="nonzero"/></clipPath></defs><g clip-path="url(#d39e9c4134)"><path fill="#2680f8" d="M 139.246094 255.777344 L 236.707031 255.777344 C 239.066406 255.808594 241.109375 254.066406 241.492188 251.695312 L 261.816406 124.726562 C 262.238281 122.074219 260.472656 119.582031 257.863281 119.152344 C 257.59375 119.121094 257.328125 119.097656 257.027344 119.097656 L 117.347656 119.035156 C 114.714844 119.003906 112.523438 121.136719 112.5 123.851562 C 112.5 124.125 112.53125 124.429688 112.554688 124.703125 L 132.878906 250.234375 C 133.386719 253.398438 136.082031 255.746094 139.246094 255.777344 Z M 210.441406 164.972656 L 202.90625 209.757812 L 171.785156 209.757812 L 163.371094 164.972656 Z M 210.441406 164.972656 " fill-opacity="1" fill-rule="nonzero"/></g></svg>