<svg xmlns="http://www.w3.org/2000/svg" xmlns:xlink="http://www.w3.org/1999/xlink" width="500" zoomAndPan="magnify" viewBox="0 0 375 374.999991" height="500" preserveAspectRatio="xMidYMid meet" version="1.0"><path fill="#364548" d="M 194.796875 205.550781 L 233.101562 205.550781 L 233.101562 244.664062 L 252.472656 244.664062 C 261.425781 244.664062 270.609375 243.074219 279.09375 240.203125 C 283.25 238.796875 287.921875 236.832031 292.03125 234.367188 C 286.625 227.316406 283.859375 218.421875 283.046875 209.640625 C 281.9375 197.703125 284.359375 182.164062 292.433594 172.820312 L 296.464844 168.171875 L 301.261719 172.023438 C 313.339844 181.714844 323.507812 195.253906 325.289062 210.699219 C 339.832031 206.425781 356.910156 207.441406 369.734375 214.835938 L 375 217.859375 L 372.234375 223.257812 C 361.394531 244.398438 338.726562 250.9375 316.554688 249.78125 C 283.390625 332.28125 211.183594 371.332031 123.636719 371.332031 C 78.410156 371.332031 36.898438 354.449219 13.277344 314.371094 L 12.886719 313.714844 L 9.4375 306.726562 C 1.453125 289.082031 -1.203125 269.765625 0.59375 250.453125 L 1.140625 244.664062 L 33.898438 244.664062 L 33.898438 205.550781 L 72.207031 205.550781 L 72.207031 167.296875 L 148.820312 167.296875 L 148.820312 129.042969 L 194.796875 129.042969 Z M 194.796875 205.550781 " fill-opacity="1" fill-rule="nonzero"/><path fill="#22a0c8" d="M 318.898438 220.03125 C 321.460938 200.089844 306.527344 184.441406 297.261719 177 C 286.59375 189.328125 284.921875 221.636719 301.683594 235.242188 C 292.34375 243.523438 272.640625 251.046875 252.472656 251.046875 L 6.96875 251.046875 C 5.015625 272.074219 8.703125 291.4375 17.136719 308.003906 L 19.933594 313.105469 C 21.699219 316.101562 23.636719 319.003906 25.714844 321.78125 C 35.804688 322.4375 45.117188 322.65625 53.632812 322.46875 C 70.363281 322.09375 84.015625 320.128906 94.359375 316.539062 C 95.921875 316.054688 97.5625 316.929688 98.046875 318.472656 C 98.515625 319.957031 97.734375 321.546875 96.28125 322.09375 C 94.90625 322.578125 93.46875 323.011719 91.984375 323.433594 C 83.84375 325.757812 75.097656 327.320312 63.832031 328.023438 C 64.503906 328.039062 63.128906 328.113281 63.128906 328.113281 C 62.738281 328.144531 62.269531 328.191406 61.878906 328.207031 C 57.441406 328.457031 52.664062 328.503906 47.757812 328.503906 C 42.398438 328.503906 37.132812 328.410156 31.230469 328.097656 L 31.074219 328.191406 C 51.523438 351.160156 83.515625 364.917969 123.605469 364.917969 C 208.449219 364.917969 280.421875 327.351562 312.292969 243.027344 C 334.898438 245.351562 356.628906 239.578125 366.515625 220.3125 C 350.800781 211.277344 330.554688 214.164062 318.898438 220.03125 Z M 318.898438 220.03125 " fill-opacity="1" fill-rule="nonzero"/><path fill="#37b1d9" d="M 318.898438 220.03125 C 321.460938 200.089844 306.527344 184.441406 297.261719 177 C 286.59375 189.328125 284.921875 221.636719 301.683594 235.242188 C 292.34375 243.523438 272.640625 251.046875 252.472656 251.046875 L 21.496094 251.046875 C 20.496094 283.246094 32.464844 307.675781 53.632812 322.46875 C 70.363281 322.09375 84.015625 320.128906 94.359375 316.539062 C 95.921875 316.054688 97.5625 316.929688 98.046875 318.472656 C 98.515625 319.957031 97.734375 321.546875 96.28125 322.09375 C 94.90625 322.578125 93.46875 323.011719 91.984375 323.433594 C 83.84375 325.757812 74.347656 327.523438 63.082031 328.207031 C 63.082031 328.207031 62.816406 327.945312 62.800781 327.945312 C 91.671875 342.734375 133.554688 342.6875 181.546875 324.261719 C 235.367188 303.605469 285.46875 264.273438 320.414062 219.265625 C 319.914062 219.53125 319.398438 219.78125 318.898438 220.03125 Z M 318.898438 220.03125 " fill-opacity="1" fill-rule="nonzero"/><path fill="#1b81a5" d="M 7.421875 276.585938 C 8.953125 287.847656 12.246094 298.394531 17.136719 307.988281 L 19.933594 313.089844 C 21.699219 316.085938 23.636719 318.988281 25.714844 321.765625 C 35.804688 322.421875 45.117188 322.640625 53.632812 322.453125 C 70.363281 322.078125 84.015625 320.113281 94.359375 316.523438 C 95.921875 316.039062 97.5625 316.914062 98.046875 318.457031 C 98.515625 319.941406 97.734375 321.53125 96.28125 322.078125 C 94.90625 322.5625 93.46875 322.996094 91.984375 323.417969 C 83.84375 325.742188 74.394531 327.414062 63.128906 328.097656 C 62.738281 328.128906 62.066406 328.128906 61.675781 328.144531 C 57.242188 328.394531 52.507812 328.550781 47.601562 328.550781 C 42.242188 328.550781 36.773438 328.441406 30.886719 328.144531 C 51.335938 351.113281 83.515625 364.933594 123.621094 364.933594 C 196.265625 364.933594 259.457031 337.398438 296.136719 276.570312 L 7.421875 276.570312 Z M 7.421875 276.585938 " fill-opacity="1" fill-rule="nonzero"/><path fill="#1d91b4" d="M 23.714844 276.585938 C 28.058594 296.367188 38.492188 311.890625 53.648438 322.453125 C 70.378906 322.078125 84.03125 320.113281 94.375 316.523438 C 95.9375 316.039062 97.578125 316.914062 98.0625 318.457031 C 98.53125 319.941406 97.75 321.53125 96.296875 322.078125 C 94.921875 322.5625 93.484375 322.996094 92 323.417969 C 83.859375 325.742188 74.222656 327.414062 62.941406 328.097656 C 91.8125 342.890625 133.570312 342.671875 181.5625 324.261719 C 210.605469 313.121094 238.554688 296.539062 263.628906 276.554688 L 23.714844 276.554688 Z M 23.714844 276.585938 " fill-opacity="1" fill-rule="nonzero"/><path fill="#23a3c2" d="M 40.289062 211.933594 L 73.488281 211.933594 L 73.488281 245.085938 L 40.289062 245.085938 Z M 43.054688 214.695312 L 45.679688 214.695312 L 45.679688 242.324219 L 43.054688 242.324219 Z M 47.976562 214.695312 L 50.695312 214.695312 L 50.695312 242.324219 L 47.976562 242.324219 Z M 53.007812 214.695312 L 55.726562 214.695312 L 55.726562 242.324219 L 53.007812 242.324219 Z M 58.035156 214.695312 L 60.753906 214.695312 L 60.753906 242.324219 L 58.035156 242.324219 Z M 63.066406 214.695312 L 65.785156 214.695312 L 65.785156 242.324219 L 63.066406 242.324219 Z M 68.097656 214.695312 L 70.722656 214.695312 L 70.722656 242.324219 L 68.097656 242.324219 Z M 78.597656 173.679688 L 111.792969 173.679688 L 111.792969 206.832031 L 78.582031 206.832031 Z M 81.359375 176.441406 L 83.984375 176.441406 L 83.984375 204.070312 L 81.359375 204.070312 Z M 86.28125 176.441406 L 89 176.441406 L 89 204.070312 L 86.28125 204.070312 Z M 91.3125 176.441406 L 94.03125 176.441406 L 94.03125 204.070312 L 91.3125 204.070312 Z M 96.34375 176.441406 L 99.0625 176.441406 L 99.0625 204.070312 L 96.34375 204.070312 Z M 101.375 176.441406 L 104.09375 176.441406 L 104.09375 204.070312 L 101.375 204.070312 Z M 106.402344 176.441406 L 109.027344 176.441406 L 109.027344 204.070312 L 106.402344 204.070312 Z M 106.402344 176.441406 " fill-opacity="1" fill-rule="nonzero"/><path fill="#34bbde" d="M 78.597656 211.933594 L 111.792969 211.933594 L 111.792969 245.085938 L 78.582031 245.085938 Z M 81.359375 214.695312 L 83.984375 214.695312 L 83.984375 242.324219 L 81.359375 242.324219 Z M 86.28125 214.695312 L 89 214.695312 L 89 242.324219 L 86.28125 242.324219 Z M 91.3125 214.695312 L 94.03125 214.695312 L 94.03125 242.324219 L 91.3125 242.324219 Z M 96.34375 214.695312 L 99.0625 214.695312 L 99.0625 242.324219 L 96.34375 242.324219 Z M 101.375 214.695312 L 104.09375 214.695312 L 104.09375 242.324219 L 101.375 242.324219 Z M 106.402344 214.695312 L 109.027344 214.695312 L 109.027344 242.324219 L 106.402344 242.324219 Z M 106.402344 214.695312 " fill-opacity="1" fill-rule="nonzero"/><path fill="#23a3c2" d="M 116.902344 211.933594 L 150.101562 211.933594 L 150.101562 245.085938 L 116.902344 245.085938 Z M 119.667969 214.695312 L 122.292969 214.695312 L 122.292969 242.324219 L 119.667969 242.324219 Z M 124.589844 214.695312 L 127.308594 214.695312 L 127.308594 242.324219 L 124.589844 242.324219 Z M 129.617188 214.695312 L 132.335938 214.695312 L 132.335938 242.324219 L 129.617188 242.324219 Z M 134.648438 214.695312 L 137.367188 214.695312 L 137.367188 242.324219 L 134.648438 242.324219 Z M 139.679688 214.695312 L 142.414062 214.695312 L 142.414062 242.324219 L 139.679688 242.324219 Z M 144.710938 214.695312 L 147.335938 214.695312 L 147.335938 242.324219 L 144.710938 242.324219 Z M 144.710938 214.695312 " fill-opacity="1" fill-rule="nonzero"/><path fill="#34bbde" d="M 116.902344 173.679688 L 150.101562 173.679688 L 150.101562 206.832031 L 116.902344 206.832031 Z M 119.667969 176.441406 L 122.292969 176.441406 L 122.292969 204.070312 L 119.667969 204.070312 Z M 124.589844 176.441406 L 127.308594 176.441406 L 127.308594 204.070312 L 124.589844 204.070312 Z M 129.617188 176.441406 L 132.335938 176.441406 L 132.335938 204.070312 L 129.617188 204.070312 Z M 134.648438 176.441406 L 137.367188 176.441406 L 137.367188 204.070312 L 134.648438 204.070312 Z M 139.679688 176.441406 L 142.414062 176.441406 L 142.414062 204.070312 L 139.679688 204.070312 Z M 144.710938 176.441406 L 147.335938 176.441406 L 147.335938 204.070312 L 144.710938 204.070312 Z M 155.207031 211.933594 L 188.40625 211.933594 L 188.40625 245.085938 L 155.207031 245.085938 Z M 157.972656 214.695312 L 160.597656 214.695312 L 160.597656 242.324219 L 157.972656 242.324219 Z M 162.894531 214.695312 L 165.613281 214.695312 L 165.613281 242.324219 L 162.894531 242.324219 Z M 167.925781 214.695312 L 170.644531 214.695312 L 170.644531 242.324219 L 167.925781 242.324219 Z M 172.957031 214.695312 L 175.671875 214.695312 L 175.671875 242.324219 L 172.957031 242.324219 Z M 177.984375 214.695312 L 180.703125 214.695312 L 180.703125 242.324219 L 177.984375 242.324219 Z M 183.015625 214.695312 L 185.640625 214.695312 L 185.640625 242.324219 L 183.015625 242.324219 Z M 183.015625 214.695312 " fill-opacity="1" fill-rule="nonzero"/><path fill="#23a3c2" d="M 155.207031 173.679688 L 188.40625 173.679688 L 188.40625 206.832031 L 155.207031 206.832031 Z M 157.972656 176.441406 L 160.597656 176.441406 L 160.597656 204.070312 L 157.972656 204.070312 Z M 162.894531 176.441406 L 165.613281 176.441406 L 165.613281 204.070312 L 162.894531 204.070312 Z M 167.925781 176.441406 L 170.644531 176.441406 L 170.644531 204.070312 L 167.925781 204.070312 Z M 172.957031 176.441406 L 175.671875 176.441406 L 175.671875 204.070312 L 172.957031 204.070312 Z M 177.984375 176.441406 L 180.703125 176.441406 L 180.703125 204.070312 L 177.984375 204.070312 Z M 183.015625 176.441406 L 185.640625 176.441406 L 185.640625 204.070312 L 183.015625 204.070312 Z M 183.015625 176.441406 " fill-opacity="1" fill-rule="nonzero"/><path fill="#34bbde" d="M 155.207031 135.425781 L 188.40625 135.425781 L 188.40625 168.578125 L 155.207031 168.578125 Z M 157.972656 138.1875 L 160.597656 138.1875 L 160.597656 165.816406 L 157.972656 165.816406 Z M 162.894531 138.1875 L 165.613281 138.1875 L 165.613281 165.816406 L 162.894531 165.816406 Z M 167.925781 138.1875 L 170.644531 138.1875 L 170.644531 165.816406 L 167.925781 165.816406 Z M 172.957031 138.1875 L 175.671875 138.1875 L 175.671875 165.816406 L 172.957031 165.816406 Z M 177.984375 138.1875 L 180.703125 138.1875 L 180.703125 165.816406 L 177.984375 165.816406 Z M 183.015625 138.1875 L 185.640625 138.1875 L 185.640625 165.816406 L 183.015625 165.816406 Z M 183.015625 138.1875 " fill-opacity="1" fill-rule="nonzero"/><path fill="#23a3c2" d="M 193.515625 211.933594 L 226.710938 211.933594 L 226.710938 245.085938 L 193.515625 245.085938 Z M 196.28125 214.695312 L 198.902344 214.695312 L 198.902344 242.324219 L 196.28125 242.324219 Z M 201.199219 214.695312 L 203.917969 214.695312 L 203.917969 242.324219 L 201.199219 242.324219 Z M 206.230469 214.695312 L 208.949219 214.695312 L 208.949219 242.324219 L 206.230469 242.324219 Z M 211.261719 214.695312 L 213.980469 214.695312 L 213.980469 242.324219 L 211.261719 242.324219 Z M 216.292969 214.695312 L 219.011719 214.695312 L 219.011719 242.324219 L 216.292969 242.324219 Z M 221.324219 214.695312 L 223.945312 214.695312 L 223.945312 242.324219 L 221.324219 242.324219 Z M 221.324219 214.695312 " fill-opacity="1" fill-rule="nonzero"/><path fill="#d3ecec" d="M 109.714844 298.847656 C 114.777344 298.785156 118.933594 302.824219 118.996094 307.878906 C 119.058594 312.933594 115.011719 317.085938 109.949219 317.148438 C 109.871094 317.148438 109.777344 317.148438 109.699219 317.148438 C 104.636719 317.085938 100.59375 312.933594 100.671875 307.878906 C 100.75 302.902344 104.746094 298.910156 109.714844 298.847656 Z M 109.714844 298.847656 " fill-opacity="1" fill-rule="nonzero"/><path fill="#364548" d="M 109.714844 301.4375 C 110.558594 301.4375 111.355469 301.59375 112.089844 301.875 C 110.808594 302.621094 110.371094 304.246094 111.121094 305.523438 C 111.605469 306.351562 112.480469 306.851562 113.433594 306.851562 C 114.449219 306.851562 115.324219 306.289062 115.777344 305.460938 C 117.167969 308.800781 115.574219 312.640625 112.230469 314.027344 C 108.886719 315.414062 105.042969 313.824219 103.65625 310.484375 C 102.265625 307.148438 103.859375 303.308594 107.199219 301.921875 C 107.996094 301.609375 108.855469 301.4375 109.714844 301.4375 Z M 109.714844 301.4375 " fill-opacity="1" fill-rule="nonzero"/><path fill="#bdd9d7" d="M 134.054688 364.746094 C 111.371094 353.996094 98.921875 339.378906 92 323.433594 C 83.578125 325.835938 73.441406 327.367188 61.675781 328.039062 C 57.242188 328.285156 52.585938 328.410156 47.695312 328.410156 C 42.054688 328.410156 36.101562 328.238281 29.871094 327.914062 C 50.679688 348.675781 76.269531 364.652344 123.652344 364.949219 C 127.136719 364.949219 130.601562 364.886719 134.054688 364.746094 Z M 134.054688 364.746094 " fill-opacity="1" fill-rule="nonzero"/><path fill="#d3ecec" d="M 100.421875 338.164062 C 97.28125 333.902344 94.234375 328.566406 92 323.433594 C 83.578125 325.835938 73.441406 327.382812 61.675781 328.039062 C 69.769531 332.421875 81.328125 336.476562 100.421875 338.164062 Z M 100.421875 338.164062 " fill-opacity="1" fill-rule="nonzero"/></svg>