<svg xmlns="http://www.w3.org/2000/svg" xmlns:xlink="http://www.w3.org/1999/xlink" width="500" zoomAndPan="magnify" viewBox="0 0 375 374.999991" height="500" preserveAspectRatio="xMidYMid meet" version="1.0"><defs><clipPath id="889a0ea4d9"><path d="M 1 39.824219 L 207 39.824219 L 207 264 L 1 264 Z M 1 39.824219 " clip-rule="nonzero"/></clipPath></defs><path fill="#272727" d="M 278.242188 185.351562 C 278.308594 185.417969 278.40625 185.484375 278.472656 185.550781 Z M 278.242188 185.351562 " fill-opacity="1" fill-rule="evenodd"/><path fill="#457d58" d="M 308.082031 119.246094 C 308.214844 118.882812 308.347656 118.550781 308.511719 118.1875 L 308.511719 118.121094 L 308.578125 117.988281 L 308.578125 117.957031 L 308.644531 117.789062 L 308.710938 117.625 L 308.777344 117.492188 L 308.777344 117.425781 L 308.84375 117.292969 L 308.910156 117.164062 L 308.910156 117.128906 L 308.976562 116.996094 L 309.007812 116.929688 L 309.042969 116.832031 L 309.042969 116.796875 L 309.074219 116.734375 L 309.105469 116.632812 L 309.140625 116.566406 L 309.207031 116.46875 L 309.238281 116.402344 L 309.304688 116.304688 L 309.371094 116.203125 L 309.4375 116.105469 L 309.503906 116.003906 L 309.636719 115.808594 C 310.628906 114.152344 311.882812 112.632812 313.304688 111.34375 C 313.601562 111.082031 313.933594 110.78125 314.261719 110.519531 C 314.328125 110.453125 314.394531 110.417969 314.460938 110.386719 C 314.527344 110.351562 314.59375 110.285156 314.660156 110.253906 L 314.691406 110.222656 L 314.855469 110.089844 L 314.890625 110.054688 C 315.714844 109.460938 316.574219 108.898438 317.46875 108.4375 C 317.832031 108.238281 318.226562 108.039062 318.625 107.875 C 319.617188 107.410156 320.671875 107.046875 321.730469 106.785156 C 322.0625 106.683594 322.359375 106.617188 322.6875 106.550781 C 324.042969 106.253906 325.464844 106.121094 326.917969 106.121094 C 338.089844 106.121094 347.109375 115.179688 347.109375 126.316406 C 347.109375 132.5 344.332031 138.019531 339.972656 141.722656 L 354.148438 178.707031 C 354.347656 178.707031 354.542969 178.707031 354.742188 178.707031 C 365.878906 178.707031 374.933594 187.765625 374.933594 198.902344 C 374.933594 210.042969 365.878906 219.097656 354.742188 219.097656 C 343.574219 219.097656 334.550781 210.074219 334.550781 198.902344 C 334.550781 192.722656 337.328125 187.203125 341.691406 183.5 L 327.511719 146.515625 C 327.316406 146.515625 327.117188 146.515625 326.917969 146.515625 C 318.328125 146.515625 310.992188 141.160156 308.082031 133.589844 L 308.050781 133.492188 L 308.015625 133.425781 C 307.984375 133.324219 307.949219 133.226562 307.917969 133.128906 L 307.882812 133.0625 C 307.851562 132.960938 307.820312 132.863281 307.785156 132.761719 L 307.785156 132.730469 C 307.6875 132.433594 307.585938 132.101562 307.488281 131.773438 C 307.222656 130.847656 307.023438 129.855469 306.894531 128.863281 L 306.894531 128.433594 C 306.828125 127.773438 306.792969 127.109375 306.761719 126.449219 L 306.761719 126.351562 C 306.792969 125.625 306.828125 124.898438 306.925781 124.203125 L 306.925781 124.136719 L 306.960938 123.9375 L 306.960938 123.871094 L 306.992188 123.707031 L 306.992188 123.609375 L 307.023438 123.441406 L 307.023438 123.34375 L 307.058594 123.179688 L 307.058594 123.113281 C 307.058594 123.046875 307.089844 122.980469 307.089844 122.914062 L 307.089844 122.878906 L 307.125 122.75 C 307.324219 121.757812 307.621094 120.765625 307.949219 119.839844 Z M 308.082031 119.246094 " fill-opacity="1" fill-rule="evenodd"/><path fill="#272727" d="M 240.40625 61.269531 C 240.933594 60.738281 241.496094 60.242188 242.089844 59.78125 C 242.984375 59.054688 243.941406 58.359375 244.933594 57.730469 C 245.726562 57.234375 246.550781 56.742188 247.378906 56.3125 C 248.4375 55.78125 249.527344 55.285156 250.683594 54.890625 C 251.34375 54.65625 252.003906 54.425781 252.699219 54.226562 C 253.328125 54.0625 253.988281 53.898438 254.617188 53.765625 C 254.914062 53.699219 255.242188 53.632812 255.539062 53.601562 C 256.433594 53.433594 257.324219 53.335938 258.21875 53.269531 C 258.515625 53.238281 258.777344 53.238281 259.078125 53.203125 C 259.570312 53.171875 260.066406 53.171875 260.597656 53.171875 C 260.828125 53.171875 261.058594 53.171875 261.289062 53.171875 C 261.652344 53.171875 261.984375 53.203125 262.347656 53.203125 L 262.941406 53.203125 C 263.207031 53.238281 263.472656 53.238281 263.734375 53.269531 L 264.59375 53.269531 C 264.859375 53.304688 265.125 53.335938 265.386719 53.402344 L 265.421875 53.402344 L 265.519531 53.433594 L 265.917969 53.433594 L 266.050781 53.46875 C 266.28125 53.5 266.546875 53.566406 266.777344 53.632812 L 266.875 53.632812 C 266.976562 53.667969 267.105469 53.699219 267.207031 53.699219 L 267.238281 53.699219 L 267.339844 53.734375 L 267.4375 53.765625 C 267.703125 53.832031 267.933594 53.898438 268.199219 53.964844 L 268.261719 53.996094 L 268.328125 53.996094 L 268.394531 54.03125 L 268.429688 54.03125 C 268.496094 54.0625 268.59375 54.0625 268.660156 54.097656 L 268.726562 54.097656 L 268.859375 54.128906 C 269.089844 54.195312 269.320312 54.261719 269.550781 54.359375 L 270.214844 54.359375 C 270.445312 54.425781 270.675781 54.527344 270.90625 54.625 L 270.972656 54.625 L 271.007812 54.65625 L 271.074219 54.691406 L 271.136719 54.722656 L 271.238281 54.722656 L 271.335938 54.757812 L 271.402344 54.757812 L 271.4375 54.789062 L 271.503906 54.824219 L 271.535156 54.824219 L 271.566406 54.855469 C 271.800781 54.957031 271.996094 55.054688 272.230469 55.152344 L 272.359375 55.152344 L 272.425781 55.1875 L 272.527344 55.21875 L 272.59375 55.21875 L 272.726562 55.285156 L 272.757812 55.285156 L 272.789062 55.320312 L 272.824219 55.320312 L 272.890625 55.351562 C 273.121094 55.453125 273.351562 55.582031 273.550781 55.683594 L 273.585938 55.714844 L 273.648438 55.714844 L 273.816406 55.816406 L 274.015625 55.816406 L 274.078125 55.847656 L 274.144531 55.847656 C 274.574219 56.078125 274.972656 56.3125 275.402344 56.574219 C 275.601562 56.707031 275.796875 56.839844 275.996094 56.972656 C 276.0625 57.003906 276.128906 57.070312 276.195312 57.105469 C 276.523438 57.335938 276.855469 57.535156 277.1875 57.765625 L 277.21875 57.765625 L 277.351562 57.863281 L 277.484375 57.964844 L 277.648438 58.09375 L 277.78125 58.09375 C 277.980469 58.226562 278.175781 58.394531 278.34375 58.523438 L 278.574219 58.523438 L 278.640625 58.558594 C 278.9375 58.789062 279.234375 59.054688 279.5 59.285156 L 279.597656 59.285156 L 279.632812 59.320312 L 279.664062 59.320312 L 279.699219 59.351562 L 279.765625 59.351562 L 279.796875 59.382812 L 279.828125 59.417969 L 279.894531 59.417969 L 279.929688 59.449219 C 280.09375 59.617188 280.292969 59.78125 280.457031 59.945312 L 280.523438 59.945312 L 280.558594 59.980469 L 280.621094 59.980469 L 280.65625 60.011719 L 280.6875 60.046875 L 280.722656 60.078125 L 280.753906 60.113281 L 280.789062 60.144531 C 280.988281 60.34375 281.152344 60.542969 281.351562 60.738281 L 281.382812 60.773438 L 281.382812 60.9375 L 281.417969 60.972656 L 281.417969 61.101562 L 281.449219 61.136719 L 281.449219 61.167969 C 281.613281 61.367188 281.8125 61.566406 281.976562 61.765625 L 282.078125 61.898438 L 282.078125 62.0625 L 282.109375 62.09375 L 282.144531 62.160156 L 282.175781 62.195312 L 282.210938 62.226562 L 282.242188 62.261719 L 282.273438 62.292969 C 282.640625 62.722656 282.96875 63.1875 283.265625 63.617188 C 283.433594 63.847656 283.5625 64.046875 283.730469 64.277344 C 284.058594 64.773438 284.390625 65.269531 284.6875 65.796875 L 284.6875 65.929688 L 284.722656 65.960938 L 284.722656 65.996094 C 285.085938 66.625 285.414062 67.21875 285.710938 67.878906 C 285.84375 68.144531 285.976562 68.410156 286.074219 68.671875 C 286.308594 69.234375 286.539062 69.796875 286.769531 70.359375 L 286.769531 70.425781 C 286.867188 70.6875 286.96875 70.953125 287.066406 71.25 C 287.265625 71.878906 287.464844 72.507812 287.628906 73.167969 C 287.792969 73.863281 287.960938 74.554688 288.089844 75.25 C 288.222656 76.011719 288.355469 76.769531 288.421875 77.5625 C 288.453125 77.992188 288.488281 78.421875 288.519531 78.851562 C 288.554688 79.414062 288.554688 79.976562 288.554688 80.539062 C 288.554688 81.066406 288.554688 81.5625 288.519531 82.09375 L 288.519531 82.289062 C 288.421875 84.042969 288.15625 85.726562 287.761719 87.382812 C 287.496094 88.4375 287.199219 89.464844 286.835938 90.453125 C 286.40625 91.613281 285.910156 92.769531 285.347656 93.859375 C 285.316406 93.957031 285.25 94.058594 285.214844 94.125 C 285.183594 94.222656 285.117188 94.289062 285.085938 94.386719 L 285.085938 94.421875 C 285.050781 94.519531 284.984375 94.585938 284.953125 94.6875 L 284.917969 94.71875 C 284.886719 94.816406 284.820312 94.882812 284.753906 94.984375 C 284.6875 95.082031 284.65625 95.148438 284.589844 95.246094 L 284.589844 95.28125 C 284.554688 95.347656 284.488281 95.445312 284.457031 95.511719 L 284.421875 95.546875 C 284.390625 95.613281 284.324219 95.710938 284.257812 95.777344 L 284.257812 95.84375 C 284.226562 95.910156 284.160156 96.007812 284.09375 96.074219 L 284.058594 96.105469 C 284.027344 96.171875 283.960938 96.238281 283.925781 96.304688 L 283.894531 96.371094 C 283.863281 96.4375 283.796875 96.503906 283.761719 96.570312 L 283.730469 96.636719 C 283.695312 96.703125 283.628906 96.769531 283.597656 96.835938 L 283.53125 96.933594 L 283.398438 97.097656 L 283.332031 97.199219 L 283.199219 97.363281 L 283.132812 97.429688 L 283.003906 97.628906 L 282.96875 97.695312 C 282.9375 97.761719 282.871094 97.824219 282.835938 97.859375 L 282.738281 97.992188 L 282.640625 98.15625 L 282.574219 98.253906 C 282.539062 98.320312 282.472656 98.386719 282.441406 98.421875 L 282.375 98.519531 C 282.339844 98.585938 282.273438 98.652344 282.242188 98.683594 L 282.175781 98.75 L 282.042969 98.917969 C 281.351562 99.742188 280.621094 100.535156 279.863281 101.296875 C 278.871094 102.253906 277.8125 103.179688 276.65625 104.007812 C 275.796875 104.636719 274.9375 105.195312 274.015625 105.726562 C 273.089844 106.253906 272.164062 106.71875 271.171875 107.148438 L 271.105469 107.214844 L 270.90625 107.214844 L 270.875 107.246094 L 270.839844 107.277344 L 270.808594 107.3125 L 270.773438 107.34375 C 270.046875 107.644531 269.320312 107.90625 268.5625 108.171875 C 268.230469 108.269531 267.902344 108.371094 267.570312 108.46875 C 267.140625 108.601562 266.710938 108.699219 266.25 108.800781 L 266.25 178.675781 C 266.480469 178.742188 266.710938 178.773438 266.910156 178.839844 C 269.980469 179.632812 275.632812 182.742188 275.632812 182.742188 C 276.160156 183.070312 276.65625 183.433594 277.152344 183.832031 C 277.21875 183.898438 277.320312 183.964844 277.382812 184.03125 C 284.226562 189.351562 288.621094 197.679688 288.621094 207.035156 C 288.621094 213.613281 286.4375 219.695312 282.769531 224.554688 L 306.367188 252.878906 C 311.023438 250.402344 316.34375 248.980469 321.996094 248.980469 C 340.269531 248.980469 355.109375 263.820312 355.109375 282.097656 C 355.109375 300.378906 340.269531 315.21875 321.996094 315.21875 C 303.722656 315.21875 288.882812 300.378906 288.882812 282.097656 C 288.882812 274.296875 291.59375 267.09375 296.121094 261.441406 L 272.527344 233.113281 C 268.59375 235.0625 264.199219 236.1875 259.507812 236.1875 C 255.707031 236.1875 252.105469 235.460938 248.765625 234.140625 L 248.601562 234.140625 L 248.535156 234.105469 L 248.238281 234.105469 L 248.140625 234.074219 L 248.105469 234.074219 C 247.875 233.972656 247.675781 233.875 247.445312 233.773438 L 246.984375 233.773438 L 246.917969 233.742188 L 246.75 233.742188 C 246.519531 233.644531 246.289062 233.511719 246.058594 233.410156 L 246.023438 233.410156 L 245.957031 233.378906 C 245.824219 233.3125 245.695312 233.246094 245.5625 233.148438 L 245.496094 233.148438 C 245.296875 233.046875 245.066406 232.914062 244.867188 232.785156 L 244.171875 232.785156 C 243.976562 232.652344 243.777344 232.519531 243.578125 232.386719 L 243.050781 232.386719 L 242.984375 232.320312 L 242.949219 232.320312 L 242.917969 232.289062 C 242.71875 232.15625 242.519531 232.023438 242.324219 231.859375 L 242.289062 231.859375 L 242.257812 231.824219 L 242.125 231.824219 L 241.992188 231.726562 L 241.695312 231.726562 C 241.496094 231.59375 241.296875 231.429688 241.132812 231.296875 L 241.101562 231.296875 L 241.066406 231.261719 L 240.769531 231.261719 L 240.738281 231.230469 L 240.636719 231.230469 C 240.4375 231.066406 240.273438 230.898438 240.074219 230.765625 L 239.644531 230.765625 C 239.347656 230.46875 239.019531 230.171875 238.71875 229.875 L 238.6875 229.84375 L 238.65625 229.808594 L 238.65625 229.777344 C 238.488281 229.578125 238.289062 229.414062 238.125 229.214844 L 237.992188 229.046875 L 237.859375 228.917969 L 237.796875 228.851562 L 237.796875 228.785156 C 237.464844 228.386719 237.132812 228.023438 236.804688 227.59375 C 236.636719 227.394531 236.472656 227.199219 236.339844 226.964844 C 236.011719 226.535156 235.714844 226.074219 235.382812 225.609375 L 235.382812 225.578125 L 235.316406 225.511719 L 235.316406 225.378906 L 235.285156 225.3125 C 234.921875 224.75 234.589844 224.191406 234.257812 223.59375 C 234.128906 223.363281 233.996094 223.097656 233.863281 222.835938 C 233.464844 222.042969 233.101562 221.246094 232.773438 220.421875 C 232.671875 220.125 232.539062 219.859375 232.441406 219.5625 C 232.175781 218.867188 231.945312 218.140625 231.746094 217.445312 L 231.746094 216.949219 L 231.714844 216.886719 L 231.714844 216.851562 C 231.550781 216.15625 231.382812 215.464844 231.253906 214.738281 C 231.1875 214.371094 231.121094 213.976562 231.085938 213.578125 C 230.921875 212.457031 230.855469 211.332031 230.824219 210.175781 L 230.824219 209.910156 C 230.824219 209.8125 230.824219 209.746094 230.824219 209.644531 C 230.824219 208.554688 230.886719 207.496094 230.988281 206.472656 C 231.054688 205.8125 231.152344 205.183594 231.253906 204.554688 C 231.285156 204.457031 231.285156 204.359375 231.316406 204.257812 C 231.449219 203.566406 231.617188 202.902344 231.78125 202.210938 C 232.113281 201.019531 232.476562 199.863281 232.9375 198.738281 C 233.5 197.351562 234.160156 196.027344 234.921875 194.773438 L 235.019531 194.605469 L 235.019531 194.574219 L 235.117188 194.410156 L 235.117188 194.375 L 235.152344 194.34375 L 235.21875 194.242188 L 235.285156 194.144531 L 235.316406 194.109375 L 235.382812 194.011719 L 235.414062 193.980469 L 235.480469 193.878906 L 235.582031 193.746094 L 235.613281 193.679688 L 235.648438 193.617188 L 235.714844 193.515625 L 235.746094 193.484375 L 235.84375 193.351562 L 235.878906 193.316406 L 236.011719 193.121094 C 236.078125 193.019531 236.144531 192.921875 236.207031 192.820312 L 236.273438 192.722656 C 237.167969 191.5 238.125 190.34375 239.183594 189.253906 C 239.25 189.1875 239.316406 189.121094 239.347656 189.085938 C 239.414062 189.019531 239.480469 188.953125 239.546875 188.890625 C 239.613281 188.824219 239.679688 188.757812 239.777344 188.691406 C 239.84375 188.625 239.910156 188.558594 239.976562 188.492188 L 240.007812 188.460938 C 240.074219 188.394531 240.140625 188.328125 240.207031 188.261719 L 240.242188 188.261719 C 240.304688 188.195312 240.371094 188.128906 240.4375 188.0625 C 240.503906 187.996094 240.570312 187.964844 240.636719 187.898438 L 240.703125 187.832031 L 240.867188 187.699219 L 240.902344 187.664062 C 241.828125 186.871094 242.785156 186.144531 243.808594 185.449219 C 244.601562 184.921875 245.460938 184.425781 246.320312 183.964844 C 246.71875 183.765625 247.082031 183.566406 247.476562 183.367188 C 247.609375 183.300781 247.773438 183.238281 247.90625 183.171875 L 247.972656 183.136719 L 248.007812 183.105469 L 248.203125 183.105469 C 248.335938 183.039062 248.4375 183.003906 248.566406 182.9375 C 248.929688 182.773438 249.296875 182.640625 249.625 182.507812 C 250.550781 182.179688 251.476562 181.882812 252.433594 181.617188 L 252.535156 181.617188 C 252.730469 181.550781 252.929688 181.519531 253.160156 181.453125 L 253.160156 111.578125 C 252.796875 111.476562 252.433594 111.410156 252.070312 111.3125 C 251.839844 111.246094 251.609375 111.179688 251.375 111.113281 C 250.847656 110.949219 250.320312 110.785156 249.789062 110.585938 L 249.722656 110.550781 L 249.527344 110.550781 C 248.996094 110.355469 248.46875 110.15625 247.972656 109.925781 C 247.742188 109.824219 247.542969 109.726562 247.3125 109.625 C 246.71875 109.363281 246.15625 109.03125 245.59375 108.734375 L 245.527344 108.699219 L 245.394531 108.699219 C 245.199219 108.570312 244.964844 108.46875 244.769531 108.335938 L 244.703125 108.304688 L 244.636719 108.269531 L 244.46875 108.269531 C 244.371094 108.203125 244.238281 108.140625 244.140625 108.074219 C 243.941406 107.941406 243.742188 107.808594 243.546875 107.675781 L 243.511719 107.644531 L 243.347656 107.542969 L 243.3125 107.542969 C 242.785156 107.179688 242.289062 106.816406 241.792969 106.421875 C 241.59375 106.253906 241.429688 106.121094 241.230469 105.957031 C 240.671875 105.496094 240.109375 105 239.578125 104.503906 C 239.414062 104.335938 239.214844 104.171875 239.050781 103.972656 C 238.523438 103.445312 238.027344 102.882812 237.53125 102.289062 C 237.367188 102.089844 237.199219 101.890625 237.035156 101.695312 C 236.539062 101.097656 236.078125 100.4375 235.648438 99.808594 C 235.480469 99.546875 235.316406 99.28125 235.152344 99.050781 C 235.019531 98.851562 234.921875 98.652344 234.789062 98.453125 C 234.65625 98.222656 234.523438 97.992188 234.359375 97.726562 C 234.09375 97.230469 233.828125 96.734375 233.566406 96.207031 C 233.300781 95.679688 233.070312 95.148438 232.839844 94.585938 C 232.605469 94.023438 232.375 93.429688 232.175781 92.835938 C 231.980469 92.207031 231.78125 91.578125 231.617188 90.949219 C 231.351562 89.925781 231.152344 88.902344 230.988281 87.84375 L 230.988281 87.710938 C 230.921875 87.316406 230.886719 86.917969 230.855469 86.523438 L 230.855469 86.191406 C 230.789062 85.332031 230.722656 84.441406 230.722656 83.546875 C 230.722656 82.058594 230.855469 80.605469 231.085938 79.183594 C 231.1875 78.457031 231.351562 77.695312 231.515625 77.003906 C 232.839844 71.449219 235.714844 66.523438 239.679688 62.691406 Z M 240.40625 61.269531 " fill-opacity="1" fill-rule="evenodd"/><path fill="#457d58" d="M 184.59375 134.382812 C 185.515625 130.847656 187.335938 127.671875 189.847656 125.160156 C 190.804688 124.203125 191.828125 123.34375 192.953125 122.617188 L 193.019531 122.617188 L 193.050781 122.582031 L 193.117188 122.582031 L 193.183594 122.550781 L 193.21875 122.550781 L 193.25 122.515625 L 193.28125 122.515625 L 193.316406 122.484375 L 193.347656 122.484375 L 193.382812 122.449219 L 193.414062 122.449219 L 193.515625 122.382812 L 193.582031 122.351562 L 193.613281 122.320312 L 193.644531 122.285156 L 193.710938 122.253906 L 193.777344 122.1875 L 193.84375 122.152344 L 193.878906 122.121094 L 193.910156 122.085938 L 193.945312 122.054688 L 193.976562 122.019531 L 194.011719 121.988281 L 194.042969 121.953125 L 194.074219 121.921875 L 194.109375 121.890625 L 194.140625 121.855469 L 194.175781 121.824219 C 194.570312 121.589844 194.933594 121.394531 195.363281 121.195312 C 196.390625 120.699219 197.445312 120.300781 198.535156 120.003906 C 198.867188 119.90625 199.164062 119.839844 199.496094 119.742188 C 200.125 119.609375 200.785156 119.476562 201.445312 119.375 L 202.238281 119.375 C 202.535156 119.34375 202.800781 119.34375 203.097656 119.3125 C 203.425781 119.3125 203.757812 119.277344 204.089844 119.277344 C 204.585938 119.277344 205.046875 119.3125 205.542969 119.34375 L 205.574219 119.34375 C 206.105469 119.375 206.632812 119.441406 207.128906 119.507812 C 207.625 119.574219 208.121094 119.675781 208.617188 119.804688 C 209.113281 119.90625 209.574219 120.039062 210.035156 120.203125 C 210.5 120.335938 210.960938 120.5 211.425781 120.664062 C 211.65625 120.765625 211.886719 120.832031 212.085938 120.929688 L 212.78125 120.929688 C 213.011719 121.03125 213.210938 121.128906 213.40625 121.261719 L 213.441406 121.292969 L 213.472656 121.292969 L 213.507812 121.328125 L 214.101562 121.328125 C 214.300781 121.460938 214.53125 121.558594 214.730469 121.691406 C 215.125 121.953125 215.554688 122.21875 215.917969 122.484375 C 216.316406 122.78125 216.679688 123.046875 217.074219 123.375 C 217.4375 123.671875 217.800781 124.003906 218.167969 124.367188 C 218.53125 124.699219 218.859375 125.0625 219.191406 125.425781 L 219.191406 125.558594 L 219.222656 125.589844 C 219.621094 126.054688 220.015625 126.550781 220.378906 127.078125 C 220.546875 127.308594 220.675781 127.507812 220.84375 127.738281 L 220.84375 127.804688 L 220.875 127.839844 L 220.875 127.9375 L 220.910156 127.96875 L 220.910156 128.402344 C 221.042969 128.632812 221.171875 128.894531 221.339844 129.128906 C 221.703125 129.789062 222 130.449219 222.296875 131.144531 L 222.296875 131.277344 L 222.328125 131.34375 L 222.328125 131.539062 C 222.429688 131.839844 222.5625 132.136719 222.660156 132.433594 C 222.695312 132.53125 222.726562 132.597656 222.757812 132.699219 C 222.792969 132.761719 222.792969 132.828125 222.824219 132.894531 L 222.859375 132.960938 L 222.859375 133.359375 C 222.957031 133.6875 223.023438 134.019531 223.121094 134.382812 L 223.121094 135.277344 L 223.15625 135.375 C 223.222656 135.769531 223.253906 136.167969 223.320312 136.53125 C 223.386719 137.226562 223.421875 137.917969 223.421875 138.648438 C 223.421875 139.078125 223.421875 139.507812 223.386719 139.902344 L 223.386719 139.96875 C 223.253906 142.050781 222.792969 144.066406 222.066406 145.953125 C 221.339844 147.804688 220.347656 149.523438 219.125 151.074219 C 218.035156 152.464844 216.777344 153.6875 215.390625 154.742188 C 214.234375 155.605469 212.976562 156.363281 211.625 156.992188 C 211.257812 157.15625 210.894531 157.324219 210.53125 157.453125 C 209.871094 157.71875 209.179688 157.917969 208.515625 158.117188 L 208.386719 158.117188 L 208.285156 158.148438 C 207.460938 158.347656 206.601562 158.511719 205.742188 158.613281 C 205.445312 158.644531 205.144531 158.675781 204.847656 158.710938 C 204.320312 158.742188 203.792969 158.777344 203.261719 158.777344 C 203.066406 158.777344 202.867188 158.777344 202.667969 158.777344 L 202.636719 158.777344 C 202.039062 158.742188 201.476562 158.710938 200.882812 158.644531 C 200.386719 158.578125 199.859375 158.511719 199.363281 158.414062 C 198.867188 158.3125 198.371094 158.214844 197.910156 158.050781 C 197.445312 157.917969 196.984375 157.753906 196.523438 157.585938 C 196.289062 157.519531 196.058594 157.421875 195.828125 157.324219 L 195.5625 157.324219 C 195.429688 157.257812 195.300781 157.191406 195.132812 157.15625 C 194.902344 157.058594 194.703125 156.957031 194.472656 156.859375 C 194.273438 156.761719 194.042969 156.660156 193.84375 156.527344 C 193.648438 156.429688 193.414062 156.296875 193.21875 156.164062 C 192.789062 155.933594 192.390625 155.667969 191.996094 155.40625 C 191.597656 155.140625 191.203125 154.84375 190.835938 154.546875 C 190.441406 154.25 190.078125 153.917969 189.714844 153.585938 C 189.351562 153.257812 188.988281 152.894531 188.65625 152.5625 C 188.128906 152 187.632812 151.4375 187.167969 150.8125 C 186.839844 150.382812 186.542969 149.953125 186.277344 149.488281 C 186.144531 149.257812 185.980469 149.027344 185.847656 148.792969 C 185.417969 148.035156 185.023438 147.273438 184.691406 146.480469 C 184.558594 146.183594 184.460938 145.917969 184.359375 145.621094 C 184.128906 145.027344 183.929688 144.398438 183.765625 143.738281 L 183.765625 143.703125 L 183.734375 143.605469 L 183.734375 142.84375 L 183.699219 142.746094 C 183.601562 142.316406 183.535156 141.886719 183.46875 141.457031 L 183.46875 141.226562 C 183.371094 140.433594 183.304688 139.605469 183.304688 138.777344 L 183.304688 138.347656 C 183.335938 136.695312 183.535156 135.109375 183.929688 133.589844 Z M 184.59375 134.382812 " fill-opacity="1" fill-rule="evenodd"/><path fill="#272727" d="M 74.714844 209.148438 C 74.78125 209.183594 74.847656 209.183594 74.914062 209.214844 Z M 74.714844 209.148438 " fill-opacity="1" fill-rule="evenodd"/><path fill="#457d58" d="M 108.753906 144.167969 C 109.28125 143.671875 109.84375 143.207031 110.40625 142.746094 C 111.660156 141.753906 112.984375 140.863281 114.402344 140.101562 C 114.800781 139.902344 115.164062 139.703125 115.558594 139.507812 L 115.921875 139.507812 C 116.15625 139.40625 116.417969 139.273438 116.652344 139.175781 C 117.015625 139.011719 117.34375 138.878906 117.707031 138.746094 L 117.839844 138.746094 L 117.90625 138.714844 L 118.039062 138.714844 L 118.070312 138.679688 C 118.171875 138.648438 118.269531 138.613281 118.367188 138.582031 L 118.433594 138.582031 L 118.5 138.546875 L 118.601562 138.515625 L 118.632812 138.515625 C 118.996094 138.382812 119.359375 138.285156 119.722656 138.183594 C 120.351562 138.019531 120.980469 137.855469 121.640625 137.722656 C 122.53125 137.523438 123.425781 137.390625 124.351562 137.292969 C 124.648438 137.257812 124.945312 137.226562 125.210938 137.226562 C 125.804688 137.191406 126.433594 137.160156 127.027344 137.160156 C 127.292969 137.160156 127.554688 137.191406 127.820312 137.191406 C 128.449219 137.226562 129.042969 137.292969 129.636719 137.359375 L 129.933594 137.359375 C 130.496094 137.425781 131.058594 137.523438 131.621094 137.65625 C 131.851562 137.722656 132.117188 137.753906 132.347656 137.820312 C 132.84375 137.917969 133.304688 138.050781 133.769531 138.183594 L 134 138.183594 C 134.460938 138.316406 134.890625 138.480469 135.320312 138.613281 L 135.421875 138.648438 L 135.484375 138.679688 L 135.816406 138.679688 C 136.277344 138.84375 136.707031 139.042969 137.136719 139.242188 C 137.371094 139.339844 137.566406 139.441406 137.800781 139.539062 C 137.867188 139.574219 137.929688 139.605469 138.03125 139.636719 L 138.097656 139.671875 L 138.261719 139.671875 L 138.328125 139.703125 L 138.460938 139.769531 C 138.660156 139.871094 138.890625 140.003906 139.089844 140.101562 C 139.519531 140.332031 139.949219 140.597656 140.34375 140.828125 L 140.375 140.863281 L 140.574219 140.863281 L 140.640625 140.894531 L 140.675781 140.894531 L 140.773438 140.960938 C 141.171875 141.226562 141.566406 141.488281 141.929688 141.753906 L 142.09375 141.753906 C 142.492188 142.050781 142.886719 142.347656 143.285156 142.679688 C 143.484375 142.84375 143.648438 142.976562 143.847656 143.140625 C 144.277344 143.507812 144.671875 143.871094 145.070312 144.265625 L 145.101562 144.300781 C 145.53125 144.730469 145.929688 145.160156 146.324219 145.621094 C 146.488281 145.820312 146.65625 146.019531 146.820312 146.214844 C 147.316406 146.8125 147.777344 147.4375 148.242188 148.101562 C 148.40625 148.332031 148.539062 148.53125 148.671875 148.761719 C 149.132812 149.457031 149.53125 150.183594 149.925781 150.910156 C 150.058594 151.175781 150.191406 151.40625 150.324219 151.671875 C 150.585938 152.199219 150.820312 152.761719 151.050781 153.324219 C 151.28125 153.917969 151.480469 154.511719 151.679688 155.109375 C 151.875 155.734375 152.074219 156.398438 152.207031 157.058594 C 152.472656 158.148438 152.636719 159.273438 152.769531 160.429688 C 152.800781 160.859375 152.835938 161.289062 152.867188 161.683594 L 152.867188 162.082031 C 152.902344 162.480469 152.902344 162.84375 152.902344 163.238281 C 152.902344 163.703125 152.902344 164.164062 152.867188 164.59375 L 152.867188 166.015625 C 152.800781 166.675781 152.703125 167.335938 152.570312 168 L 152.570312 168.261719 L 152.539062 168.328125 L 152.539062 168.792969 L 152.503906 168.859375 L 152.472656 168.921875 L 152.472656 169.089844 L 152.4375 169.15625 L 152.4375 169.351562 L 152.40625 169.417969 L 152.371094 169.484375 L 152.339844 169.550781 L 152.339844 169.585938 L 152.304688 169.683594 L 152.304688 169.882812 L 152.273438 169.949219 L 152.238281 170.015625 L 152.175781 170.148438 L 152.175781 170.378906 C 151.910156 171.269531 151.613281 172.128906 151.25 172.988281 L 151.414062 173.121094 L 152.007812 173.550781 L 152.605469 173.980469 L 154.386719 175.269531 L 154.984375 175.699219 L 156.765625 176.988281 L 157.363281 177.417969 L 157.957031 177.847656 L 158.519531 178.277344 L 159.707031 179.136719 L 160.304688 179.566406 L 162.085938 180.855469 L 162.683594 181.285156 L 163.871094 182.144531 L 164.46875 182.574219 L 166.25 183.863281 L 166.847656 184.292969 L 168.628906 185.582031 L 169.226562 186.011719 L 169.820312 186.441406 L 170.382812 186.871094 L 171.570312 187.730469 L 172.167969 188.160156 L 173.949219 189.449219 L 174.546875 189.878906 L 175.109375 190.308594 L 176.890625 191.597656 L 177.488281 192.027344 L 179.269531 193.316406 L 179.867188 193.746094 L 180 193.847656 C 180.394531 193.648438 180.757812 193.449219 181.15625 193.25 L 181.253906 193.21875 L 181.320312 193.183594 L 181.453125 193.117188 L 181.519531 193.117188 L 181.617188 193.085938 L 181.78125 193.085938 L 181.882812 193.054688 L 182.246094 193.054688 C 182.574219 192.921875 182.9375 192.789062 183.269531 192.6875 C 183.535156 192.589844 183.796875 192.523438 184.0625 192.457031 L 184.160156 192.425781 C 184.492188 192.324219 184.855469 192.257812 185.21875 192.195312 L 186.210938 192.195312 C 186.507812 192.160156 186.804688 192.09375 187.101562 192.0625 L 187.863281 192.0625 C 188.191406 192.027344 188.523438 192.027344 188.820312 192.027344 C 189.21875 192.027344 189.648438 192.0625 190.042969 192.0625 C 190.574219 192.09375 191.066406 192.160156 191.597656 192.226562 C 192.355469 192.359375 193.085938 192.492188 193.8125 192.722656 C 194.273438 192.855469 194.734375 193.019531 195.199219 193.183594 C 195.429688 193.285156 195.660156 193.351562 195.859375 193.449219 C 196.289062 193.648438 196.753906 193.847656 197.183594 194.042969 C 197.609375 194.277344 198.039062 194.507812 198.4375 194.738281 C 199.066406 195.101562 199.660156 195.53125 200.222656 195.960938 C 200.617188 196.257812 200.980469 196.589844 201.34375 196.921875 C 201.511719 197.085938 201.707031 197.25 201.875 197.417969 C 202.402344 197.945312 202.929688 198.507812 203.394531 199.101562 C 203.558594 199.300781 203.726562 199.5 203.855469 199.730469 L 203.855469 199.863281 C 204.285156 200.457031 204.683594 201.085938 205.011719 201.746094 C 205.144531 202.011719 205.277344 202.242188 205.410156 202.507812 C 205.675781 203.066406 205.90625 203.628906 206.136719 204.191406 L 206.136719 204.554688 L 206.171875 204.621094 C 206.203125 204.753906 206.269531 204.886719 206.300781 205.050781 C 206.402344 205.382812 206.5 205.679688 206.566406 206.011719 C 206.730469 206.703125 206.898438 207.429688 206.964844 208.191406 C 207.0625 208.984375 207.128906 209.777344 207.128906 210.570312 C 207.128906 211.199219 207.09375 211.828125 207.027344 212.421875 C 206.964844 213.082031 206.863281 213.746094 206.730469 214.40625 L 206.730469 214.4375 L 206.699219 214.539062 L 206.699219 214.605469 L 206.664062 214.734375 L 206.664062 214.800781 C 206.664062 214.867188 206.632812 214.902344 206.632812 214.96875 L 206.601562 215.132812 C 206.402344 215.925781 206.171875 216.6875 205.871094 217.414062 C 205.179688 219.132812 204.253906 220.75 203.097656 222.171875 L 202.964844 222.304688 C 202.867188 222.40625 202.800781 222.535156 202.699219 222.636719 L 202.566406 222.769531 L 202.503906 222.835938 C 202.402344 222.933594 202.304688 223.03125 202.203125 223.164062 L 202.136719 223.230469 C 202.074219 223.296875 202.007812 223.394531 201.941406 223.460938 L 201.808594 223.59375 C 201.742188 223.660156 201.675781 223.726562 201.578125 223.824219 L 201.179688 224.222656 C 200.289062 225.046875 199.328125 225.777344 198.273438 226.402344 C 197.875 226.636719 197.480469 226.867188 197.050781 227.066406 C 196.289062 227.460938 195.496094 227.792969 194.671875 228.089844 L 194.242188 228.089844 L 194.074219 228.121094 C 193.679688 228.253906 193.28125 228.355469 192.886719 228.453125 L 192.457031 228.453125 L 192.355469 228.484375 C 192.226562 228.519531 192.058594 228.550781 191.925781 228.585938 C 191.628906 228.652344 191.332031 228.683594 191.035156 228.71875 C 190.273438 228.816406 189.515625 228.882812 188.753906 228.882812 L 188.625 228.882812 C 188.359375 228.882812 188.09375 228.882812 187.796875 228.851562 L 186.738281 231.195312 L 180.03125 245.839844 L 176.265625 254.035156 C 176.527344 254.269531 176.757812 254.5 176.992188 254.765625 L 176.992188 254.828125 L 177.023438 254.863281 L 177.023438 254.894531 L 177.058594 254.929688 L 177.058594 254.960938 L 177.089844 255.027344 L 177.15625 255.09375 L 177.1875 255.128906 L 177.222656 255.160156 C 177.386719 255.359375 177.585938 255.558594 177.75 255.753906 C 178.246094 256.351562 178.742188 256.945312 179.171875 257.605469 C 179.335938 257.839844 179.46875 258.035156 179.601562 258.269531 L 179.601562 258.300781 L 179.632812 258.367188 L 179.699219 258.464844 C 179.734375 258.53125 179.765625 258.597656 179.832031 258.664062 L 179.867188 258.730469 L 179.898438 258.761719 L 179.933594 258.828125 L 180 258.929688 L 180 258.960938 C 180.164062 259.226562 180.296875 259.457031 180.429688 259.722656 L 180.460938 259.789062 L 180.492188 259.820312 L 180.492188 259.886719 L 180.558594 259.953125 L 180.558594 260.019531 L 180.59375 260.050781 L 180.625 260.085938 L 180.625 260.117188 L 180.660156 260.21875 L 180.691406 260.25 C 180.824219 260.515625 180.957031 260.78125 181.054688 261.042969 L 181.054688 261.902344 C 181.1875 262.234375 181.320312 262.566406 181.417969 262.894531 L 181.417969 262.929688 L 181.484375 263.0625 C 181.519531 263.160156 181.550781 263.226562 181.585938 263.324219 L 181.648438 263.457031 L 181.648438 263.492188 L 181.683594 263.589844 C 181.78125 263.921875 181.882812 264.21875 181.949219 264.546875 C 182.144531 265.273438 182.277344 266.003906 182.410156 266.761719 L 182.410156 267.6875 C 182.476562 268.316406 182.507812 268.976562 182.542969 269.636719 L 182.542969 270.300781 C 182.542969 271.160156 182.476562 271.984375 182.410156 272.777344 L 182.410156 273.042969 C 182.277344 274.167969 182.046875 275.257812 181.75 276.316406 C 181.386719 277.671875 180.890625 278.960938 180.261719 280.183594 C 180.230469 280.28125 180.164062 280.347656 180.128906 280.445312 C 180.097656 280.546875 180.03125 280.613281 180 280.710938 C 179.867188 280.976562 179.699219 281.242188 179.570312 281.503906 L 179.570312 281.539062 C 179.535156 281.605469 179.46875 281.703125 179.4375 281.769531 L 179.4375 281.800781 C 179.402344 281.867188 179.335938 281.96875 179.304688 282.035156 C 179.203125 282.199219 179.105469 282.363281 179.007812 282.53125 L 178.972656 282.5625 C 178.90625 282.628906 178.875 282.726562 178.808594 282.792969 L 178.777344 282.828125 C 178.710938 282.894531 178.675781 282.992188 178.609375 283.058594 C 178.511719 283.222656 178.410156 283.355469 178.28125 283.519531 L 178.246094 283.585938 C 178.214844 283.652344 178.148438 283.71875 178.113281 283.785156 L 178.082031 283.851562 C 178.015625 283.917969 177.980469 283.984375 177.917969 284.050781 L 177.882812 284.082031 C 177.816406 284.148438 177.785156 284.214844 177.71875 284.28125 C 177.652344 284.347656 177.617188 284.414062 177.554688 284.480469 L 177.488281 284.546875 C 177.453125 284.613281 177.386719 284.679688 177.355469 284.710938 L 177.289062 284.777344 C 177.222656 284.84375 177.1875 284.910156 177.125 284.976562 L 177.089844 285.007812 C 177.023438 285.074219 176.992188 285.140625 176.925781 285.207031 C 176.859375 285.273438 176.824219 285.339844 176.757812 285.40625 L 176.726562 285.4375 C 176.660156 285.503906 176.628906 285.570312 176.5625 285.601562 L 176.527344 285.636719 C 176.460938 285.703125 176.429688 285.734375 176.363281 285.800781 C 175.371094 286.828125 174.28125 287.785156 173.125 288.609375 C 172.695312 288.910156 172.265625 289.207031 171.804688 289.46875 C 170.777344 290.097656 169.722656 290.628906 168.628906 291.089844 L 168.597656 291.125 L 168.5625 291.15625 L 168.53125 291.1875 L 168.464844 291.1875 L 168.367188 291.222656 C 167.707031 291.488281 167.011719 291.71875 166.316406 291.917969 C 165.988281 292.015625 165.691406 292.082031 165.359375 292.179688 C 164.765625 292.3125 164.136719 292.445312 163.507812 292.542969 C 162.914062 292.644531 162.351562 292.710938 161.757812 292.742188 L 161.558594 292.742188 C 161.097656 292.777344 160.632812 292.777344 160.171875 292.777344 C 160.039062 292.777344 159.875 292.777344 159.742188 292.777344 L 159.707031 292.777344 C 159.3125 292.777344 158.914062 292.742188 158.484375 292.710938 C 157.691406 292.644531 156.933594 292.542969 156.171875 292.414062 C 155.675781 292.3125 155.179688 292.214844 154.683594 292.082031 C 154.453125 292.015625 154.191406 291.949219 153.957031 291.882812 C 153.265625 291.683594 152.570312 291.453125 151.875 291.191406 C 151.644531 291.089844 151.414062 290.992188 151.183594 290.890625 L 151.117188 290.890625 L 151.050781 290.859375 L 150.984375 290.859375 L 150.886719 290.824219 L 150.753906 290.761719 L 150.71875 290.761719 L 150.652344 290.726562 L 150.621094 290.726562 L 150.523438 290.695312 C 150.289062 290.59375 150.09375 290.496094 149.859375 290.363281 C 149.234375 290.03125 148.605469 289.667969 148.011719 289.304688 C 147.8125 289.171875 147.613281 289.039062 147.414062 288.910156 C 147.019531 288.644531 146.621094 288.347656 146.257812 288.050781 C 145.695312 287.585938 145.136719 287.125 144.605469 286.628906 C 144.242188 286.296875 143.914062 285.933594 143.550781 285.570312 C 143.382812 285.371094 143.21875 285.207031 143.054688 285.007812 C 142.722656 284.613281 142.390625 284.214844 142.09375 283.820312 C 141.765625 283.390625 141.46875 282.960938 141.203125 282.496094 C 140.90625 282.035156 140.640625 281.570312 140.375 281.074219 C 140.113281 280.578125 139.847656 280.050781 139.617188 279.523438 C 139.253906 278.664062 138.921875 277.804688 138.625 276.910156 C 138.527344 276.578125 138.425781 276.28125 138.359375 275.953125 C 138.097656 274.894531 137.898438 273.769531 137.765625 272.644531 C 137.699219 271.953125 137.667969 271.257812 137.632812 270.53125 L 137.632812 270.496094 C 137.632812 269.207031 137.765625 267.953125 137.964844 266.730469 C 138.097656 265.902344 138.292969 265.109375 138.527344 264.316406 C 139.152344 262.167969 140.078125 260.152344 141.269531 258.300781 L 141.269531 258.269531 C 141.300781 258.203125 141.367188 258.136719 141.402344 258.070312 L 141.433594 258.035156 C 141.535156 257.90625 141.632812 257.773438 141.699219 257.640625 L 141.730469 257.605469 C 141.765625 257.539062 141.832031 257.476562 141.863281 257.410156 L 141.898438 257.375 C 141.929688 257.308594 141.996094 257.242188 142.027344 257.175781 C 142.0625 257.109375 142.128906 257.046875 142.160156 256.980469 L 142.195312 256.945312 C 142.226562 256.878906 142.292969 256.8125 142.328125 256.78125 L 142.359375 256.746094 L 142.492188 256.617188 L 142.523438 256.582031 C 142.558594 256.515625 142.625 256.484375 142.65625 256.417969 L 142.722656 256.351562 L 142.820312 256.21875 L 142.886719 256.152344 L 142.988281 256.019531 L 143.054688 255.953125 C 143.085938 255.921875 143.152344 255.855469 143.1875 255.820312 L 143.25 255.722656 L 143.351562 255.589844 L 143.515625 255.425781 L 143.582031 255.328125 L 143.679688 255.195312 C 144.671875 254.136719 145.796875 253.179688 146.984375 252.320312 C 147.414062 252.019531 147.878906 251.722656 148.308594 251.425781 C 149.398438 250.765625 150.554688 250.171875 151.777344 249.675781 C 152.109375 249.542969 152.472656 249.410156 152.835938 249.277344 C 153.5625 249.046875 154.289062 248.816406 155.050781 248.648438 L 155.777344 248.648438 C 156.074219 248.582031 156.371094 248.550781 156.699219 248.484375 C 157.296875 248.386719 157.859375 248.320312 158.453125 248.285156 C 158.980469 248.253906 159.542969 248.21875 160.105469 248.21875 L 160.402344 248.21875 C 160.667969 248.21875 160.929688 248.253906 161.195312 248.253906 L 162.019531 248.253906 C 162.1875 248.285156 162.320312 248.285156 162.484375 248.320312 L 164.464844 244.023438 L 171.175781 229.414062 L 174.050781 223.164062 C 173.851562 222.96875 173.652344 222.769531 173.453125 222.539062 L 173.421875 222.503906 L 173.390625 222.472656 L 173.390625 222.40625 L 173.324219 222.339844 L 173.324219 222.042969 C 173.15625 221.84375 172.992188 221.644531 172.859375 221.445312 L 172.828125 221.414062 C 172.53125 221.015625 172.230469 220.585938 171.933594 220.125 C 171.570312 219.5625 171.273438 219 170.976562 218.40625 L 170.945312 218.304688 L 170.878906 218.207031 L 170.84375 218.175781 L 170.8125 218.109375 L 170.777344 218.007812 L 170.746094 217.941406 C 170.613281 217.679688 170.515625 217.382812 170.382812 217.117188 L 170.382812 216.191406 C 170.28125 215.894531 170.183594 215.5625 170.085938 215.265625 C 170.050781 215.101562 169.984375 214.933594 169.953125 214.769531 L 169.953125 214.636719 C 169.917969 214.539062 169.917969 214.4375 169.886719 214.375 L 169.886719 214.242188 C 169.820312 213.878906 169.753906 213.515625 169.6875 213.148438 L 169.6875 213.085938 L 169.65625 212.953125 L 169.65625 212.820312 C 169.621094 212.65625 169.621094 212.523438 169.589844 212.355469 C 169.523438 211.796875 169.488281 211.265625 169.457031 210.703125 L 169.457031 210.570312 C 169.488281 209.976562 169.554688 209.414062 169.621094 208.820312 L 169.621094 208.589844 L 169.65625 208.457031 L 169.65625 208.125 L 169.6875 208.027344 L 169.6875 207.5625 L 169.722656 207.398438 L 169.722656 206.574219 L 169.160156 206.144531 L 168.5625 205.714844 L 166.78125 204.425781 L 166.183594 203.996094 L 165.625 203.566406 L 165.027344 203.136719 L 163.839844 202.277344 L 163.242188 201.847656 L 161.460938 200.558594 L 160.898438 200.128906 L 160.304688 199.699219 L 159.707031 199.269531 L 158.519531 198.410156 L 157.921875 197.980469 L 156.140625 196.691406 L 155.542969 196.261719 L 153.761719 194.972656 L 153.164062 194.542969 L 151.976562 193.683594 L 151.378906 193.253906 L 149.597656 191.964844 L 149.035156 191.535156 L 148.441406 191.105469 L 147.84375 190.675781 L 146.65625 189.816406 L 146.058594 189.386719 L 144.277344 188.097656 L 143.679688 187.667969 L 142.492188 186.808594 L 141.894531 186.378906 L 141.300781 185.949219 L 140.972656 185.714844 C 140.707031 185.949219 140.410156 186.179688 140.113281 186.378906 L 140.011719 186.476562 L 139.816406 186.609375 L 139.78125 186.609375 L 139.75 186.640625 L 139.683594 186.675781 L 139.582031 186.742188 L 139.550781 186.773438 L 139.484375 186.808594 L 139.449219 186.839844 L 139.320312 186.90625 L 139.285156 186.9375 L 139.253906 186.9375 L 139.21875 186.972656 L 139.1875 186.972656 L 139.152344 187.003906 L 139.023438 187.070312 L 138.988281 187.105469 L 138.957031 187.105469 L 138.921875 187.136719 C 138.492188 187.402344 138.0625 187.667969 137.632812 187.929688 L 137.601562 187.929688 L 137.5 188.03125 L 137.433594 188.03125 L 137.402344 188.0625 L 137.371094 188.097656 L 137.335938 188.128906 L 137.269531 188.128906 L 137.171875 188.226562 L 137.105469 188.226562 L 137.039062 188.292969 L 137.007812 188.328125 L 136.941406 188.328125 L 136.90625 188.359375 L 136.875 188.394531 L 136.839844 188.425781 L 136.742188 188.425781 L 136.675781 188.492188 L 136.609375 188.492188 L 136.542969 188.558594 L 136.476562 188.558594 L 136.445312 188.589844 C 136.082031 188.789062 135.683594 188.988281 135.289062 189.152344 C 134.992188 189.285156 134.691406 189.417969 134.363281 189.550781 L 134.164062 189.550781 C 133.800781 189.714844 133.402344 189.847656 133.039062 189.980469 L 133.007812 189.980469 C 132.84375 190.046875 132.644531 190.113281 132.480469 190.179688 L 132.414062 190.179688 L 132.347656 190.210938 L 132.148438 190.210938 L 132.082031 190.242188 C 131.75 190.34375 131.421875 190.441406 131.089844 190.542969 L 130.132812 190.542969 C 129.734375 190.640625 129.339844 190.707031 128.941406 190.773438 L 128.84375 190.773438 C 128.746094 190.773438 128.679688 190.804688 128.578125 190.804688 L 128.28125 190.804688 C 127.984375 190.839844 127.65625 190.90625 127.355469 190.9375 L 127.257812 190.9375 C 127.160156 190.9375 127.058594 190.972656 126.960938 190.972656 C 126.828125 190.972656 126.664062 191.003906 126.53125 191.003906 C 126.234375 191.039062 125.96875 191.039062 125.671875 191.070312 L 125.636719 191.070312 C 125.574219 191.070312 125.472656 191.070312 125.40625 191.070312 C 125.308594 191.070312 125.175781 191.070312 125.078125 191.070312 C 124.8125 191.070312 124.515625 191.070312 124.21875 191.070312 C 123.988281 191.070312 123.753906 191.070312 123.523438 191.070312 C 122.929688 191.039062 122.335938 191.003906 121.738281 190.972656 C 121.476562 190.9375 121.210938 190.90625 120.945312 190.871094 L 120.746094 190.839844 L 120.617188 190.839844 C 120.484375 190.804688 120.351562 190.804688 120.21875 190.773438 C 119.953125 190.738281 119.722656 190.707031 119.460938 190.640625 C 118.929688 190.542969 118.402344 190.441406 117.871094 190.308594 L 117.707031 190.277344 L 117.3125 190.277344 C 116.816406 190.144531 116.351562 190.011719 115.855469 189.847656 C 115.625 189.78125 115.394531 189.683594 115.164062 189.617188 L 115.0625 189.582031 L 114.898438 189.582031 C 114.765625 189.515625 114.601562 189.484375 114.46875 189.417969 C 114.238281 189.320312 114.007812 189.253906 113.808594 189.152344 C 113.378906 188.953125 112.917969 188.757812 112.488281 188.558594 L 112.15625 188.558594 C 111.660156 188.292969 111.164062 188.03125 110.703125 187.765625 L 110.601562 187.765625 C 110.207031 187.535156 109.777344 187.269531 109.378906 187.003906 C 109.183594 186.871094 108.984375 186.742188 108.785156 186.609375 C 108.390625 186.34375 107.992188 186.046875 107.628906 185.75 C 107.167969 185.386719 106.738281 184.988281 106.308594 184.59375 L 106.273438 184.558594 L 106.207031 184.558594 C 105.84375 184.226562 105.480469 183.863281 105.152344 183.5 C 104.984375 183.304688 104.820312 183.136719 104.621094 182.9375 C 104.09375 182.378906 103.628906 181.78125 103.167969 181.15625 C 103.003906 180.957031 102.871094 180.726562 102.707031 180.527344 C 102.242188 179.867188 101.8125 179.203125 101.382812 178.476562 C 101.25 178.246094 101.121094 177.980469 100.988281 177.75 C 100.558594 176.988281 100.195312 176.195312 99.863281 175.402344 C 99.632812 174.839844 99.402344 174.246094 99.203125 173.652344 C 99.003906 173.023438 98.804688 172.394531 98.640625 171.765625 C 98.476562 171.074219 98.308594 170.378906 98.179688 169.683594 C 98.113281 169.320312 98.046875 168.925781 98.011719 168.527344 C 97.878906 167.4375 97.78125 166.3125 97.78125 165.191406 L 97.78125 165.15625 C 97.78125 164.496094 97.816406 163.867188 97.847656 163.238281 C 97.945312 161.917969 98.144531 160.59375 98.441406 159.339844 L 98.476562 159.140625 L 98.476562 159.074219 L 98.507812 158.910156 L 98.507812 158.84375 L 98.574219 158.644531 L 98.574219 158.613281 L 98.609375 158.445312 L 98.671875 158.25 L 98.671875 158.214844 L 98.707031 158.082031 L 98.738281 157.984375 L 98.773438 157.820312 L 98.804688 157.71875 L 98.839844 157.621094 L 98.871094 157.519531 C 98.90625 157.390625 98.972656 157.257812 99.003906 157.125 L 99.039062 157.023438 L 99.101562 156.828125 C 100.523438 152.597656 102.96875 148.828125 106.140625 145.820312 Z M 108.753906 144.167969 " fill-opacity="1" fill-rule="evenodd"/><g clip-path="url(#889a0ea4d9)"><path fill="#272727" d="M 5.980469 153.421875 C 6.542969 152.828125 7.136719 152.265625 7.765625 151.734375 L 7.863281 151.636719 L 7.996094 151.539062 L 8.292969 151.242188 L 8.425781 151.140625 L 8.527344 151.074219 L 8.65625 150.976562 L 8.757812 150.875 L 8.890625 150.777344 L 8.988281 150.710938 L 9.121094 150.613281 L 9.152344 150.578125 L 9.1875 150.578125 C 9.617188 150.28125 10.078125 149.984375 10.542969 149.71875 L 10.574219 149.6875 C 10.9375 149.457031 11.335938 149.257812 11.730469 149.058594 C 12.09375 148.859375 12.492188 148.695312 12.855469 148.496094 C 13.546875 148.199219 14.242188 147.933594 14.96875 147.703125 L 15.367188 147.703125 L 15.464844 147.671875 L 15.5625 147.671875 C 16.324219 147.4375 17.085938 147.273438 17.84375 147.140625 C 18.140625 147.074219 18.4375 147.042969 18.738281 147.007812 C 19.296875 146.945312 19.894531 146.878906 20.488281 146.84375 C 20.882812 146.8125 21.25 146.8125 21.644531 146.8125 C 21.808594 146.8125 21.976562 146.8125 22.171875 146.8125 L 22.535156 146.8125 C 22.636719 146.8125 22.703125 146.8125 22.800781 146.8125 L 22.835938 146.8125 C 23.132812 146.8125 23.429688 146.84375 23.726562 146.878906 L 24.519531 146.878906 C 24.785156 146.910156 25.015625 146.945312 25.28125 146.976562 L 26.039062 146.976562 C 26.269531 147.042969 26.535156 147.074219 26.765625 147.140625 L 27.0625 147.140625 L 27.128906 147.175781 L 27.429688 147.175781 C 27.660156 147.242188 27.890625 147.308594 28.121094 147.375 L 28.78125 147.375 C 28.949219 147.4375 29.144531 147.503906 29.3125 147.570312 L 29.90625 146.84375 L 35.558594 139.835938 L 41.207031 132.828125 L 46.890625 125.789062 L 49.734375 122.285156 L 55.417969 115.246094 L 56.804688 113.527344 C 56.640625 113.328125 56.476562 113.097656 56.34375 112.898438 L 56.308594 112.867188 C 56.144531 112.632812 55.980469 112.371094 55.8125 112.136719 C 55.746094 112.039062 55.683594 111.941406 55.617188 111.839844 L 55.617188 111.808594 L 55.550781 111.675781 L 55.550781 111.578125 L 55.515625 111.511719 C 55.382812 111.277344 55.21875 111.046875 55.085938 110.78125 L 55.085938 110.75 L 55.054688 110.652344 L 55.054688 110.519531 L 55.019531 110.484375 L 55.019531 110.417969 L 54.988281 110.386719 L 54.988281 110.054688 C 54.855469 109.792969 54.722656 109.558594 54.589844 109.296875 L 54.589844 109.195312 L 54.523438 109.0625 C 54.492188 108.964844 54.425781 108.867188 54.394531 108.765625 L 54.328125 108.601562 L 54.328125 108.566406 C 54.195312 108.269531 54.0625 108.007812 53.964844 107.707031 L 53.964844 107.015625 L 53.929688 106.949219 L 53.929688 106.785156 C 53.699219 106.1875 53.5 105.59375 53.300781 104.964844 C 53.203125 104.636719 53.105469 104.304688 53.039062 104.007812 L 53.039062 102.980469 C 52.972656 102.617188 52.90625 102.253906 52.839844 101.890625 L 52.839844 100.769531 C 52.773438 100.371094 52.742188 99.972656 52.707031 99.542969 L 52.707031 98.355469 C 52.707031 97.957031 52.675781 97.59375 52.675781 97.199219 C 52.675781 96.769531 52.675781 96.339844 52.707031 95.910156 L 52.707031 95.742188 C 52.742188 95.015625 52.808594 94.320312 52.90625 93.628906 L 52.9375 93.496094 L 52.972656 93.363281 L 53.003906 93.199219 C 53.003906 93.132812 53.039062 93.03125 53.039062 92.96875 L 53.039062 92.867188 C 53.039062 92.769531 53.070312 92.667969 53.070312 92.570312 L 53.070312 92.539062 C 53.136719 92.207031 53.203125 91.875 53.269531 91.546875 C 53.46875 90.652344 53.664062 89.761719 53.929688 88.902344 C 55.121094 85.035156 57.167969 81.53125 59.8125 78.589844 C 60.40625 77.925781 61.066406 77.265625 61.730469 76.671875 C 63.050781 75.480469 64.503906 74.390625 66.023438 73.464844 C 66.453125 73.199219 66.917969 72.9375 67.347656 72.707031 L 67.378906 72.671875 L 67.414062 72.671875 C 67.742188 72.507812 68.074219 72.339844 68.402344 72.175781 C 68.769531 72.011719 69.132812 71.847656 69.527344 71.679688 C 70.519531 71.25 71.578125 70.886719 72.632812 70.589844 C 73.261719 70.390625 73.921875 70.257812 74.550781 70.09375 C 74.847656 70.027344 75.179688 69.960938 75.476562 69.929688 C 76.367188 69.761719 77.226562 69.664062 78.152344 69.597656 C 78.449219 69.566406 78.714844 69.566406 79.011719 69.53125 C 79.441406 69.5 79.839844 69.5 80.265625 69.5 C 80.464844 69.5 80.664062 69.5 80.828125 69.5 L 80.960938 69.5 C 81.65625 69.53125 82.347656 69.566406 83.042969 69.632812 C 83.570312 69.695312 84.066406 69.761719 84.597656 69.828125 C 84.859375 69.863281 85.09375 69.929688 85.355469 69.960938 C 86.050781 70.09375 86.746094 70.257812 87.4375 70.425781 L 87.539062 70.457031 C 88 70.589844 88.496094 70.722656 88.957031 70.886719 C 89.191406 70.953125 89.421875 71.050781 89.652344 71.117188 L 90.347656 71.117188 C 90.578125 71.21875 90.808594 71.285156 91.007812 71.382812 C 91.4375 71.582031 91.898438 71.78125 92.328125 71.976562 C 92.988281 72.308594 93.617188 72.640625 94.246094 73.003906 C 94.675781 73.234375 95.070312 73.5 95.46875 73.761719 C 95.667969 73.894531 95.863281 74.027344 96.0625 74.160156 C 96.460938 74.425781 96.855469 74.722656 97.21875 75.019531 C 97.78125 75.480469 98.34375 75.945312 98.90625 76.441406 C 99.070312 76.605469 99.269531 76.769531 99.433594 76.9375 L 99.46875 76.9375 L 99.5 76.96875 L 99.53125 77.003906 L 99.632812 77.003906 L 99.664062 77.035156 C 99.832031 77.199219 100.027344 77.398438 100.195312 77.5625 C 100.722656 78.125 101.21875 78.6875 101.679688 79.28125 C 101.847656 79.480469 102.011719 79.679688 102.144531 79.910156 C 102.507812 80.375 102.835938 80.871094 103.167969 81.363281 L 103.199219 81.398438 L 103.199219 81.628906 C 103.367188 81.894531 103.53125 82.191406 103.730469 82.457031 L 103.828125 82.421875 L 106.804688 81.53125 L 107.792969 81.234375 L 108.785156 80.933594 L 111.761719 80.042969 L 112.75 79.746094 L 114.734375 79.152344 L 115.726562 78.851562 L 116.714844 78.554688 L 120.683594 77.367188 L 121.671875 77.066406 L 125.640625 75.878906 L 126.628906 75.582031 L 127.621094 75.285156 L 128.613281 74.984375 L 130.597656 74.390625 L 131.585938 74.09375 L 133.570312 73.5 L 134.5625 73.199219 L 135.550781 72.902344 L 139.519531 71.714844 L 140.507812 71.417969 L 141.5 71.117188 L 144.476562 70.226562 L 145.464844 69.929688 L 146.457031 69.632812 L 147.449219 69.332031 L 148.441406 69.035156 L 149.429688 68.738281 L 150.421875 68.441406 L 150.886719 68.308594 C 150.886719 68.078125 150.886719 67.878906 150.886719 67.648438 C 150.886719 66.195312 151.019531 64.738281 151.25 63.351562 C 151.546875 61.5 152.042969 59.683594 152.671875 57.964844 C 153.726562 55.152344 155.214844 52.574219 157.066406 50.292969 L 157.164062 50.164062 L 157.199219 50.128906 L 157.296875 49.996094 L 157.460938 49.832031 L 157.496094 49.765625 L 157.496094 49.734375 L 157.625 49.566406 L 157.660156 49.535156 L 157.792969 49.402344 L 157.890625 49.269531 L 157.957031 49.171875 L 157.992188 49.136719 L 158.054688 49.070312 L 158.121094 49.003906 L 158.222656 48.90625 L 158.453125 48.675781 L 158.550781 48.542969 L 158.585938 48.511719 L 158.785156 48.3125 L 158.914062 48.179688 L 158.949219 48.144531 L 159.082031 48.015625 L 159.148438 47.949219 L 159.277344 47.816406 L 159.3125 47.78125 C 159.875 47.253906 160.4375 46.726562 160.996094 46.261719 C 161.890625 45.503906 162.847656 44.839844 163.839844 44.214844 C 164.964844 43.484375 166.1875 42.859375 167.410156 42.296875 C 167.773438 42.128906 168.136719 42 168.5 41.832031 C 169.160156 41.570312 169.855469 41.335938 170.582031 41.105469 C 171.207031 40.90625 171.871094 40.742188 172.53125 40.578125 C 173.421875 40.378906 174.347656 40.214844 175.273438 40.082031 C 175.570312 40.046875 175.867188 40.015625 176.164062 39.980469 C 176.859375 39.914062 177.519531 39.882812 178.214844 39.851562 C 178.378906 39.851562 178.542969 39.851562 178.710938 39.851562 C 178.941406 39.851562 179.207031 39.851562 179.4375 39.851562 C 180 39.851562 180.527344 39.882812 181.054688 39.949219 L 181.289062 39.949219 C 181.78125 39.980469 182.246094 40.046875 182.742188 40.113281 L 182.941406 40.113281 L 183.070312 40.148438 L 183.335938 40.148438 C 183.796875 40.214844 184.226562 40.3125 184.65625 40.410156 L 184.789062 40.410156 C 185.285156 40.511719 185.75 40.644531 186.242188 40.773438 C 186.476562 40.839844 186.707031 40.90625 186.9375 40.972656 C 187.136719 41.039062 187.367188 41.105469 187.566406 41.171875 L 187.632812 41.171875 C 187.863281 41.238281 188.09375 41.335938 188.324219 41.402344 L 188.359375 41.402344 C 188.558594 41.46875 188.789062 41.570312 188.988281 41.636719 C 189.21875 41.734375 189.417969 41.832031 189.648438 41.898438 L 190.109375 41.898438 L 190.144531 41.933594 L 190.308594 41.933594 C 190.539062 42.03125 190.738281 42.128906 190.96875 42.230469 L 191.664062 42.230469 C 191.863281 42.328125 192.09375 42.460938 192.292969 42.558594 L 192.984375 42.558594 C 193.183594 42.691406 193.382812 42.792969 193.613281 42.925781 L 193.679688 42.925781 L 193.8125 43.023438 L 193.941406 43.121094 L 194.109375 43.222656 L 194.175781 43.253906 C 194.570312 43.519531 194.933594 43.785156 195.296875 44.046875 L 195.363281 44.046875 C 195.5625 44.179688 195.761719 44.34375 195.925781 44.476562 L 196.125 44.476562 C 196.257812 44.578125 196.386719 44.707031 196.519531 44.808594 C 196.71875 44.972656 196.882812 45.105469 197.082031 45.269531 C 197.445312 45.601562 197.808594 45.933594 198.171875 46.261719 L 198.207031 46.296875 C 198.636719 46.691406 199.03125 47.121094 199.429688 47.550781 L 199.460938 47.585938 L 199.496094 47.617188 L 199.527344 47.652344 L 199.5625 47.683594 L 199.660156 47.78125 L 199.691406 47.816406 C 200.054688 48.246094 200.421875 48.675781 200.785156 49.105469 C 200.949219 49.304688 201.113281 49.5 201.246094 49.734375 C 201.675781 50.292969 202.074219 50.890625 202.4375 51.484375 L 202.4375 51.714844 C 202.566406 51.949219 202.734375 52.179688 202.867188 52.410156 C 202.964844 52.574219 203.0625 52.742188 203.128906 52.90625 L 203.164062 52.972656 L 203.195312 53.039062 L 203.230469 53.070312 L 203.261719 53.105469 L 203.296875 53.136719 C 203.558594 53.632812 203.824219 54.160156 204.054688 54.691406 C 204.1875 54.957031 204.285156 55.21875 204.417969 55.515625 C 204.78125 56.375 205.113281 57.269531 205.375 58.160156 C 205.574219 58.824219 205.742188 59.449219 205.90625 60.144531 C 205.972656 60.507812 206.070312 60.839844 206.136719 61.203125 L 206.171875 61.402344 L 206.171875 62.09375 L 206.203125 62.261719 L 206.203125 62.292969 C 206.269531 62.691406 206.300781 63.085938 206.335938 63.484375 C 206.433594 64.410156 206.46875 65.367188 206.46875 66.324219 L 206.46875 66.492188 C 206.46875 67.746094 206.367188 69.003906 206.203125 70.191406 L 206.203125 70.359375 L 206.171875 70.492188 L 206.171875 71.183594 C 205.804688 73.265625 205.210938 75.25 204.417969 77.132812 C 203.527344 79.214844 202.4375 81.167969 201.082031 82.953125 C 199.460938 85.132812 197.511719 87.082031 195.296875 88.703125 C 194.4375 89.332031 193.578125 89.925781 192.65625 90.453125 C 192.257812 90.6875 191.863281 90.917969 191.464844 91.117188 C 190.40625 91.679688 189.316406 92.140625 188.160156 92.570312 C 187.828125 92.703125 187.464844 92.800781 187.136719 92.902344 C 186.175781 93.199219 185.21875 93.460938 184.226562 93.660156 C 183.632812 93.792969 183.003906 93.890625 182.410156 93.957031 C 182.113281 93.992188 181.816406 94.023438 181.519531 94.058594 C 180.855469 94.125 180.230469 94.15625 179.570312 94.191406 L 179.46875 94.191406 C 179.203125 94.191406 178.941406 94.191406 178.644531 94.191406 C 178.214844 94.191406 177.785156 94.191406 177.386719 94.15625 L 177.289062 94.15625 C 176.757812 94.125 176.230469 94.089844 175.703125 94.023438 C 175.4375 93.992188 175.171875 93.957031 174.941406 93.925781 C 174.445312 93.859375 173.917969 93.761719 173.421875 93.695312 C 172.695312 93.5625 171.933594 93.398438 171.242188 93.199219 C 170.777344 93.066406 170.28125 92.933594 169.820312 92.769531 C 169.589844 92.703125 169.355469 92.601562 169.125 92.539062 L 168.992188 92.503906 L 168.929688 92.503906 L 168.863281 92.472656 L 168.433594 92.472656 C 168.199219 92.371094 167.96875 92.304688 167.769531 92.207031 C 167.339844 92.007812 166.878906 91.808594 166.449219 91.613281 C 165.789062 91.28125 165.160156 90.949219 164.566406 90.585938 C 164.136719 90.355469 163.738281 90.089844 163.34375 89.828125 C 163.144531 89.695312 162.945312 89.5625 162.75 89.429688 L 162.253906 89.429688 L 162.121094 89.296875 C 161.921875 89.164062 161.722656 89 161.558594 88.867188 C 161.164062 88.570312 160.796875 88.273438 160.433594 87.941406 L 160.402344 87.910156 L 160.335938 87.875 L 160.269531 87.875 L 160.238281 87.84375 L 160.203125 87.84375 L 160.070312 87.746094 L 160.003906 87.679688 C 159.609375 87.316406 159.246094 86.953125 158.847656 86.585938 C 158.683594 86.421875 158.484375 86.222656 158.320312 86.058594 C 157.988281 85.695312 157.625 85.296875 157.328125 84.933594 L 157.328125 84.703125 L 157.097656 84.472656 L 157.066406 84.4375 L 157.03125 84.40625 C 156.832031 84.140625 156.601562 83.878906 156.402344 83.578125 L 156.304688 83.449219 L 156.304688 83.414062 L 156.273438 83.347656 L 156.238281 83.316406 L 156.238281 83.148438 C 156.074219 82.917969 155.941406 82.71875 155.777344 82.488281 L 155.777344 82.421875 L 155.742188 82.390625 L 155.742188 82.222656 L 155.710938 82.191406 L 155.675781 82.160156 L 155.675781 82.125 L 155.644531 82.058594 L 155.644531 81.992188 C 155.480469 81.695312 155.28125 81.429688 155.113281 81.132812 L 154.289062 81.363281 L 153.296875 81.664062 L 152.304688 81.960938 L 151.316406 82.257812 L 148.339844 83.148438 L 147.347656 83.449219 L 146.359375 83.746094 L 143.382812 84.636719 L 142.394531 84.933594 L 141.402344 85.230469 L 140.410156 85.53125 L 138.425781 86.125 L 137.4375 86.421875 L 135.453125 87.015625 L 134.460938 87.316406 L 133.46875 87.613281 L 132.480469 87.910156 L 129.503906 88.800781 L 128.511719 89.101562 L 127.523438 89.398438 L 124.546875 90.289062 L 123.558594 90.585938 L 122.566406 90.882812 L 121.574219 91.183594 L 119.589844 91.777344 L 118.601562 92.074219 L 116.617188 92.667969 L 115.625 92.96875 L 114.632812 93.265625 L 113.644531 93.5625 L 109.675781 94.75 L 108.6875 95.050781 L 107.960938 95.246094 C 107.960938 95.578125 107.992188 95.941406 107.992188 96.273438 L 107.992188 98.15625 C 107.925781 99.414062 107.792969 100.636719 107.5625 101.824219 C 107.398438 102.652344 107.230469 103.476562 107 104.269531 C 105.777344 108.632812 103.464844 112.566406 100.425781 115.773438 C 99.402344 116.863281 98.242188 117.855469 97.054688 118.78125 C 96.589844 119.113281 96.128906 119.441406 95.667969 119.773438 L 95.632812 119.804688 L 95.601562 119.839844 L 95.535156 119.839844 L 95.5 119.871094 L 95.46875 119.90625 L 95.433594 119.9375 L 95.367188 119.9375 L 95.335938 119.972656 L 95.238281 120.070312 L 95.171875 120.070312 L 95.070312 120.171875 L 95.003906 120.171875 L 94.972656 120.203125 L 94.9375 120.234375 L 94.90625 120.269531 L 94.742188 120.433594 L 94.675781 120.433594 L 94.574219 120.535156 L 94.511719 120.535156 L 94.476562 120.566406 C 94.082031 120.796875 93.683594 121.03125 93.253906 121.226562 L 93.15625 121.292969 C 92.128906 121.824219 91.039062 122.285156 89.949219 122.714844 C 89.386719 122.914062 88.792969 123.113281 88.199219 123.277344 L 88.066406 123.308594 L 87.902344 123.308594 C 87.273438 123.476562 86.644531 123.640625 85.984375 123.773438 C 85.390625 123.90625 84.761719 124.003906 84.167969 124.070312 C 83.867188 124.101562 83.570312 124.136719 83.273438 124.167969 C 82.644531 124.234375 81.984375 124.269531 81.324219 124.300781 L 81.226562 124.300781 C 80.960938 124.300781 80.695312 124.300781 80.464844 124.300781 C 80.265625 124.300781 80.070312 124.300781 79.871094 124.300781 L 79.042969 124.300781 C 78.78125 124.300781 78.515625 124.269531 78.25 124.234375 L 77.988281 124.234375 C 77.921875 124.234375 77.820312 124.234375 77.753906 124.203125 L 77.558594 124.203125 C 77.261719 124.167969 76.996094 124.136719 76.699219 124.101562 L 76.039062 124.101562 C 75.773438 124.070312 75.542969 124.003906 75.277344 123.972656 L 74.582031 123.972656 C 74.351562 123.90625 74.085938 123.871094 73.855469 123.804688 L 73.394531 123.804688 L 73.195312 123.738281 C 72.964844 123.671875 72.734375 123.609375 72.5 123.542969 L 72.433594 123.542969 L 72.269531 123.476562 L 72.171875 123.476562 L 72.039062 123.441406 L 71.839844 123.441406 C 71.609375 123.375 71.34375 123.277344 71.113281 123.179688 L 71.082031 123.179688 L 71.015625 123.144531 L 70.914062 123.144531 L 70.847656 123.113281 L 70.71875 123.046875 L 70.617188 123.011719 L 70.484375 123.011719 C 70.253906 122.914062 70.023438 122.847656 69.824219 122.75 L 69.792969 122.714844 L 69.691406 122.714844 L 69.625 122.683594 L 69.527344 122.683594 L 69.394531 122.617188 L 66.984375 125.625 L 61.332031 132.632812 L 58.488281 136.136719 L 55.648438 139.636719 L 49.996094 146.679688 L 47.15625 150.183594 L 41.933594 156.628906 C 42.164062 156.957031 42.363281 157.324219 42.5625 157.652344 L 42.5625 157.851562 L 42.59375 157.917969 L 42.59375 158.015625 L 42.628906 158.050781 L 42.660156 158.148438 L 42.695312 158.214844 L 42.695312 158.414062 C 42.828125 158.675781 42.957031 158.941406 43.058594 159.207031 L 43.058594 160.066406 C 43.191406 160.363281 43.289062 160.628906 43.386719 160.925781 L 43.386719 161.320312 L 43.421875 161.386719 L 43.421875 161.488281 L 43.453125 161.554688 L 43.453125 161.75 L 43.488281 161.851562 L 43.488281 161.882812 C 43.585938 162.214844 43.6875 162.511719 43.75 162.84375 L 43.75 162.90625 L 43.785156 163.007812 L 43.785156 163.039062 L 43.816406 163.140625 L 43.816406 163.273438 L 43.851562 163.371094 L 43.851562 163.867188 C 43.917969 164.230469 43.984375 164.59375 44.050781 164.957031 L 44.050781 166.046875 C 44.117188 166.644531 44.148438 167.203125 44.148438 167.800781 L 44.148438 167.832031 C 44.148438 168.492188 44.082031 169.121094 44.015625 169.75 L 44.015625 171.46875 C 43.851562 172.359375 43.652344 173.21875 43.386719 174.046875 L 43.355469 174.179688 L 43.355469 174.210938 L 43.320312 174.34375 L 43.320312 174.378906 L 43.257812 174.542969 L 43.222656 174.609375 L 43.191406 174.742188 L 43.191406 174.808594 L 43.125 174.972656 L 43.125 175.003906 L 43.058594 175.136719 L 43.058594 175.171875 L 42.992188 175.335938 L 42.957031 175.402344 L 42.925781 175.5 L 42.925781 175.566406 L 42.859375 175.699219 L 42.828125 175.730469 L 42.792969 175.832031 L 42.761719 175.964844 L 42.726562 176.03125 L 42.695312 176.128906 L 42.628906 176.261719 L 42.59375 176.328125 L 42.5625 176.425781 L 42.527344 176.492188 L 42.527344 176.527344 L 42.464844 176.65625 L 42.464844 176.691406 L 42.398438 176.824219 L 42.363281 176.890625 L 42.296875 177.019531 L 42.265625 177.085938 L 42.199219 177.1875 L 42.164062 177.21875 L 42.097656 177.351562 L 42.066406 177.386719 L 42 177.515625 L 42 177.550781 L 41.902344 177.714844 L 41.867188 177.75 L 41.800781 177.878906 L 41.800781 177.914062 L 41.734375 178.046875 L 41.703125 178.078125 L 41.636719 178.210938 L 41.636719 178.246094 L 41.570312 178.375 L 41.539062 178.441406 L 41.472656 178.574219 L 41.472656 178.609375 L 41.371094 178.773438 L 41.371094 178.804688 L 41.273438 178.972656 L 41.175781 179.136719 L 41.175781 179.167969 L 41.074219 179.300781 L 41.074219 179.335938 L 41.007812 179.433594 L 40.976562 179.5 L 40.976562 179.535156 L 40.910156 179.632812 L 40.910156 179.664062 L 40.875 179.699219 L 40.679688 179.964844 L 40.644531 179.996094 L 40.546875 180.128906 L 40.445312 180.261719 L 40.414062 180.292969 L 40.414062 180.328125 C 40.347656 180.425781 40.28125 180.523438 40.214844 180.625 L 40.183594 180.65625 L 40.117188 180.757812 L 40.082031 180.789062 L 40.019531 180.886719 L 39.984375 180.953125 L 39.917969 181.054688 L 39.71875 181.253906 L 39.621094 181.382812 L 39.953125 181.945312 L 40.8125 183.335938 L 41.242188 184.027344 L 41.671875 184.722656 L 42.097656 185.417969 L 42.527344 186.109375 L 43.816406 188.195312 L 44.246094 188.886719 L 45.105469 190.277344 L 45.535156 190.96875 L 46.394531 192.359375 L 46.824219 193.050781 L 47.683594 194.441406 L 48.113281 195.132812 L 49.402344 197.21875 L 49.832031 197.910156 L 50.691406 199.300781 L 51.121094 199.992188 L 51.980469 201.382812 L 52.410156 202.074219 L 53.269531 203.464844 L 53.699219 204.15625 L 54.988281 206.242188 L 55.417969 206.933594 L 56.277344 208.324219 L 56.375 208.488281 C 56.640625 208.390625 56.871094 208.324219 57.136719 208.222656 L 58.125 208.222656 C 58.457031 208.125 58.753906 208.058594 59.085938 207.960938 L 60.109375 207.960938 C 60.40625 207.894531 60.738281 207.828125 61.035156 207.792969 L 61.925781 207.792969 C 62.289062 207.761719 62.621094 207.695312 62.984375 207.660156 L 63.710938 207.660156 C 64.007812 207.628906 64.273438 207.628906 64.570312 207.597656 L 65.460938 207.597656 C 65.660156 207.597656 65.859375 207.597656 66.058594 207.597656 C 66.355469 207.597656 66.652344 207.597656 66.917969 207.597656 L 66.949219 207.597656 C 67.214844 207.597656 67.480469 207.628906 67.742188 207.628906 L 68.535156 207.628906 C 68.800781 207.660156 69.066406 207.695312 69.328125 207.726562 L 69.691406 207.726562 L 69.824219 207.761719 L 69.957031 207.792969 L 69.988281 207.792969 C 70.253906 207.828125 70.484375 207.859375 70.75 207.925781 L 70.78125 207.925781 C 71.015625 207.960938 71.210938 207.992188 71.445312 208.058594 L 71.511719 208.058594 C 71.742188 208.089844 72.003906 208.15625 72.238281 208.222656 L 72.402344 208.222656 C 72.566406 208.257812 72.765625 208.324219 72.929688 208.355469 C 73.164062 208.421875 73.394531 208.488281 73.65625 208.554688 L 74.386719 208.554688 C 74.617188 208.621094 74.878906 208.71875 75.113281 208.785156 L 75.144531 208.785156 C 75.308594 208.851562 75.441406 208.886719 75.609375 208.949219 L 75.804688 209.015625 C 76.039062 209.117188 76.269531 209.183594 76.46875 209.28125 L 76.597656 209.28125 L 76.632812 209.316406 L 76.765625 209.378906 L 76.832031 209.414062 L 76.863281 209.414062 L 76.960938 209.445312 L 76.996094 209.445312 L 77.0625 209.480469 C 77.292969 209.578125 77.492188 209.679688 77.722656 209.777344 L 78.25 209.777344 L 78.285156 209.808594 L 78.316406 209.84375 L 78.351562 209.84375 C 78.582031 209.941406 78.78125 210.042969 79.011719 210.175781 L 79.707031 210.175781 C 79.902344 210.273438 80.136719 210.40625 80.332031 210.539062 L 80.398438 210.539062 L 80.5 210.605469 C 80.597656 210.667969 80.695312 210.734375 80.828125 210.800781 L 80.863281 210.800781 L 80.960938 210.867188 L 80.996094 210.867188 C 81.191406 211 81.390625 211.132812 81.589844 211.265625 L 82.050781 211.265625 L 82.085938 211.296875 L 82.152344 211.296875 C 82.347656 211.429688 82.546875 211.5625 82.746094 211.726562 L 82.84375 211.726562 C 82.976562 211.828125 83.140625 211.925781 83.273438 212.058594 C 83.472656 212.222656 83.703125 212.386719 83.902344 212.554688 L 83.933594 212.554688 L 83.96875 212.585938 L 84 212.621094 L 84.035156 212.621094 L 84.101562 212.652344 L 84.132812 212.652344 L 84.167969 212.6875 L 84.398438 212.6875 C 84.597656 212.851562 84.761719 213.015625 84.960938 213.148438 L 85.390625 213.148438 C 85.554688 213.3125 85.753906 213.480469 85.917969 213.644531 L 85.949219 213.644531 L 85.984375 213.675781 L 86.015625 213.710938 L 86.050781 213.742188 L 86.082031 213.777344 L 86.117188 213.808594 L 86.148438 213.84375 C 86.214844 213.910156 86.28125 213.976562 86.316406 214.042969 C 86.480469 214.238281 86.679688 214.40625 86.84375 214.601562 L 86.875 214.636719 L 86.910156 214.667969 L 86.941406 214.703125 L 86.976562 214.769531 L 87.238281 215.03125 C 87.503906 215.332031 87.769531 215.628906 88.03125 215.957031 L 88.03125 216.222656 C 88.199219 216.421875 88.363281 216.652344 88.527344 216.882812 L 88.527344 216.949219 C 88.660156 217.148438 88.824219 217.347656 88.957031 217.511719 C 89.125 217.742188 89.253906 217.941406 89.421875 218.171875 C 89.785156 218.703125 90.113281 219.261719 90.445312 219.824219 L 90.445312 220.023438 C 90.644531 220.355469 90.808594 220.683594 90.972656 221.015625 L 90.972656 221.148438 L 91.007812 221.214844 L 91.007812 221.246094 C 91.105469 221.410156 91.171875 221.609375 91.269531 221.777344 C 91.402344 222.074219 91.535156 222.371094 91.667969 222.667969 L 91.667969 223.097656 L 91.699219 223.164062 L 91.699219 223.195312 L 91.765625 223.394531 L 91.765625 223.429688 C 91.898438 223.726562 92 224.023438 92.097656 224.320312 C 92.429688 225.246094 92.726562 226.171875 92.988281 227.128906 C 93.15625 227.824219 93.320312 228.519531 93.453125 229.210938 C 93.585938 229.972656 93.683594 230.765625 93.78125 231.558594 C 93.816406 231.988281 93.847656 232.417969 93.882812 232.816406 C 93.914062 233.34375 93.914062 233.871094 93.914062 234.402344 C 93.914062 235.394531 93.882812 236.351562 93.78125 237.308594 C 93.652344 238.730469 93.386719 240.121094 93.054688 241.441406 C 92.792969 242.53125 92.460938 243.589844 92.066406 244.617188 C 91.207031 246.929688 90.046875 249.078125 88.660156 251.0625 L 88.660156 251.09375 C 88.59375 251.160156 88.5625 251.257812 88.496094 251.324219 C 88.429688 251.390625 88.398438 251.492188 88.332031 251.554688 L 88.296875 251.589844 C 88.230469 251.65625 88.164062 251.753906 88.132812 251.820312 C 88 251.984375 87.867188 252.152344 87.769531 252.316406 C 87.703125 252.382812 87.636719 252.480469 87.601562 252.546875 L 87.570312 252.582031 L 87.539062 252.613281 C 86.84375 253.472656 86.082031 254.300781 85.289062 255.09375 C 83.902344 256.480469 82.347656 257.703125 80.695312 258.796875 C 80.265625 259.058594 79.871094 259.324219 79.441406 259.589844 C 78.316406 260.214844 77.195312 260.8125 75.972656 261.308594 C 75.609375 261.441406 75.277344 261.605469 74.914062 261.738281 C 74.253906 261.96875 73.558594 262.199219 72.898438 262.398438 C 71.972656 262.664062 71.015625 262.894531 70.023438 263.058594 C 69.726562 263.125 69.429688 263.160156 69.097656 263.222656 C 68.273438 263.355469 67.414062 263.421875 66.554688 263.488281 L 66.488281 263.488281 C 66.023438 263.523438 65.5625 263.523438 65.097656 263.523438 C 64.769531 263.523438 64.472656 263.523438 64.140625 263.523438 L 63.414062 263.523438 C 63.148438 263.523438 62.886719 263.488281 62.621094 263.457031 L 62.125 263.457031 C 62.058594 263.457031 61.960938 263.421875 61.894531 263.421875 L 62.125 263.457031 L 61.132812 263.324219 L 61.894531 263.421875 C 61.628906 263.390625 61.367188 263.355469 61.132812 263.324219 L 60.9375 263.289062 L 60.441406 263.289062 C 60.175781 263.257812 59.945312 263.191406 59.679688 263.160156 L 59.515625 263.160156 L 59.414062 263.125 C 59.25 263.09375 59.117188 263.058594 58.953125 263.027344 C 58.722656 262.960938 58.457031 262.925781 58.226562 262.859375 L 57.894531 262.859375 L 57.695312 262.792969 L 57.632812 262.761719 L 57.566406 262.761719 C 57.332031 262.695312 57.101562 262.628906 56.871094 262.5625 L 56.175781 262.5625 C 55.945312 262.496094 55.714844 262.398438 55.484375 262.332031 L 54.953125 262.332031 L 54.886719 262.300781 L 54.789062 262.300781 C 54.558594 262.199219 54.328125 262.132812 54.128906 262.035156 L 53.832031 262.035156 L 53.664062 261.96875 L 53.597656 261.933594 L 53.535156 261.933594 L 53.433594 261.902344 C 53.203125 261.804688 53.003906 261.703125 52.773438 261.605469 L 52.742188 261.605469 L 52.640625 261.570312 L 52.507812 261.570312 L 52.375 261.503906 L 52.34375 261.503906 C 51.847656 261.273438 51.386719 261.011719 50.921875 260.746094 L 50.855469 260.710938 C 50.660156 260.582031 50.425781 260.480469 50.230469 260.347656 L 50.195312 260.316406 L 50.128906 260.316406 L 50.0625 260.28125 L 50.03125 260.28125 L 49.898438 260.214844 L 49.867188 260.183594 L 49.765625 260.117188 L 49.699219 260.117188 L 49.667969 260.085938 L 49.632812 260.085938 C 49.4375 259.953125 49.238281 259.820312 49.039062 259.6875 L 48.90625 259.6875 L 48.875 259.65625 L 48.773438 259.65625 L 48.742188 259.621094 L 48.707031 259.621094 L 48.675781 259.589844 L 48.542969 259.589844 C 48.148438 259.324219 47.75 259.027344 47.386719 258.730469 C 47.1875 258.5625 47.023438 258.433594 46.824219 258.265625 L 46.726562 258.199219 L 46.625 258.199219 L 46.59375 258.167969 L 46.460938 258.167969 L 46.429688 258.132812 L 46.394531 258.101562 L 46.296875 258.003906 C 46.097656 257.835938 45.933594 257.671875 45.734375 257.507812 C 45.570312 257.339844 45.371094 257.175781 45.207031 257.011719 C 45.039062 256.84375 44.84375 256.679688 44.675781 256.480469 C 44.511719 256.316406 44.378906 256.183594 44.214844 256.019531 C 44.015625 255.820312 43.851562 255.621094 43.652344 255.421875 L 43.652344 255.292969 L 43.621094 255.257812 L 43.585938 255.226562 L 43.554688 255.191406 L 43.519531 255.160156 L 43.488281 255.125 L 43.488281 255.09375 L 43.453125 255.027344 C 43.289062 254.828125 43.125 254.628906 42.957031 254.433594 L 42.957031 253.9375 L 42.925781 253.871094 L 42.925781 253.804688 C 42.59375 253.375 42.265625 252.910156 41.96875 252.480469 C 41.800781 252.25 41.671875 252.050781 41.539062 251.820312 C 41.207031 251.324219 40.910156 250.796875 40.613281 250.300781 L 40.613281 250.199219 C 40.25 249.539062 39.886719 248.847656 39.589844 248.117188 C 39.457031 247.855469 39.355469 247.558594 39.226562 247.292969 C 38.992188 246.730469 38.761719 246.136719 38.5625 245.539062 C 38.234375 244.582031 37.96875 243.625 37.738281 242.632812 C 37.574219 241.90625 37.441406 241.175781 37.339844 240.449219 C 37.273438 240.054688 37.242188 239.65625 37.175781 239.261719 C 37.078125 238.234375 37.011719 237.210938 37.011719 236.1875 L 37.011719 236.085938 C 37.011719 235.195312 37.078125 234.300781 37.175781 233.410156 L 37.175781 233.375 L 37.207031 233.144531 L 37.207031 232.914062 L 37.242188 232.714844 C 37.273438 232.515625 37.308594 232.320312 37.308594 232.121094 C 37.40625 231.394531 37.539062 230.667969 37.703125 229.972656 L 37.703125 229.90625 L 37.738281 229.742188 L 37.738281 229.675781 L 37.769531 229.507812 L 37.769531 229.445312 L 37.804688 229.277344 L 37.835938 229.210938 L 37.902344 229.015625 L 37.96875 228.78125 L 37.96875 228.75 C 38.003906 228.683594 38.003906 228.585938 38.035156 228.519531 C 38.066406 228.453125 38.066406 228.351562 38.101562 228.285156 L 38.101562 228.253906 L 38.167969 228.023438 L 38.234375 227.789062 L 38.234375 227.757812 C 38.265625 227.691406 38.265625 227.625 38.300781 227.558594 L 38.300781 227.527344 C 38.332031 227.460938 38.332031 227.394531 38.367188 227.328125 L 38.367188 227.261719 L 38.398438 227.195312 C 39.621094 223.492188 41.605469 220.15625 44.082031 217.28125 L 44.148438 217.214844 L 44.179688 217.179688 L 44.28125 217.082031 L 44.3125 217.046875 L 44.347656 217.015625 L 44.378906 216.980469 L 44.414062 216.949219 L 44.578125 216.785156 L 44.609375 216.75 L 44.644531 216.71875 L 44.675781 216.683594 L 44.710938 216.652344 L 44.742188 216.617188 L 44.777344 216.585938 L 45.140625 216.222656 L 45.171875 216.1875 L 45.304688 216.058594 L 45.339844 216.023438 L 45.339844 215.992188 L 45.503906 215.824219 L 44.84375 214.769531 L 43.984375 213.378906 L 43.554688 212.6875 L 42.265625 210.601562 L 41.835938 209.910156 L 40.976562 208.519531 L 40.546875 207.828125 L 39.6875 206.4375 L 39.257812 205.746094 L 37.96875 203.660156 L 37.539062 202.96875 L 36.679688 201.578125 L 36.25 200.886719 L 35.390625 199.496094 L 34.960938 198.804688 L 34.101562 197.414062 L 33.671875 196.722656 L 32.382812 194.636719 L 31.953125 193.945312 L 31.09375 192.554688 L 30.664062 191.863281 L 30.238281 191.167969 L 29.808594 190.472656 L 29.378906 189.78125 L 28.949219 189.085938 L 28.75 188.753906 C 28.585938 188.789062 28.417969 188.820312 28.253906 188.886719 L 27.726562 188.886719 L 27.59375 188.921875 L 27.363281 188.921875 L 27.261719 188.953125 C 26.964844 189.019531 26.667969 189.050781 26.335938 189.117188 L 25.445312 189.117188 C 25.148438 189.152344 24.882812 189.183594 24.585938 189.183594 L 23.890625 189.183594 C 23.726562 189.183594 23.5625 189.183594 23.394531 189.183594 C 23 189.183594 22.636719 189.183594 22.238281 189.152344 C 21.710938 189.117188 21.183594 189.085938 20.652344 189.019531 C 20.390625 188.984375 20.15625 188.953125 19.894531 188.921875 L 19.726562 188.921875 C 19.53125 188.886719 19.363281 188.855469 19.167969 188.820312 C 18.933594 188.789062 18.671875 188.722656 18.4375 188.65625 C 17.945312 188.554688 17.480469 188.425781 17.019531 188.257812 C 16.324219 188.027344 15.628906 187.796875 14.96875 187.5 C 14.738281 187.398438 14.507812 187.300781 14.273438 187.203125 L 14.242188 187.203125 L 14.109375 187.136719 C 13.976562 187.070312 13.8125 187.003906 13.679688 186.9375 C 13.480469 186.835938 13.25 186.707031 13.050781 186.605469 C 12.625 186.375 12.226562 186.144531 11.828125 185.878906 L 11.402344 185.878906 C 10.9375 185.546875 10.476562 185.21875 10.011719 184.886719 C 9.617188 184.589844 9.253906 184.257812 8.890625 183.960938 C 8.691406 183.796875 8.527344 183.632812 8.359375 183.464844 C 7.996094 183.136719 7.667969 182.773438 7.335938 182.410156 C 7.003906 182.046875 6.675781 181.648438 6.34375 181.25 C 6.015625 180.855469 5.714844 180.425781 5.417969 179.960938 C 5.121094 179.5 4.824219 179.039062 4.558594 178.574219 C 4.128906 177.8125 3.734375 177.054688 3.402344 176.261719 C 3.269531 175.964844 3.171875 175.699219 3.074219 175.402344 C 2.839844 174.773438 2.644531 174.144531 2.476562 173.515625 L 2.476562 172.625 C 2.410156 172.261719 2.3125 171.898438 2.28125 171.535156 L 2.28125 171.433594 L 2.246094 171.335938 L 2.246094 171.269531 C 2.082031 170.277344 1.984375 169.253906 1.984375 168.195312 L 1.984375 167.832031 C 1.984375 167.171875 2.015625 166.511719 2.082031 165.847656 L 2.082031 165.816406 C 2.082031 165.75 2.082031 165.652344 2.113281 165.585938 L 2.113281 165.320312 C 2.113281 165.253906 2.148438 165.1875 2.148438 165.121094 L 2.148438 165.054688 C 2.28125 163.996094 2.511719 162.941406 2.777344 161.914062 C 3.734375 158.476562 5.550781 155.402344 7.929688 152.859375 Z M 5.980469 153.421875 " fill-opacity="1" fill-rule="evenodd"/></g><path fill="#272727" d="M 227.1875 274.5625 L 227.285156 274.53125 L 227.386719 274.496094 L 227.78125 274.496094 C 229.535156 274 231.382812 273.769531 233.300781 273.769531 C 244.898438 273.769531 254.285156 283.15625 254.285156 294.757812 C 254.285156 298.988281 253.027344 302.890625 250.914062 306.195312 L 272.691406 333.664062 C 274.90625 332.871094 277.316406 332.40625 279.828125 332.40625 C 291.394531 332.40625 300.78125 341.792969 300.78125 353.363281 C 300.78125 364.929688 291.394531 374.320312 279.828125 374.320312 C 268.261719 374.320312 258.84375 364.929688 258.84375 353.363281 C 258.84375 349.132812 260.101562 345.230469 262.214844 341.925781 L 240.4375 314.457031 C 238.226562 315.253906 235.8125 315.683594 233.300781 315.683594 C 223.617188 315.683594 215.488281 309.136719 213.078125 300.210938 L 213.042969 300.082031 L 213.042969 300.046875 C 213.011719 299.914062 212.976562 299.75 212.945312 299.617188 C 212.746094 298.726562 212.582031 297.832031 212.480469 296.941406 C 212.417969 296.28125 212.382812 295.617188 212.351562 294.925781 L 212.351562 294.890625 C 212.351562 294.132812 212.382812 293.371094 212.480469 292.644531 L 212.480469 292.609375 C 212.480469 292.542969 212.515625 292.445312 212.515625 292.378906 L 212.515625 292.3125 L 212.546875 292.148438 L 212.582031 292.015625 L 212.582031 291.882812 L 212.613281 291.71875 L 212.613281 291.652344 C 212.8125 290.496094 213.078125 289.402344 213.441406 288.3125 C 214.332031 285.703125 215.6875 283.289062 217.472656 281.238281 C 218.066406 280.546875 218.726562 279.886719 219.421875 279.257812 L 219.453125 279.222656 L 219.488281 279.191406 C 219.554688 279.125 219.621094 279.089844 219.652344 279.027344 C 219.71875 278.960938 219.785156 278.925781 219.851562 278.859375 C 219.917969 278.792969 219.984375 278.761719 220.050781 278.695312 C 220.117188 278.660156 220.183594 278.597656 220.214844 278.5625 L 220.25 278.53125 L 220.28125 278.496094 C 220.347656 278.464844 220.378906 278.398438 220.445312 278.363281 L 220.480469 278.332031 C 220.546875 278.296875 220.613281 278.230469 220.644531 278.199219 L 220.675781 278.164062 C 220.742188 278.132812 220.808594 278.066406 220.875 278.035156 C 221.304688 277.703125 221.769531 277.40625 222.230469 277.140625 C 222.992188 276.679688 223.785156 276.25 224.609375 275.886719 C 225.4375 275.488281 226.328125 275.191406 227.222656 274.894531 Z M 227.1875 274.5625 " fill-opacity="1" fill-rule="evenodd"/></svg>