<svg xmlns="http://www.w3.org/2000/svg" xmlns:xlink="http://www.w3.org/1999/xlink" width="500" zoomAndPan="magnify" viewBox="0 0 375 374.999991" height="500" preserveAspectRatio="xMidYMid meet" version="1.0"><path fill="#5271ff" d="M 273.988281 50.199219 C 263.628906 46.378906 252.171875 51.742188 248.425781 61.949219 C 246.953125 65.546875 246.808594 69.441406 247.542969 72.964844 L 211.398438 89.785156 C 209.195312 86.992188 206.257812 84.789062 202.730469 83.46875 C 192.371094 79.648438 180.914062 84.9375 177.164062 95.21875 C 173.347656 105.574219 178.636719 117.03125 188.917969 120.847656 C 192.445312 122.171875 196.117188 122.390625 199.644531 121.730469 L 216.101562 158.082031 C 213.234375 160.285156 210.957031 163.222656 209.5625 166.894531 C 205.742188 177.25 211.03125 188.707031 221.316406 192.527344 C 231.675781 196.347656 243.136719 191.058594 246.953125 180.777344 C 250.773438 170.496094 245.414062 158.964844 235.199219 155.144531 C 231.601562 153.824219 227.929688 153.605469 224.476562 154.265625 L 208.019531 117.910156 C 210.8125 115.707031 213.089844 112.769531 214.410156 109.097656 C 215.734375 105.5 216.027344 101.753906 215.292969 98.230469 L 251.4375 81.339844 C 253.640625 84.128906 256.578125 86.332031 260.105469 87.652344 C 270.460938 91.472656 281.847656 86.183594 285.667969 75.902344 C 289.488281 65.621094 284.273438 54.019531 273.988281 50.199219 Z M 368.535156 207.363281 C 366.699219 196.492188 356.414062 189.222656 345.46875 190.984375 C 341.722656 191.644531 338.269531 193.410156 335.625 195.757812 L 303.007812 172.917969 C 304.253906 169.6875 304.695312 165.941406 304.035156 162.195312 C 302.199219 151.398438 291.914062 144.128906 281.113281 145.964844 C 270.242188 147.800781 262.96875 158.082031 264.734375 169.027344 C 265.394531 172.773438 267.011719 176.003906 269.289062 178.648438 L 246.148438 211.035156 C 242.765625 209.710938 239.09375 209.199219 235.273438 209.785156 C 224.402344 211.695312 217.128906 221.902344 218.890625 232.847656 C 220.800781 243.640625 231.160156 250.984375 241.960938 249.078125 C 252.757812 247.242188 260.105469 236.957031 258.195312 226.164062 C 257.605469 222.417969 255.917969 219.113281 253.640625 216.394531 L 276.855469 184.007812 C 280.234375 185.476562 283.90625 185.917969 287.726562 185.257812 C 291.546875 184.59375 294.925781 182.832031 297.570312 180.484375 L 330.261719 203.324219 C 328.9375 206.554688 328.570312 210.300781 329.085938 214.046875 C 330.996094 224.839844 341.207031 232.113281 352.152344 230.277344 C 363.097656 228.511719 370.371094 218.15625 368.535156 207.363281 Z M 313.4375 216.761719 C 311.527344 205.964844 301.316406 198.621094 290.371094 200.53125 C 279.570312 202.367188 272.226562 212.648438 274.136719 223.445312 C 275.972656 234.316406 286.257812 241.585938 297.054688 239.824219 C 308.003906 237.914062 315.273438 227.632812 313.4375 216.761719 Z M 279.71875 367.683594 C 288.242188 360.707031 289.34375 348.148438 282.289062 339.703125 C 279.867188 336.765625 276.707031 334.632812 273.328125 333.460938 L 276.78125 293.800781 C 280.234375 293.289062 283.6875 291.890625 286.550781 289.394531 C 295.074219 282.417969 296.175781 269.785156 289.195312 261.414062 C 282.144531 252.894531 269.582031 251.792969 261.058594 258.84375 C 258.195312 261.265625 256.0625 264.277344 254.960938 267.65625 L 215.367188 263.765625 C 214.777344 260.238281 213.382812 256.714844 210.886719 253.703125 C 203.90625 245.257812 191.34375 244.15625 182.894531 251.132812 C 174.375 258.183594 173.273438 270.742188 180.324219 279.113281 C 187.304688 287.632812 199.9375 288.734375 208.3125 281.757812 C 211.253906 279.261719 213.308594 276.175781 214.410156 272.871094 L 254.082031 276.761719 C 254.59375 280.363281 255.992188 283.8125 258.488281 286.824219 C 260.984375 289.761719 264.144531 291.890625 267.597656 293.066406 L 264.144531 332.726562 C 260.617188 333.238281 257.238281 334.707031 254.300781 337.132812 C 245.78125 344.109375 244.675781 356.742188 251.730469 365.113281 C 258.636719 373.632812 271.269531 374.808594 279.71875 367.683594 Z M 244.015625 324.792969 C 252.464844 317.742188 253.566406 305.183594 246.585938 296.664062 C 239.535156 288.21875 226.972656 287.046875 218.453125 294.09375 C 210.003906 301.074219 208.902344 313.703125 215.878906 322.078125 C 223.007812 330.59375 235.496094 331.769531 244.015625 324.792969 Z M 96.355469 371.0625 C 106.714844 374.878906 118.175781 369.59375 121.921875 359.3125 C 123.390625 355.710938 123.539062 351.964844 122.804688 348.441406 L 158.945312 331.550781 C 161.152344 334.339844 164.089844 336.542969 167.617188 337.867188 C 177.972656 341.683594 189.433594 336.398438 193.179688 326.117188 C 197 315.761719 191.710938 304.304688 181.425781 300.484375 C 177.902344 299.238281 174.226562 298.941406 170.699219 299.605469 L 154.246094 263.398438 C 157.109375 261.121094 159.386719 258.109375 160.785156 254.511719 C 164.605469 244.15625 159.316406 232.699219 149.03125 228.878906 C 138.671875 225.0625 127.210938 230.421875 123.390625 240.703125 C 119.570312 250.914062 124.933594 262.441406 135.144531 266.261719 C 138.746094 267.582031 142.417969 267.804688 145.871094 267.144531 L 162.328125 303.496094 C 159.535156 305.699219 157.257812 308.636719 155.933594 312.308594 C 154.613281 315.980469 154.320312 319.800781 155.054688 323.324219 L 118.910156 340.144531 C 116.707031 337.351562 113.769531 335.148438 110.242188 333.828125 C 99.882812 330.007812 88.496094 335.296875 84.675781 345.578125 C 80.785156 355.785156 86.074219 367.242188 96.355469 371.0625 Z M 115.824219 318.699219 C 126.183594 322.515625 137.570312 317.15625 141.390625 306.875 C 145.210938 296.664062 139.921875 285.136719 129.636719 281.316406 C 119.277344 277.496094 107.816406 282.785156 103.996094 293.066406 C 100.175781 303.347656 105.464844 314.878906 115.824219 318.699219 Z M 1.8125 213.972656 C 3.648438 224.765625 13.933594 232.039062 24.878906 230.203125 C 28.625 229.542969 32.078125 227.925781 34.722656 225.429688 L 67.339844 248.269531 C 66.089844 251.648438 65.648438 255.246094 66.3125 258.992188 C 68.148438 269.785156 78.433594 277.128906 89.230469 275.222656 C 100.105469 273.386719 107.375 263.105469 105.613281 252.308594 C 104.953125 248.5625 103.335938 245.257812 101.058594 242.539062 L 124.199219 210.152344 C 127.578125 211.621094 131.25 212.0625 135.070312 211.402344 C 145.945312 209.566406 153.21875 199.285156 151.453125 188.488281 C 149.542969 177.617188 139.1875 170.347656 128.386719 172.109375 C 117.589844 174.019531 110.242188 184.226562 112.152344 195.171875 C 112.738281 198.917969 114.429688 202.148438 116.707031 204.792969 L 93.492188 237.179688 C 90.113281 235.855469 86.441406 235.34375 82.621094 236.003906 C 78.800781 236.589844 75.421875 238.28125 72.777344 240.703125 L 40.085938 217.863281 C 41.40625 214.632812 41.773438 210.960938 41.261719 207.214844 C 39.351562 196.347656 29.140625 189.074219 18.195312 190.839844 C 7.246094 192.820312 -0.0234375 203.101562 1.8125 213.972656 Z M 56.90625 204.496094 C 58.816406 215.367188 69.03125 222.636719 79.976562 220.875 C 90.773438 218.964844 98.121094 208.609375 96.210938 197.816406 C 94.375 187.019531 84.089844 179.675781 73.289062 181.585938 C 62.34375 183.421875 55.070312 193.703125 56.90625 204.496094 Z M 90.628906 53.578125 C 82.105469 60.554688 81.003906 73.1875 88.054688 81.558594 C 90.480469 84.496094 93.640625 86.625 97.019531 87.800781 L 93.566406 127.457031 C 90.113281 128.046875 86.660156 129.441406 83.796875 131.863281 C 75.273438 138.914062 74.171875 151.472656 81.152344 159.847656 C 88.203125 168.363281 100.765625 169.464844 109.285156 162.488281 C 112.152344 159.992188 114.28125 156.910156 115.382812 153.605469 L 154.980469 157.496094 C 155.566406 161.09375 156.964844 164.546875 159.460938 167.558594 C 166.441406 176.078125 179.074219 177.179688 187.449219 170.128906 C 195.972656 163.152344 197.074219 150.519531 190.023438 142.148438 C 183.042969 133.628906 170.40625 132.527344 162.03125 139.578125 C 159.09375 142 157.039062 145.011719 155.933594 148.390625 L 116.265625 144.496094 C 115.75 140.972656 114.355469 137.445312 111.859375 134.433594 C 109.359375 131.496094 106.203125 129.367188 102.75 128.339844 L 106.203125 88.535156 C 109.726562 88.019531 113.179688 86.625 116.046875 84.203125 C 124.566406 77.152344 125.667969 64.59375 118.617188 56.074219 C 111.710938 47.703125 99.074219 46.453125 90.628906 53.578125 Z M 126.328125 96.613281 C 117.882812 103.589844 116.78125 116.222656 123.757812 124.59375 C 130.8125 133.113281 143.375 134.214844 151.894531 127.164062 C 160.34375 120.1875 161.445312 107.628906 154.464844 99.183594 C 147.339844 90.738281 134.851562 89.488281 126.328125 96.613281 Z M 254.519531 102.710938 C 244.164062 98.890625 232.777344 104.179688 228.957031 114.460938 C 225.136719 124.742188 230.425781 136.273438 240.710938 140.089844 C 251.070312 143.835938 262.527344 138.546875 266.347656 128.265625 C 270.167969 117.984375 264.878906 106.527344 254.519531 102.710938 Z M 254.519531 102.710938 " fill-opacity="1" fill-rule="nonzero"/></svg>