<svg xmlns="http://www.w3.org/2000/svg" xmlns:xlink="http://www.w3.org/1999/xlink" width="500" zoomAndPan="magnify" viewBox="0 0 375 374.999991" height="500" preserveAspectRatio="xMidYMid meet" version="1.0"><path fill="#f2f2f2" d="M 379.5 189.75 C 379.5 294.542969 294.542969 379.5 189.75 379.5 C 93.0625 379.5 13.269531 307.1875 1.503906 213.6875 C 0.511719 205.851562 0 197.855469 0 189.75 C 0 174.890625 1.703125 160.433594 4.933594 146.5625 C 24.480469 62.578125 99.808594 0 189.75 0 C 279.46875 0 354.644531 62.265625 374.414062 145.945312 C 377.003906 156.886719 378.640625 168.191406 379.238281 179.773438 C 379.414062 183.082031 379.5 186.402344 379.5 189.75 Z M 379.5 189.75 " fill-opacity="1" fill-rule="nonzero"/><path fill="#3b8739" d="M 180.257812 204.984375 L 180.257812 155.652344 L 137.53125 130.984375 L 94.808594 155.652344 L 94.808594 204.984375 L 137.53125 229.65625 Z M 180.257812 204.984375 " fill-opacity="1" fill-rule="nonzero"/><path fill="#333333" d="M 348.519531 197.5 L 376.363281 213.582031 L 348.519531 229.65625 L 305.800781 204.988281 L 305.800781 155.65625 L 348.519531 130.988281 L 374.414062 145.945312 C 377.003906 156.886719 378.640625 168.191406 379.238281 179.769531 L 363.40625 188.914062 L 363.40625 171.726562 L 348.519531 163.136719 L 333.636719 171.726562 L 333.636719 188.914062 Z M 348.519531 197.5 " fill-opacity="1" fill-rule="nonzero"/><path fill="#66a060" d="M 356.8125 185.109375 L 356.8125 175.53125 L 348.519531 170.746094 L 340.226562 175.53125 L 340.226562 185.109375 L 348.519531 189.898438 Z M 356.8125 185.109375 " fill-opacity="1" fill-rule="nonzero"/><path fill="#333333" d="M 74.628906 155.65625 L 74.628906 220.710938 L 46.136719 204.457031 L 46.136719 171.105469 L 31.910156 162.890625 L 17.683594 171.105469 L 17.683594 204.453125 L 1.503906 213.6875 C 0.511719 205.851562 0 197.855469 0 189.75 C 0 174.890625 1.703125 160.433594 4.933594 146.5625 L 31.910156 130.988281 Z M 74.628906 155.65625 " fill-opacity="1" fill-rule="nonzero"/><path fill="#6da75d" d="M 137.53125 130.984375 L 180.253906 204.984375 L 137.53125 229.648438 L 94.808594 155.648438 Z M 137.53125 130.984375 " fill-opacity="1" fill-rule="nonzero"/><path fill="#55a344" d="M 94.808594 204.984375 L 109.480469 181.0625 L 94.808594 155.652344 Z M 94.808594 204.984375 " fill-opacity="1" fill-rule="nonzero"/><path fill="#639d57" d="M 166.015625 180.316406 L 180.257812 155.652344 L 137.53125 130.984375 Z M 166.015625 180.316406 " fill-opacity="1" fill-rule="nonzero"/><path fill="#333333" d="M 256.867188 73.808594 L 256.867188 139.257812 L 242.546875 130.988281 L 199.820312 155.65625 L 199.820312 204.988281 L 242.546875 229.65625 L 285.269531 204.988281 L 285.269531 89.007812 Z M 256.789062 188.539062 L 242.546875 196.765625 L 228.300781 188.539062 L 228.300781 172.097656 L 242.546875 163.871094 L 256.789062 172.097656 Z M 256.789062 188.539062 " fill-opacity="1" fill-rule="nonzero"/><path fill="#66a060" d="M 209.132812 265.882812 C 209.132812 265.882812 208.292969 258.671875 200.578125 258.671875 C 192.863281 258.671875 187.582031 259.679688 187.582031 263.953125 C 187.582031 268.230469 202.589844 268.230469 208.296875 269.90625 C 213.996094 271.585938 219.027344 275.945312 216.511719 283.660156 C 213.996094 291.375 206.28125 292.210938 194.375 292.210938 C 182.46875 292.210938 179.785156 282.316406 179.785156 278.460938 L 186.488281 278.460938 C 186.488281 278.460938 185.652344 284.5 193.535156 285.507812 C 201.414062 286.507812 208.953125 287.078125 209.972656 280.976562 C 211.308594 272.925781 184.476562 276.953125 182.128906 269.070312 C 180.144531 262.414062 181.292969 253.640625 194.710938 252.300781 C 208.125 250.957031 215.503906 256.882812 215.503906 265.714844 Z M 209.132812 265.882812 " fill-opacity="1" fill-rule="nonzero"/><path fill="#66a060" d="M 144.328125 297.324219 L 159.160156 305.882812 C 166.613281 310.183594 175.925781 304.808594 175.925781 296.203125 L 175.925781 253.589844 L 169.882812 253.589844 L 169.882812 294.519531 C 169.882812 299.222656 164.796875 302.15625 160.726562 299.808594 L 150.375 293.832031 L 150.375 250.144531 L 188.207031 228.304688 L 226.039062 250.144531 L 226.039062 293.832031 L 188.207031 315.671875 L 177.308594 309.382812 L 170.191406 312.25 L 188.207031 322.652344 L 232.085938 297.320312 L 232.085938 246.65625 L 188.207031 221.324219 L 144.328125 246.65625 Z M 144.328125 297.324219 " fill-opacity="1" fill-rule="nonzero"/></svg>